<svg xmlns="http://www.w3.org/2000/svg" viewBox="0 0 30 31"><path d="M20.2 4.5C17.8 2 14.3.5 10.1.5H2.3V26l4.5 4.5h7.7c7.8 0 13.3-5.2 13.3-12.8 0-3.9-1.2-6.9-3.9-9.6l-3.7-3.6zm-.8 8.9c0 5.1-3.4 8.5-8.6 8.8V8.7h3.7c1.9 0 3.2.3 4.3 1.1.3 1 .6 2.3.6 3.6zm-1.3-4.9l-2.4-2.4c1 .6 1.8 1.4 2.4 2.4zm-3-2.8L18.4 9c-.2-.1-.5-.2-.7-.3l-3.3-3.3c.2.1.5.2.7.3zm-1.2-.5l3.4 3.4c-.3-.1-.5-.1-.7-.2l-3.5-3.5c.3.1.5.2.8.3zm-1.1-.4l3.5 3.5c-.3 0-.6-.1-.9-.1l-3.6-3.6c.3.1.7.1 1 .2zm-1.3-.2l3.6 3.6H14l-3.7-3.7c.5 0 .9.1 1.2.1zm-1.4-.1l3.7 3.7h-1.4L8.8 4.5h1.3zm-1.6 0l3.7 3.7h-1L7.5 4.5h1zm-1.3 0l3.7 3.7h-.5L6.7 4.5h.5zm-.7 0l3.8 3.8v.9L6.5 5.4v-.9zm-.1 8.3l.5.5.1-.1-.7-.7v-.8l1.1 1.1.1-.1-1.2-1.2v-1L8 12.2l.3-.2-1.8-1.9v-.8l2.3 2.3.1-.1L6.4 9V8l2.9 2.9.1-.1-3-3v-1l3.5 3.5.1-.1-3.6-3.6v-.9l3.8 3.8v12.7H6.4v-9.4zM6.9 30l-3.8-3.8h.3L7.2 30h-.3zm.6 0l-3.8-3.8H4L7.8 30h-.3zm.5 0l-3.8-3.8h.4L8.4 30H8zm.7 0l-3.8-3.8h.5L9.2 30h-.5zm.8 0l-3.8-3.8h.6l3.8 3.8h-.6zm.8 0l-3.8-3.8h.7L11 30h-.7zm1.1 0l-3.8-3.8h.9l3.8 3.8h-.9zm1.1 0l-3.8-3.8h1.1l3.8 3.8h-1.1zm1.9 0h-.5l-3.8-3.8h1.2l3.8 3.8h-.7zm1 0l-3.8-3.8c.4 0 .9-.1 1.3-.2l3.9 3.9c-.5 0-1 .1-1.4.1zm1.6-.2l-3.9-3.9 1.5-.3 3.9 3.9-1.5.3zm1.6-.4l-3.9-3.9c.5-.1 1-.3 1.5-.5l3.9 3.9c-.4.2-1 .4-1.5.5zm1.7-.6l-3.9-3.9c.6-.3 1.1-.5 1.6-.8l3.9 3.9c-.5.2-1 .5-1.6.8zm1.8-1l-3.9-3.9c.5-.4 1.1-.8 1.6-1.2l3.9 3.9c-.6.4-1.1.9-1.6 1.2zm1.7-1.3l-3.9-3.9c.6-.5 1.1-1.1 1.5-1.8l3.8 3.8c-.4.7-.9 1.3-1.4 1.9zm1.5-2l-3.8-3.9c.5-.7 1-1.6 1.3-2.5l3.8 3.8c-.4 1-.8 1.9-1.3 2.6zm1.3-2.7L22.8 18c.4-1.1.6-2.3.7-3.7l3.7 3.7c0 1.4-.2 2.6-.6 3.8zm.7-4l-3.7-3.7v-.7c0-2.3-.7-4.6-1.6-6.4l1.5 1.5c2.5 2.6 3.7 5.4 3.8 9.3z" fill="#dbdbdb"/></svg>