<svg xmlns="http://www.w3.org/2000/svg" viewBox="0 0 30 34"><path d="M19.9 16.1c0 1-.8 1.9-1.7 1.9-1 0-1.7-.9-1.7-1.9s.8-1.9 1.7-1.9c.9.1 1.7.9 1.7 1.9zm-8-1.8c-1 0-1.7.9-1.7 1.9s.8 1.9 1.7 1.9c1 0 1.7-.9 1.7-1.9.1-1.1-.7-1.9-1.7-1.9zM30 3.5V34c-4.3-3.8-2.9-2.5-8-7.2l1 3.2H3.5C1.6 30 0 28.4 0 26.5v-23C0 1.6 1.6 0 3.5 0h23C28.4 0 30 1.6 30 3.5zm-4.9 16.1c0-5.5-2.5-9.9-2.5-9.9-2.5-1.8-4.8-1.8-4.8-1.8l-.2.3c2.9.9 4.3 2.2 4.3 2.2-4.1-2.3-8.9-2.3-12.8-.5l-1 .5S9.5 9 12.5 8.1l-.2-.2S10 7.8 7.5 9.7c0 0-2.5 4.4-2.5 9.9 0 0 1.4 2.5 5.2 2.6 0 0 .6-.8 1.1-1.4-2.2-.6-3-2-3-2 .3.2.7.4.7.4 2.9 1.6 7 2.1 10.7.6.6-.2 1.3-.5 2-1 0 0-.9 1.4-3.1 2 .5.6 1.1 1.4 1.1 1.4 4-.1 5.4-2.6 5.4-2.6z" fill="#dbdbdb"/></svg>