<svg xmlns="http://www.w3.org/2000/svg" viewBox="0 0 602 127"><path fill="#ffd149" d="M601.9 119.6v-1.7h-9.1v8.6h9.1v-1.8H595V123h6.9v-1.6H595v-1.8zm-21.4 0c1.8 0 2.9.5 3.1 1.9h2.2c-.2-2.5-1.9-3.8-5.4-3.8-3.8 0-5.4 1.6-5.4 4.4 0 2.9 1.6 4.4 5.4 4.4 3.4 0 5.1-1.3 5.4-3.8h-2.2c-.2 1.4-1.3 2-3.1 2-2.2 0-3.2-.8-3.2-2.6 0-1.7 1-2.5 3.2-2.5zm-14.5 4.8l-5.9-6.5h-2.9v8.6h2.2V120l5.8 6.5h3v-8.6H566zm-22.9-6.5l-4.4 8.6h2.4l.9-1.8h5.1l.9 1.8h2.4l-4.4-8.6h-2.9zm-.3 5.1l1.8-3.5 1.7 3.5h-3.5zm-13.1 1.4l-5.8-6.5h-3v8.6h2.2V120l5.8 6.5h3v-8.6h-2.2zm-18.2-6.5h2.2v8.6h-2.2zm-15.9 8.6h2.2v-2.7h6.1v-1.9h-6.1v-2.2h6.9v-1.8h-9.1zm-23-8.6h-6.2v8.6h6.2c2.2 0 4.2-1.4 4.2-4.3s-2-4.3-4.2-4.3zm-.9 6.7h-3.2v-4.9h3.2c1.7 0 2.8.4 2.8 2.4s-1.1 2.5-2.8 2.5zm-21.4 1.9h9.1v-1.8h-6.9V123h6.9v-1.6h-6.9v-1.8h6.9v-1.7h-9.1zm-16.8-6.8h6.6l-6.6 4.9v1.9h9.7v-1.9h-6.5l6.5-4.9v-1.8h-9.7zm-9.2-1.8h2.2v8.6h-2.2zm-13.7 0h-2.2v8.6h8.9v-1.9h-6.7zm-16.3 0l-4.4 8.6h2.4l.9-1.8h5.1l.9 1.8h2.4l-4.4-8.6h-2.9zm-.3 5.1l1.8-3.5 1.7 3.5H394zm-10.5-2c0-1.9-1.3-3.2-3.3-3.2h-6.8v8.6h2.2v-2.3h3.6l1.4 2.3h2.6l-1.6-2.6c1.2-.3 1.9-1.4 1.9-2.8zm-3.9 1.3h-3.9v-2.6h3.9c.7 0 1.7 0 1.7 1.3s-1 1.3-1.7 1.3zm-23.5-2.6h4.1v6.8h2.3v-6.8h4.1v-1.8h-10.5zm-9.1 4.7l-5.9-6.5h-3v8.6h2.2V120l5.9 6.5h3v-8.6H347zm-24.9 2.1h9.1v-1.8h-6.9V123h6.9v-1.6h-6.9v-1.8h6.9v-1.7h-9.1zm-12.3-6.9c1.8 0 2.9.5 3.1 1.9h2.2c-.2-2.5-1.9-3.8-5.4-3.8-3.8 0-5.4 1.6-5.4 4.4 0 2.9 1.6 4.4 5.4 4.4 3.4 0 5.1-1.3 5.4-3.8h-2.2c-.2 1.4-1.3 2-3.1 2-2.2 0-3.2-.8-3.2-2.6 0-1.7.9-2.5 3.2-2.5zm-21.3 6.9h9.1v-1.8h-6.8V123h6.8v-1.6h-6.8v-1.8h6.8v-1.7h-9.1zm-11.1-8.6h-6.2v8.6h6.2c2.2 0 4.2-1.4 4.2-4.3s-1.9-4.3-4.2-4.3zm-.8 6.7h-3.2v-4.9h3.2c1.7 0 2.8.4 2.8 2.4s-1.1 2.5-2.8 2.5z"/><path d="M6.4 93.1c3.1.5 7.3.3 12.6-.5 8-1.1 11.2-3.1 12.6-3.4 1-.2 2.4-.2 4.4 0-1.9 1.5-3.9 2.6-6 3.4-3.1 1.2-4.7 1.8-8.2 2.2s-5.5.3-9.7-.2c-2.6-.3-4.6-.8-5.7-1.5zm-.9-22.9c2.9 1.1 5.5 1.7 7.7 1.9 3.4.4 4.6-.5 7.1.5 1.7.6 2.5 1.4 2.4 2.2-1.2.1-2.7-.1-4.6-.3-2.8-.4-2.9-.5-5.2-1.1-2.3-.6-2-.5-4-1.3-1.2-.5-2.4-1.1-3.4-1.9zm4.6-20.9c2.2.8 4.2 1.6 6.1 2.4 2.9 1.1 3.9 1.1 5.5 2.6 1 1 2.6 2.3 4.7 4-2.9-.5-5.1-1.1-6.5-1.8-2.1-1-2.3-1.1-4-2.2-1.7-1.1-2.5-1.8-3.8-2.9-.9-.8-1.6-1.5-2-2.1zM90.5 127c-2.8-6.2-5.6-12.1-8.5-17.6-2.9-5.6-8-15.3-15.4-29.3L55.7 59.5l12.2 64.2L85 127h5.5zm19.3-6.6c-4.6-5.6-11.1-14.1-19.4-25.6S77.6 76.9 77 75.8l-1.4-3.1c-.7-1.6-1.2-3.2-1.6-4.9v-.1c-.3-1.6-.4-3.2-.2-4.9.2-1.6.6-3.2 1.3-4.7l3.3-7.4-7.6 12.2 26.2 63c1.3-.2 3.4-.9 6.4-2.2 2.9-1.3 5-2.4 6.4-3.3z" fill-rule="evenodd" clip-rule="evenodd" fill="#bebebe"/><path d="M78.3 50.8c0 1.4.7 3.1 2 5.1 2 3 9.2 12.3 11.8 14.8 1.7 1.7 4.3 3.1 7.8 4.2-.9-.1-1.4-.2-1.6-.2-.5 0-1.1.1-1.8.2-1.6.2-1.9.1-3.7-.5s-5.4-4.7-9-9c-3.7-4.2-4.1-5.1-4.7-7.2-.3-1.3-.6-3.8-.8-7.4zm33.8 23L93.6 59.2l3.3 1zm-6.4-54.2l-4.1-14.1c-.2.1-.4.2-.7.3-.2.1-.4.2-.5.1-.1.9-.1 2 0 3.3.1 1.3.1 2.6.3 3.8.6 1.3 1.4 2.7 2.5 4.1 1.1 1.5 1.9 2.3 2.5 2.5zm-5.8 7.6l11.6 18.7-9.7-17.6zm29.3 49.9c1.2 2 1.9 3.4 2.2 4.1s.3 1.5 0 2.1" fill-rule="evenodd" clip-rule="evenodd" fill="#bebebe"/><path d="M134.9 74.3c-.3-2.8-1.3-4.6-1.9-5.7-3.6-6.8-12.1-21.1-13.6-23.8-.5-.7-1-1.8-1.5-3.3-.6-1.7-.8-3.3-.9-3.8-.1-.7-.1-.7-.2-1.3 0-.3-.3-2.2-1.2-3.9-.7-1.5-1.5-2.5-2.1-3.3l-.9-.9c1.3-.3 2.2-.6 2.2-.6s-3-.6-4.9-2.4c-.1-.1-.3-.2-.5-.4h.2c2.6-.1 5.9.6 5.9.6s-3.9-2.5-8-2.8h-.3c2.7-.8 4.7-2.2 4.7-2.2s-3.3.7-5.9.6c-.4 0-.7 0-1.1-.1-2.2-2.1-4-4.1-4.7-6.2-.2-.6-.5-1.3-.8-2 0-.1-.4-11.2-.5-11.3-2.4-4.5-7.4 1.3-11.5 2-12.7 2.2-20.7 11-31.8 19.6-.7.6-3.9 4.5-9.1 9.3-1.1 1-2.4 2.6-3.8 4.6-6 2.7-11.9 6.2-18.3 9C12.7 51 10 49.2 10 49.2s5.5 7 16.4 9c-2.6 2.2-5.3 4.4-8.3 6.4-9.5 6.5-12.7 5.5-12.7 5.5s7 4.4 17.2 4.6c-2 3.3-3.9 6.7-6.2 9.9-6.5 8.8-10 8.4-10 8.4s9.5 3.6 20.1.8c1.7 9.7 5.8 19.3 7 24.3 3.7-1.4 34.7 5.6 48.9 8.3 2.3.4 4.9.6 7.9.4.9-.1-10.6-22.5-34.5-67.4 26.9 44.4 40.6 66.5 41.2 66.3 3.8-1 8.1-2.7 12.8-5.4-2.2-.6-13.1-15.5-32.9-44.6-2.2-3.9-3.3-7.7-3.3-11.3 0-4.1 1.6-8.7 4.7-13.7.1 3.1.5 5.6 1 7.6.8 2.9 10.6 14.9 13.6 16.1 4.9 1.8 2.8-1.3 10.3 1.4 1.4.4 3 1.1 4.8 2.8 2.2 2.1 4.5 4.7 4.5 4.7.3.7.5 1 .8 1.8.5 1 3.5 5 4.8 6.1 1.3 1.1 2.4 1.7 3.3 1.9.7.3 1.3.4 1.4.4 1.6.4 3 .3 3.7.3.8-.1 4.2-3.7 4.8-4.2.5-.9.9-1.7 1.1-2.1 1-2.2 1.4-4.2 2-7.4.5-2.1.7-3.7.5-5.8zm-34.8-41.7c0-1.2 2.3-2.3 2.8-1.3l7.1 11.9c1.2 1.8.6 1.8-1.1 1.1l-6.7-3.5c-1.3-1.2-2.1-3.2-2.1-5.4v-2.8zm-5.5 26.9c.1-.2 4.3-3.4 8.6 2.9 2.7 4 5.4 7.5 8 10.6-8.6-6.9-16.6-13.4-16.6-13.5zM133 76.9c-.2 1.6-.1.9-.2 1.4-.2.9-.6 2.8-.8 3.6-.3.7-.9.7-1 .1 0-.3-.7-2.6-1.1-3.6-.3-.8.7-3.4 1.4-3.9.8-.5 2 .8 1.7 2.4z" fill="#ddd"/><path d="M106 19.8c.3.2.3-.4.1-1.1-.2-.7-.7-11.4-.7-11.5-1.1-2.1-2.8-2.5-4.6-1.2-.2.1-.1 2.4.2 6.9 1.8 3.7 3.4 6 5 6.9zm479.1 14.6v48.2l-43.7-48.2h-22.2v64.2h16.4V50.5l43.6 48.1h22.3V34.4zM440.8 98.6h68V85.5h-51.5v-13h46.9v-12h-46.9v-13h51.5V34.4h-68zM430.4 58c0-14.3-9.9-23.5-24.4-23.5h-50v64.1h16.4V81.4h26.4L409 98.6h19.3l-11.7-19c8.5-3.5 13.8-11.2 13.8-21.6zm-28.7 9.3H372V48.1h29.7c4.9 0 11.9.4 11.9 9.7 0 9.1-7 9.5-11.9 9.5zM291.6 34.4l-33.2 64.1h18.2l6.9-13.6H322l6.9 13.6h18.3L314 34.4h-22.4zm-2 38.5l13.2-26.4L316 72.9h-26.4zm-36.9-38.5l-25.8 52-25.9-52h-18.5l33.1 64.2h22.6l33-64.2z" fill="#ddd"/></svg>