<svg xmlns="http://www.w3.org/2000/svg" viewBox="0 0 1000 1000"><g fill="#ddd"><path d="M775.6 164.9c2.4 1.4 2.5-3 1-8.4-1.5-5.5-5.4-87.8-5.7-88.3-8.6-15.8-21.7-19.1-35.7-9-1.4 1-1 18.6 1.3 52.7 14 28.2 27 45.9 39.1 53z"/><path d="M998.2 582.6c-2.7-21.3-9.9-35.1-14.4-43.7-27.8-52.2-93.3-162.1-104.9-182.3-3.5-5.4-8.1-13.9-11.6-25.6-4.5-12.8-6.2-25.6-7.2-28.8-.9-5.4-.9-5.4-1.8-9.6 0-2.1-2.7-17.1-8.9-29.9-5.4-11.7-11.6-19.2-16.1-25.6-2.1-2.5-4.3-4.8-6.6-7.2 9.9-2.3 16.5-4.6 16.5-4.6s-23.3-4.4-37.8-18.2c-1.1-1-2.3-1.9-3.4-2.8.5 0 1-.1 1.5-.1 20-.9 45.5 4.6 45.5 4.6s-29.7-19.2-61.9-21.4c-.6 0-1.3-.1-2-.1 20.8-6.3 36.5-16.5 36.5-16.5s-25.5 5.5-45.5 4.6c-2.9-.1-5.7-.3-8.5-.5-16.9-15.9-30.5-31.3-35.8-47.6-1.5-4.7-3.8-9.8-6.4-15-.3-.5-3.3-85.9-3.7-86.4-18.6-34.4-57.1 9.8-88.4 15.2-97.9 17-159.9 84-245 150.1-5.7 4.7-29.7 34.2-70.3 71.6-8.7 8-18.5 19.7-29.3 34.9-46.1 20.5-91.7 47.9-141.3 69-89.8 38.1-110.8 24.5-110.8 24.5s42.4 53.6 126.2 68.9c-20.4 16.5-41.1 33.5-63.7 49-73 49.9-97.9 42.2-97.9 42.2s53.6 33.9 132.1 35.1c-15.2 25-29.9 51-48 75.5C35.1 729.6 8 726.7 8 726.7s73.1 27.5 154.7 6.3c12.9 74.1 44.5 148.4 53.7 186.7 28.7-10.6 267 43.1 376.4 63.3 17.4 3.1 37.7 4.7 60.8 3.2 6.6-.4-82-172.8-265.6-517C595 809.5 700.8 979 705.7 977.8c29.6-7.6 62.5-20.6 98.9-41.6-16.8-4.9-101.1-119-253.3-342.1-16.9-29.9-25.4-58.8-25.4-86.8 0-31.5 12.1-66.5 36.4-105 1 23.6 3.5 43.1 7.5 58.1 6 22.6 81.2 114.7 104.5 123.2 37.5 13.8 21.9-9.7 79.3 10.5 10.7 3.2 23.3 8.5 36.8 21.3 17.1 16 34.7 36.2 34.7 36.2 2.7 5.4 3.5 7.4 6.2 13.9 3.5 7.4 26.8 38.6 36.6 47.1 9.9 8.5 18.8 12.8 25.1 14.9 5.4 2.1 9.9 3.2 10.7 3.2 12.6 3.2 23.3 2.1 28.7 2.1 6.1-1.1 32.2-28 37.3-31.9 4.1-6.8 7-12.8 8.5-16 8.1-17.1 10.7-32 15.3-56.5 4.7-17.1 6.4-29.9 4.7-45.8zM730 262.9c0-9.1 17.4-17.5 21.4-9.9l54.6 90.9c8.8 13.8 4.8 13.8-8.3 8.3l-51.3-26.5c-10.1-9.1-16.4-24.5-16.4-41.3v-21.5zm-42.2 206.5c1.2-1.5 32.8-26.4 65.9 22.5 21 30.9 41.8 57.7 61.9 80.9-66-53.3-128.1-103-127.8-103.4zm296 133.3c-1.8 12.4-.8 6.8-1.6 10.6-1.6 6.8-4.4 21.6-6 27.5-2.5 5.5-6.7 5.5-7.8.8 0-1.9-5.4-19.7-8.5-27.4-2.4-5.8 5.5-26 11-29.9 5.8-3.6 14.6 6.1 12.9 18.4z"/></g><path d="M8 726.9c23.9 3.5 56.3 2.4 97.3-3.5 61.5-8.8 86.2-23.6 97.4-25.8 7.4-1.5 18.8-1.5 34.1 0-14.6 11.2-29.9 19.8-45.8 25.8-24 9-36.5 13.6-63 16.5s-42.4 1.9-74.5-1.7C32 735.8 17 732 8 726.9zM1.2 551.4c22.4 8.1 42.2 13 59.5 14.9 26 2.8 35.7-3.4 54.9 3.8 12.8 4.8 19 10.4 18.5 17-9 .4-21-.4-35.6-2.5-21.9-3.1-22.6-3.7-40-8.2-17.4-4.5-15.6-4-30.5-10.2-10-4.2-18.9-9.1-26.8-14.8zm35.3-160.1c16.5 6.3 32.3 12.5 47.4 18.3 22.5 8.7 30.3 8.7 42.3 20.1 8.1 7.6 20.2 17.7 36.4 30.5-22.6-4-39.2-8.5-50.1-13.5-16.1-7.5-17.7-8.6-31.1-17S62.3 416.2 52 407.2c-6.8-6-11.9-11.3-15.5-15.9zm620 595.6c-21.5-47.5-43.4-92.5-65.7-135.3S529 734.1 472.3 627l-84-157.8 94.1 492.3 131.7 25.4h42.4zm148.2-50.6C769 893.5 719 828 654.9 739.6S556.5 602.7 552.2 594l-18.4-42.1-8.5-38.5 4.5-37.6 32.5-73.3-58.1 92.5 201.6 482.9c10.1-1.5 26.4-7.1 49-16.7 22.7-9.6 39.2-17.9 49.9-24.9z" fill-rule="evenodd" clip-rule="evenodd" fill="#bebebe"/><path d="M562.3 402.4c.2 10.5 5.5 23.4 15.7 38.8 15.4 23 71 94.4 90.9 113.4 13.3 12.7 33.4 23.5 60.3 32.6-6.6-1.1-10.6-1.6-12.4-1.6-4.1 0-8.6 1-14.1 1.8-12 1.9-14.6 1-28.4-3.7-13.8-4.5-41.4-36.3-69.6-68.7-28.3-32.3-31.9-39.4-36-55.2-2.7-10.5-4.9-29.6-6.4-57.4zm272.4 188.1L684.4 470.9l18.9 6.3L831 583.9z" fill-rule="evenodd" clip-rule="evenodd" fill="#bebebe"/><path d="M773.3 163.3L741.6 55.4c-1.7.6-3.3 1.4-5.1 2.4-1.7.9-3 1.2-4 .8-.4 6.9-.4 15.3 0 25s1.1 19.6 2.1 29.2c4.5 10 11 20.4 19.2 31.5 8.4 11 14.9 17.3 19.5 19z" fill-rule="evenodd" clip-rule="evenodd" fill="#9c9c9c"/><path fill-rule="evenodd" clip-rule="evenodd" fill="#bebebe" d="M728.9 221.4l88.8 143.5-74.8-135.3zm225.6 382.7c5.2 9.5 8.8 17 10.9 22.8 2.1 5.8 4.2 14.1 6.2 25"/></svg>