<svg xmlns="http://www.w3.org/2000/svg" viewBox="0 0 30 31"><linearGradient id="a" gradientUnits="userSpaceOnUse" x1="2731.919" y1="-2896.858" x2="2953.414" y2="-2724.475" gradientTransform="matrix(.15 0 0 -.15 -411.4 -406.1)"><stop offset="0" stop-color="#bebebe"/><stop offset="1" stop-color="#dbdbdb"/></linearGradient><path d="M15 .5c8.3 0 15 6.7 15 15s-6.7 15-15 15-15-6.7-15-15S6.7.5 15 .5z" fill="url(#a)"/><path d="M15.1 18.4c-1.1 1.6-1.9 2.8-1.9 2.8 0 .1 0 0 0 0h6.2l2.8 2.5.1.1c0 .1-.1.2-.2.2H8.4c-.2 0-.4-.2-.4-.4 0 0-.1-.4.1-.7 0-.1 1.4-2.1 3.1-4.5h3.9zm0-5.7C16.2 11.1 17 10 17 9.9c.1-.1 0-.1 0-.1h-6.3L8 7.2c-.1-.1 0-.3.1-.3h13.6c.2 0 .5.2.5.5 0 0 0 .2-.1.5-.1.1-1.5 2.3-3.2 4.8h-3.8z" fill="#fff"/></svg>