<svg xmlns="http://www.w3.org/2000/svg" width="30" height="31"><path d="M14.9 0C6.6 0 0 6.8 0 15.1S6.8 30 15.1 30s15-6.8 14.9-15.1C30 6.6 23.2 0 14.9 0zm.2 28.9c-7.7 0-13.9-6.1-13.9-13.8C1.2 7.4 7.3 1.2 15 1.2c7.7 0 13.9 6.1 13.9 13.8 0 7.6-6.2 13.8-13.8 13.9z" fill="#bdcbda"/><path d="M15.3 2c.9-.2 1.8-.2 2.7 0 .9.1 1.8.4 2.5.9.8.4 1.5 1 2.2 1.6.7.6 1.4 1.1 2 1.7.7.6 1.2 1.3 1.7 2.1s.9 1.6 1.2 2.4c.6 1.7.8 3.5.5 5.3H28c-.3-1.7-.7-3.4-1.3-5-.3-.8-.6-1.6-1-2.3-.4-.7-.9-1.5-1.4-2.2-.5-.7-1.1-1.3-1.8-1.8s-1.5-.8-2.3-1.1l-2.4-.9c-.8-.2-1.7-.4-2.5-.7z" fill="#fff"/><path d="M22 10c-1-.3-2-.7-3.1-1.1-.1-.3-.3-.6-.8-1-.7-.6-2-.6-3.1-.3-1.2-.3-2.5-.4-3.6-.1-9.6 2.6-4.2 9.1-7.7 15.6.5 1.1 5.9 7.3 13.7 5.6 0 0-2.7-6.4 3.4-9.5 4.9-2.5 8.4-7.2 1.2-9.2z" fill="#bdcbda"/><path d="M23.2 14.3c0 .3-.3.6-.6.6s-.6-.3-.6-.6.3-.6.6-.6c.4 0 .6.2.6.6z" fill="#fff"/><path d="M15.1 7.6c.7 0 3.2.9 3.9 1.3-.6-1.6-2.4-1.8-3.9-1.3z" fill="#535a60"/><path d="M15.7 11.6c0 1.5-1.2 2.7-2.7 2.7-1.5 0-2.7-1.2-2.7-2.7 0-1.5 1.2-2.7 2.7-2.7 1.5 0 2.7 1.2 2.7 2.7z" fill="#fff"/><path d="M14.9 11.6c0 1-.8 1.9-1.9 1.9s-1.9-.8-1.9-1.9.9-1.9 1.9-1.9c1.1 0 1.9.9 1.9 1.9z" fill="#535a60"/><path d="M25.4 15.4c-2.2 1.5-4.6 2.7-8.2 2.7-1.6 0-2-1.7-3.1-.9-.6.4-2.5 1.4-4.1 1.4s-4.1-1-4.8-4.3c-.3 3.3-.4 5.8-1.7 8.6 2.5 4 8.5 7.1 13.9 5.8-.6-4.1 3-8 5-10.1.8-.8 2.2-2 3-3.2z" fill="#bdcbda"/><path d="M25.3 15.5c-.7.6-1.5 1.1-2.3 1.5-.8.4-1.7.7-2.6.9-.9.2-1.8.4-2.7.3-.9-.1-1.9-.4-2.5-1.1.8.5 1.6.7 2.5.7.9 0 1.8 0 2.6-.2.9-.2 1.7-.4 2.6-.8.9-.3 1.7-.7 2.4-1.3z" fill="#535a60"/></svg>