<svg xmlns="http://www.w3.org/2000/svg" viewBox="0 0 30 31"><path d="M25.9 18.4c-.5.3-1.1.4-1.6.1-.6-.3-.9-1.1-.9-2.2V13c0-1.6-.6-2.7-1.7-3-1.8-.5-3.1 1.6-3.6 2.5L15 17.6v-6.2c0-1.4-.5-2.3-1.4-2.5-.6-.2-1.4-.1-2.3 1.1l-7 11.2c-.9-1.8-1.4-3.8-1.4-5.8C2.9 8.7 8.3 3.2 15 3.2s12.1 5.5 12.1 12.3c0 1.4-.4 2.4-1.2 2.9zm3.9-2.9C29.7 7.2 23.1.5 15 .5S.2 7.2.2 15.5s6.6 15 14.8 15c3.7 0 7.3-1.4 10-4 .5-.5.6-1.4.1-1.9s-1.3-.6-1.9-.1C18.4 29 10.9 28.8 6.3 24c-.1-.1-.2-.2-.3-.4l6.3-10.1v4.7c0 2.2.9 3 1.6 3.2.7.2 1.8.1 3-1.8l3.5-5.6c.1-.2.2-.3.3-.5v2.9c0 2.1.8 3.8 2.3 4.6 1.4.7 3 .7 4.3-.2 1.7-1.1 2.6-3 2.5-5.3z" fill="#dbdbdb"/></svg>