<svg xmlns="http://www.w3.org/2000/svg" viewBox="0 0 30 31"><path d="M28.2 21.5c0 5-4.1 9-9.1 9H1.8v-6h17.3c1.7 0 3-1.3 3-3s-1.4-3-3-3H13v-6h6.1c1.7 0 3-1.3 3-3s-1.4-3-3-3H1.8v-6h17.3c5 0 9.1 4 9.1 9 0 2.3-.9 4.4-2.3 6 1.4 1.6 2.3 3.7 2.3 6z" opacity=".8" fill-rule="evenodd" clip-rule="evenodd" fill="#dbdbdb"/><path d="M1.8 24.5h14.8c-3.1 3.6-8.2 6-13.8 6h-1v-6zm17.9-6H14v-6h5.7c.2 1 .3 2 .3 3s0 2-.3 3zm-3.1-12H1.8v-6h1c5.7 0 10.7 2.4 13.8 6z" opacity=".12"/><path d="M1.8.5C10.2.5 17 7.2 17 15.5s-6.8 15-15.2 15v-6c5 0 9.1-4 9.1-9s-4.1-9-9.1-9v-6z" fill="#bebebe"/></svg>