<svg xmlns="http://www.w3.org/2000/svg" viewBox="0 0 30 31"><path d="M26.8.1H3.2C1.4.1 0 1.6 0 3.4V27c0 1.8 1.4 3.2 3.2 3.2h23.6c1.8 0 3.2-1.4 3.2-3.2V3.4C30 1.6 28.6.1 26.8.1zm-8.2 25.7c-.6.1-.8-.2-.8-.5v-3.7c0-1-.3-1.7-.8-2.1 2.5-.3 5.1-.6 5.1-4.9 0-1.2-.4-1.8-1.1-2.6.1-.3.5-1.5-.1-3-.9-.3-3.1 1.2-3.1 1.2-.9-.2-1.8-.4-2.8-.4-.9 0-1.9.1-2.8.4 0 0-2.1-1.5-3.1-1.2-.6 1.5-.2 2.7-.1 3-.7.8-1 1.4-1 2.6 0 4.3 2.5 4.6 5 4.9-.3.3-.6.8-.7 1.5-.6.3-2.3.8-3.2-.9C8.5 19 7.4 19 7.4 19c-1.1 0-.1.7-.1.7.7.3 1.2 1.6 1.2 1.6.6 2 3.8 1.3 3.8 1.3v2.7c0 .3-.2.6-.8.5C7.1 24.4 4 20.2 4 15.2 4 9.1 8.7 4.4 14.9 4.4 21 4.4 26 9.1 26 15.2c0 5-3 9.2-7.4 10.6zM12 21.7c-.1 0-.2 0-.3-.1 0-.1.1-.2.2-.2s.2 0 .3.1c0 .1-.1.2-.2.2zm-.6 0c0 .1-.1.2-.2.2s-.2-.1-.2-.2.1-.2.2-.2c0 0 .2.1.2.2zm-1-.1c0 .1-.2.1-.3.1-.1 0-.2-.1-.2-.2s.2-.1.3-.1c.2 0 .3.1.2.2zm-.8-.3c-.1.1-.2.1-.3 0-.1-.1-.1-.2-.1-.3.1-.1.2-.1.3 0 .1.1.2.2.1.3zm-.6-.7c-.1 0-.2 0-.2-.1-.1-.1-.1-.2 0-.3.1-.1.2 0 .2.1.1.2.1.3 0 .3zm-.4-.6c-.1.1-.2 0-.2 0-.1-.1-.1-.2 0-.2.1-.1.2 0 .2 0v.2zm-.5-.5c0 .1-.1.1-.2 0-.1 0-.1-.1-.1-.2 0 0 .1-.1.2 0s.2.1.1.2z" fill="#dbdbdb"/></svg>