<svg xmlns="http://www.w3.org/2000/svg" viewBox="0 0 1000 1000"><g fill="#ddd"><path d="M756.5 188.2c2.2 1.3 2.3-2.8.9-7.8-1.4-5.1-5-81.7-5.3-82.2-8-14.7-20.2-17.8-33.2-8.4-1.3.9-.9 17.3 1.2 49 13 26.3 25.1 42.8 36.4 49.4z"/><path d="M963.6 576.9c-2.5-19.8-9.2-32.7-13.4-40.7-25.9-48.6-86.8-150.8-97.6-169.6-3.3-5-7.5-12.9-10.8-23.8-4.2-11.9-5.8-23.8-6.7-26.8-.8-5-.8-5-1.7-8.9 0-2-2.5-15.9-8.3-27.8-5-10.9-10.8-17.9-15-23.8-2-2.3-4-4.5-6.1-6.7 9.2-2.1 15.4-4.3 15.4-4.3s-21.7-4.1-35.2-16.9c-1-.9-2.1-1.8-3.2-2.6.5 0 .9-.1 1.4-.1 18.6-.8 42.3 4.3 42.3 4.3s-27.6-17.9-57.6-19.9c-.6 0-1.2-.1-1.9-.1 19.4-5.9 34-15.4 34-15.4s-23.7 5.1-42.3 4.3c-2.7-.1-5.3-.3-7.9-.5-15.7-14.8-28.4-29.1-33.3-44.3-1.4-4.4-3.5-9.1-6-14-.3-.5-3.1-79.9-3.4-80.4C689 26.9 653.2 68 624 73c-91.1 15.8-148.8 78.2-228 139.7-5.3 4.4-27.6 31.8-65.4 66.6-8.1 7.4-17.2 18.3-27.3 32.5-42.9 19.1-85.3 44.6-131.5 64.2-83.6 35.5-103.1 22.8-103.1 22.8s39.5 49.9 117.4 64.1c-19 15.4-38.2 31.2-59.3 45.6-67.8 46.4-91 39.2-91 39.2s49.9 31.5 122.9 32.7c-14.1 23.3-27.8 47.5-44.7 70.3-46.6 63-71.8 60.3-71.8 60.3s68 25.6 144 5.9c12 69 41.4 138.1 50 173.7 26.7-9.9 248.5 40.1 350.3 58.9 16.2 2.9 35.1 4.4 56.6 3 6.1-.4-76.3-160.8-247.2-481.1C588.5 788.1 687 945.8 691.5 944.7c27.5-7.1 58.2-19.2 92-38.7-15.6-4.6-94.1-110.7-235.7-318.3-15.7-27.8-23.6-54.7-23.6-80.8 0-29.3 11.3-61.9 33.9-97.7.9 22 3.3 40.1 7 54.1 5.6 21 75.6 106.7 97.2 114.6 34.9 12.8 20.4-9 73.8 9.8 10 3 21.7 7.9 34.2 19.8 15.9 14.9 32.3 33.7 32.3 33.7 2.5 5 3.3 6.9 5.8 12.9 3.3 6.9 24.9 35.9 34.1 43.8 9.2 7.9 17.5 11.9 23.4 13.9 5 2 9.2 3 10 3 11.7 3 21.7 2 26.7 2 5.7-1 30-26.1 34.7-29.7 3.8-6.3 6.5-11.9 7.9-14.9 7.5-15.9 10-29.8 14.2-52.6 4.2-16 5.8-27.9 4.2-42.7zM714 279.4c0-8.5 16.2-16.3 19.9-9.2l50.8 84.6c8.2 12.8 4.5 12.8-7.7 7.7l-47.7-24.7c-9.4-8.5-15.3-22.8-15.3-38.4v-20zm-39.2 192.1c1.1-1.4 30.5-24.6 61.3 20.9 19.5 28.8 38.9 53.7 57.6 75.3-61.4-49.6-119.2-95.8-118.9-96.2zm275.4 124.1c-1.7 11.5-.7 6.3-1.5 9.9-1.5 6.3-4.1 20.1-5.6 25.6-2.3 5.1-6.2 5.1-7.3.7 0-1.8-5-18.3-7.9-25.5-2.2-5.4 5.1-24.2 10.2-27.8 5.5-3.4 13.7 5.6 12.1 17.1z"/></g><path d="M42.2 711.1c22.2 3.3 52.4 2.2 90.5-3.3 57.2-8.2 80.2-22 90.6-24 6.9-1.4 17.5-1.4 31.7 0-13.6 10.4-27.8 18.4-42.6 24-22.3 8.4-34 12.7-58.6 15.4s-39.5 1.8-69.3-1.6c-20-2.2-34-5.7-42.3-10.5zm-6.4-163.3c20.8 7.5 39.3 12.1 55.4 13.9 24.2 2.6 33.2-3.2 51.1 3.5 11.9 4.5 17.7 9.7 17.2 15.8-8.4.4-19.5-.4-33.1-2.3-20.4-2.9-21-3.4-37.2-7.6-16.2-4.2-14.5-3.7-28.4-9.5-9.3-3.9-17.6-8.5-25-13.8zm32.9-149c15.4 5.9 30.1 11.6 44.1 17 20.9 8.1 28.2 8.1 39.4 18.7 7.5 7.1 18.8 16.5 33.9 28.4-21-3.7-36.5-7.9-46.6-12.6-15-7-16.5-8-28.9-15.8s-17.8-12.6-27.4-20.9c-6.4-5.5-11.2-10.5-14.5-14.8zm576.9 554.3c-20-44.2-40.4-86.1-61.1-125.9-20.7-39.8-57.5-109.4-110.3-209L396 471.4l87.6 458.1 122.6 23.6h39.4zM783.5 906c-33.2-39.8-79.7-100.8-139.4-183s-91.5-127.4-95.5-135.5l-17.1-39.2-7.9-35.8 4.2-35 30.2-68.2-54.1 86 187.6 449.4c9.4-1.4 24.6-6.6 45.6-15.5 21.1-9 36.5-16.7 46.4-23.2z" fill-rule="evenodd" clip-rule="evenodd" fill="#bebebe"/><path d="M558 409.2c.2 9.8 5.1 21.8 14.6 36.1 14.3 21.4 66.1 87.8 84.6 105.5 12.4 11.8 31.1 21.9 56.1 30.3-6.1-1-9.9-1.5-11.5-1.5-3.8 0-8 .9-13.1 1.7-11.2 1.8-13.6.9-26.4-3.4-12.8-4.2-38.5-33.8-64.8-63.9-26.3-30.1-29.7-36.7-33.5-51.4-2.6-9.8-4.6-27.6-6-53.4zm253.5 175L671.6 472.9l17.6 5.9L808 578.1z" fill-rule="evenodd" clip-rule="evenodd" fill="#bebebe"/><path d="M754.3 186.7L724.8 86.3c-1.6.6-3.1 1.3-4.7 2.2-1.6.8-2.8 1.1-3.7.7-.4 6.4-.4 14.2 0 23.3s1 18.2 2 27.2c4.2 9.3 10.2 19 17.9 29.3 7.7 10.2 13.7 16.1 18 17.7z" fill-rule="evenodd" clip-rule="evenodd" fill="#9c9c9c"/><path fill-rule="evenodd" clip-rule="evenodd" fill="#bebebe" d="M713 240.7l82.6 133.6L726 248.4zm209.9 356.2c4.8 8.8 8.2 15.8 10.1 21.2 2 5.4 3.9 13.1 5.8 23.3"/></svg>