<svg xmlns="http://www.w3.org/2000/svg" viewBox="0 0 30 31"><path d="M26.8.1H3.2C1.4.1 0 1.6 0 3.4V27c0 1.8 1.4 3.2 3.2 3.2h23.6c1.8 0 3.2-1.4 3.2-3.2V3.4C30 1.6 28.6.1 26.8.1zm-3.3 10.7v.6c0 5.8-4.4 12.5-12.5 12.5-2.5 0-4.8-.7-6.7-2 .4 0 .7.1 1.1.1 2.1 0 3.9-.7 5.5-1.9-1.9 0-3.5-1.3-4.1-3 .7.1 1.3.1 2-.1-2-.4-3.5-2.2-3.5-4.3v-.1c.6.3 1.3.5 2 .6-.6-.4-1.1-.9-1.4-1.6-.3-.6-.5-1.4-.5-2.1 0-.8.2-1.6.6-2.2 2.2 2.7 5.4 4.4 9.1 4.6-.6-3 1.6-5.4 4.3-5.4 1.3 0 2.4.5 3.2 1.4 1-.2 1.9-.6 2.8-1.1-.3 1-1 1.9-1.9 2.4.9-.1 1.7-.3 2.5-.7-.9.9-1.6 1.7-2.5 2.3z" fill="#dbdbdb"/></svg>