<?xml version="1.0" encoding="utf-8"?>
<!-- Generator: Adobe Illustrator 25.2.1, SVG Export Plug-In . SVG Version: 6.00 Build 0)  -->
<svg version="1.1" id="Ebene_1" xmlns="http://www.w3.org/2000/svg" xmlns:xlink="http://www.w3.org/1999/xlink" x="0px" y="0px"
	 viewBox="0 0 30 30" style="enable-background:new 0 0 30 30;" xml:space="preserve">
<path style="fill-rule:evenodd;clip-rule:evenodd;fill:#DBDBDB;" d="M3,0C1.3,0,0,1.3,0,3v24c0,1.7,1.3,3,3,3h24c1.7,0,3-1.3,3-3V3
	c0-1.7-1.3-3-3-3H3z M7.1,9.6c0.2,0.2,0.3,0.4,0.3,0.7v8.8c0.1,0.3,0,0.6-0.3,0.9L5,22.5v0.3h6v-0.3L8.9,20
	c-0.2-0.2-0.3-0.6-0.3-0.9v-7.6l5.2,11.4h0.6l4.5-11.4v9.1c0,0.2,0,0.3-0.2,0.4l-1.6,1.6v0.3H25v-0.3L23.4,21
	c-0.1-0.1-0.2-0.3-0.2-0.4V9.3c0-0.2,0-0.3,0.2-0.4L25,7.3V7h-5.5l-3.9,9.8L11,7H5.3v0.3L7.1,9.6z"/>
</svg>
