<?xml version="1.0" encoding="utf-8"?>
<svg version="1.1" xmlns="http://www.w3.org/2000/svg"
	 viewBox="0 0 1000 1000">
<g>
	<path style="fill:#DDDDDD;" d="M775.6,164.9c2.4,1.4,2.5-3,1-8.4c-1.5-5.5-5.4-87.8-5.7-88.3c-8.6-15.8-21.7-19.1-35.7-9
		c-1.4,1-1,18.6,1.3,52.7C750.5,140.1,763.5,157.8,775.6,164.9z"/>
	<path style="fill:#DDDDDD;" d="M998.2,582.6c-2.7-21.3-9.9-35.1-14.4-43.7c-27.8-52.2-93.3-162.1-104.9-182.3
		c-3.5-5.4-8.1-13.9-11.6-25.6c-4.5-12.8-6.2-25.6-7.2-28.8c-0.9-5.4-0.9-5.4-1.8-9.6c0-2.1-2.7-17.1-8.9-29.9
		c-5.4-11.7-11.6-19.2-16.1-25.6c-2.1-2.5-4.3-4.8-6.6-7.2c9.9-2.3,16.5-4.6,16.5-4.6s-23.3-4.4-37.8-18.2c-1.1-1-2.3-1.9-3.4-2.8
		c0.5,0,1-0.1,1.5-0.1c20-0.9,45.5,4.6,45.5,4.6s-29.7-19.2-61.9-21.4c-0.6,0-1.3-0.1-2-0.1c20.8-6.3,36.5-16.5,36.5-16.5
		s-25.5,5.5-45.5,4.6c-2.9-0.1-5.7-0.3-8.5-0.5c-16.9-15.9-30.5-31.3-35.8-47.6c-1.5-4.7-3.8-9.8-6.4-15c-0.3-0.5-3.3-85.9-3.7-86.4
		c-18.6-34.4-57.1,9.8-88.4,15.2c-97.9,17-159.9,84-245,150.1c-5.7,4.7-29.7,34.2-70.3,71.6c-8.7,8-18.5,19.7-29.3,34.9
		c-46.1,20.5-91.7,47.9-141.3,69c-89.8,38.1-110.8,24.5-110.8,24.5s42.4,53.6,126.2,68.9c-20.4,16.5-41.1,33.5-63.7,49
		C26.1,559,1.2,551.3,1.2,551.3s53.6,33.9,132.1,35.1c-15.2,25-29.9,51-48,75.5C35.1,729.6,8,726.7,8,726.7s73.1,27.5,154.7,6.3
		c12.9,74.1,44.5,148.4,53.7,186.7c28.7-10.6,267,43.1,376.4,63.3c17.4,3.1,37.7,4.7,60.8,3.2c6.6-0.4-82-172.8-265.6-517
		c207,340.3,312.8,509.8,317.7,508.6c29.6-7.6,62.5-20.6,98.9-41.6c-16.8-4.9-101.1-119-253.3-342.1c-16.9-29.9-25.4-58.8-25.4-86.8
		c0-31.5,12.1-66.5,36.4-105c1,23.6,3.5,43.1,7.5,58.1c6,22.6,81.2,114.7,104.5,123.2c37.5,13.8,21.9-9.7,79.3,10.5
		c10.7,3.2,23.3,8.5,36.8,21.3c17.1,16,34.7,36.2,34.7,36.2c2.7,5.4,3.5,7.4,6.2,13.9c3.5,7.4,26.8,38.6,36.6,47.1
		c9.9,8.5,18.8,12.8,25.1,14.9c5.4,2.1,9.9,3.2,10.7,3.2c12.6,3.2,23.3,2.1,28.7,2.1c6.1-1.1,32.2-28,37.3-31.9
		c4.1-6.8,7-12.8,8.5-16c8.1-17.1,10.7-32,15.3-56.5C998.2,611.3,999.9,598.5,998.2,582.6z M730,262.9c0-9.1,17.4-17.5,21.4-9.9
		l54.6,90.9c8.8,13.8,4.8,13.8-8.3,8.3l-51.3-26.5c-10.1-9.1-16.4-24.5-16.4-41.3V262.9z M687.8,469.4c1.2-1.5,32.8-26.4,65.9,22.5
		c21,30.9,41.8,57.7,61.9,80.9C749.6,519.5,687.5,469.8,687.8,469.4z M983.8,602.7c-1.8,12.4-0.8,6.8-1.6,10.6
		c-1.6,6.8-4.4,21.6-6,27.5c-2.5,5.5-6.7,5.5-7.8,0.8c0-1.9-5.4-19.7-8.5-27.4c-2.4-5.8,5.5-26,11-29.9
		C976.7,580.7,985.5,590.4,983.8,602.7z"/>
</g>
<path id="Path-34" style="fill-rule:evenodd;clip-rule:evenodd;fill:#BEBEBE;" d="M8,726.9c23.9,3.5,56.3,2.4,97.3-3.5
	c61.5-8.8,86.2-23.6,97.4-25.8c7.4-1.5,18.8-1.5,34.1,0c-14.6,11.2-29.9,19.8-45.8,25.8c-24,9-36.5,13.6-63,16.5s-42.4,1.9-74.5-1.7
	C32,735.8,17,732,8,726.9z"/>
<path id="Path-35" style="fill-rule:evenodd;clip-rule:evenodd;fill:#BEBEBE;" d="M1.2,551.4c22.4,8.1,42.2,13,59.5,14.9
	c26,2.8,35.7-3.4,54.9,3.8c12.8,4.8,19,10.4,18.5,17c-9,0.4-21-0.4-35.6-2.5c-21.9-3.1-22.6-3.7-40-8.2c-17.4-4.5-15.6-4-30.5-10.2
	C18,562,9.1,557.1,1.2,551.4z"/>
<path id="Path-36" style="fill-rule:evenodd;clip-rule:evenodd;fill:#BEBEBE;" d="M36.5,391.3c16.5,6.3,32.3,12.5,47.4,18.3
	c22.5,8.7,30.3,8.7,42.3,20.1c8.1,7.6,20.2,17.7,36.4,30.5c-22.6-4-39.2-8.5-50.1-13.5c-16.1-7.5-17.7-8.6-31.1-17
	s-19.1-13.5-29.4-22.5C45.2,401.2,40.1,395.9,36.5,391.3z"/>
<path id="Path-25" style="fill-rule:evenodd;clip-rule:evenodd;fill:#BEBEBE;" d="M656.5,986.9c-21.5-47.5-43.4-92.5-65.7-135.3
	S529,734.1,472.3,627l-84-157.8l94.1,492.3l131.7,25.4H656.5z"/>
<path id="Path-25-Copy" style="fill-rule:evenodd;clip-rule:evenodd;fill:#BEBEBE;" d="M804.7,936.3C769,893.5,719,828,654.9,739.6
	S556.5,602.7,552.2,594l-18.4-42.1l-8.5-38.5l4.5-37.6l32.5-73.3L504.2,495l201.6,482.9c10.1-1.5,26.4-7.1,49-16.7
	C777.5,951.6,794,943.3,804.7,936.3z"/>
<path id="Path-26" style="fill-rule:evenodd;clip-rule:evenodd;fill:#BEBEBE;" d="M562.3,402.4c0.2,10.5,5.5,23.4,15.7,38.8
	c15.4,23,71,94.4,90.9,113.4c13.3,12.7,33.4,23.5,60.3,32.6c-6.6-1.1-10.6-1.6-12.4-1.6c-4.1,0-8.6,1-14.1,1.8
	c-12,1.9-14.6,1-28.4-3.7c-13.8-4.5-41.4-36.3-69.6-68.7c-28.3-32.3-31.9-39.4-36-55.2C566,449.3,563.8,430.2,562.3,402.4z"/>
<polygon id="Path-28" style="fill-rule:evenodd;clip-rule:evenodd;fill:#BEBEBE;" points="834.7,590.5 684.4,470.9 703.3,477.2
	831,583.9 "/>
<path id="Path-29" style="fill-rule:evenodd;clip-rule:evenodd;fill:#9C9C9C;" d="M773.3,163.3L741.6,55.4c-1.7,0.6-3.3,1.4-5.1,2.4
	c-1.7,0.9-3,1.2-4,0.8c-0.4,6.9-0.4,15.3,0,25s1.1,19.6,2.1,29.2c4.5,10,11,20.4,19.2,31.5C762.2,155.3,768.7,161.6,773.3,163.3z"/>
<polygon id="Path-30" style="fill-rule:evenodd;clip-rule:evenodd;fill:#BEBEBE;" points="728.9,221.4 817.7,364.9 742.9,229.6 "/>
<path id="Path-31" style="fill-rule:evenodd;clip-rule:evenodd;fill:#BEBEBE;" d="M954.5,604.1c5.2,9.5,8.8,17,10.9,22.8
	c2.1,5.8,4.2,14.1,6.2,25"/>
</svg>
