<svg width="51" height="49" viewBox="0 0 51 49" fill="none" xmlns="http://www.w3.org/2000/svg">
<path fill-rule="evenodd" clip-rule="evenodd" d="M50.2584 26.4609C50.4796 26.8899 50.8336 27.5871 50.9663 28.6595C51.0548 29.4639 50.9663 30.1074 50.7451 30.9654L50.74 30.9941L50.7399 30.9941C50.5218 32.2105 50.3881 32.9562 49.993 33.8075C49.9181 33.9708 49.7773 34.2755 49.5758 34.6154C49.4988 34.675 49.3213 34.8474 49.1041 35.0585L49.104 35.0585C48.6222 35.5267 47.9451 36.1845 47.7366 36.2206C47.6905 36.2206 47.6365 36.2222 47.5753 36.224L47.575 36.2241C47.2839 36.2328 46.8326 36.2463 46.3208 36.1134C46.2766 36.1134 46.0554 36.0597 45.7899 35.9525C45.4802 35.8452 45.0378 35.6307 44.5511 35.2017C44.0644 34.7727 42.9212 33.2087 42.7442 32.8333C42.6115 32.5116 42.5673 32.4044 42.4345 32.1362C42.4345 32.1362 41.5633 31.1212 40.7226 30.3168C40.059 29.6733 39.4396 29.4052 38.9087 29.2443C37.3514 28.684 36.8835 28.7886 36.4695 28.8812C36.1308 28.957 35.8283 29.0246 34.9946 28.7132C33.8492 28.2852 30.1376 23.6553 29.84 22.5179C29.5425 21.3805 29.467 19.5943 29.467 19.5943C29.467 19.5943 27.6721 22.5015 27.6721 24.8774C27.6721 26.9888 28.9226 29.2443 28.9226 29.2443C28.9226 29.2443 40.1792 46.075 41.418 46.4504C39.6274 47.5039 38.0007 48.16 36.5407 48.5424C36.1883 48.6347 20.8754 22.9613 20.8754 22.9613C20.8754 22.9613 34.4649 48.9364 33.9792 48.97C32.8368 49.0489 31.8353 48.964 30.9767 48.8098C29.6187 48.5535 27.8581 48.1906 25.9609 47.7996L25.9606 47.7996C20.3174 46.6365 13.4657 45.2243 12.4062 45.6257C12.2446 44.9404 11.943 44.0262 11.5928 42.965C10.7921 40.5384 9.73759 37.3428 9.52389 34.3553C9.34669 31.8783 9.2832 31.4005 9.2832 31.4005L10.8854 25.9534L11.8445 21.6594C11.8445 21.6594 15.406 14.4511 17.408 12.5722C18.77 11.2939 19.7529 10.1985 20.331 9.55405L20.3311 9.55404L20.3311 9.55401L20.3312 9.55392C20.6028 9.25119 20.785 9.04802 20.8754 8.97224C21.7218 8.30269 22.5218 7.63125 23.2992 6.97884L23.2992 6.97883C26.3819 4.39161 29.1082 2.10349 32.9595 1.41829C33.4857 1.32494 34.0521 1.00715 34.6067 0.695994C35.6847 0.0911354 36.7181 -0.488658 37.3251 0.654004C37.333 0.668836 37.3754 1.77322 37.4173 2.86523L37.4173 2.86597L37.4173 2.86611C37.4583 3.93333 37.4988 4.98844 37.5062 5.00284C37.6418 5.26746 37.7504 5.52366 37.8262 5.76187C38.1877 6.89824 39.3311 7.93795 40.5919 9.08433C41.3416 9.76598 42.1327 10.4854 42.8256 11.2852C42.8701 11.3499 42.9182 11.4168 42.9687 11.4871C43.1696 11.7666 43.4099 12.1009 43.622 12.5722C43.9317 13.2157 44.0644 13.9664 44.0644 14.0737C44.0842 14.1694 44.0951 14.2224 44.1051 14.2756C44.1175 14.3415 44.1284 14.4077 44.1529 14.556L44.1529 14.5562L44.1529 14.5563C44.1648 14.5996 44.18 14.678 44.2 14.7819V14.782L44.2001 14.7821C44.2545 15.0641 44.3453 15.5341 44.5069 16.0042C44.6838 16.594 44.905 17.023 45.082 17.2911C45.2134 17.5239 45.4833 17.9917 45.838 18.6064L45.8382 18.6067L45.8392 18.6086L45.8393 18.6088C47.0375 20.6853 49.2006 24.4344 50.2584 26.4609ZM39.4098 26.0676L39.4053 26.0639L39.4016 26.0609C37.2643 24.3066 35.6459 22.9782 35.6588 22.9613C35.7146 22.8879 37.2751 21.6306 38.9087 24.092C39.9386 25.6439 40.9673 26.9934 41.957 28.1599C41.0745 27.434 40.2063 26.7214 39.4098 26.0676ZM40.0363 7.2243C40.1105 7.49755 40.1094 7.71881 39.9906 7.64841C39.0913 7.1154 38.0595 4.97191 38.0595 4.97191C38.0595 4.97191 37.8934 2.40027 37.996 2.32472C38.6844 1.81768 39.3341 1.98222 39.7571 2.77855C39.7622 2.78812 39.7858 3.23588 39.8178 3.84429L39.8178 3.84438C39.884 5.10015 39.9863 7.04023 40.0363 7.2243ZM41.0732 17.0698L38.5463 15.7333C38.0469 15.2719 37.7347 14.503 37.7347 13.6573V12.5808C37.7347 12.1195 38.5914 11.6982 38.7889 12.0827L41.4807 16.6559C41.9177 17.3479 41.7191 17.3479 41.0732 17.0698ZM50.196 30.1184C50.199 30.0973 50.1978 30.0757 50.256 29.6709C50.345 29.0517 49.9077 28.5649 49.6149 28.7442C49.3425 28.9396 48.9576 29.9548 49.0744 30.2479C49.23 30.6386 49.4932 31.5308 49.4932 31.6285C49.5512 31.865 49.7607 31.865 49.881 31.5902C49.9279 31.4135 49.9979 31.0719 50.0632 30.7535C50.1063 30.5438 50.1472 30.344 50.1781 30.2082C50.1916 30.1406 50.1944 30.1296 50.196 30.1184Z" fill="#DDDDDD"/>
<path d="M21.535 22.4476C21.535 22.4476 19.1857 20.4532 13.3735 23.3683C9.61802 25.252 8.401 29.254 5.92904 32.6583C3.45715 36.0622 2.12097 35.9158 2.12097 35.9158C2.12097 35.9158 7.5518 38.0065 12.5425 35.0789C17.5329 32.151 19.697 22.4476 19.697 22.4476L21.535 22.4476Z" fill="#DDDDDD"/>
<path fill-rule="evenodd" clip-rule="evenodd" d="M2.12109 35.9157C2.12109 35.9157 3.88762 36.1813 6.91793 35.7382C9.94825 35.2952 11.1718 34.5503 11.72 34.4406C12.2682 34.3309 13.4016 34.4406 13.4016 34.4406C13.4016 34.4406 12.3208 35.286 11.1406 35.7382C9.96035 36.1905 9.33728 36.4245 8.03225 36.573C6.72722 36.7215 5.93983 36.6696 4.35933 36.4868C2.77882 36.304 2.12109 35.9157 2.12109 35.9157Z" fill="#BEBEBE"/>
<path d="M17.0805 18.2614C12.7977 19.1854 10.1984 22.4612 6.60617 24.9688C3.01421 27.4762 1.78208 27.0882 1.78208 27.0882C1.78208 27.0882 6.25578 29.9776 12.0988 28.3775C17.9417 26.7771 23.7088 16.8318 17.0805 18.2614Z" fill="#DDDDDD"/>
<path fill-rule="evenodd" clip-rule="evenodd" d="M1.78223 27.0879C1.78223 27.0879 3.43664 27.6964 4.71832 27.8388C5.99999 27.9812 6.48002 27.6635 7.42929 28.0262C8.37857 28.3888 8.34219 28.8791 8.34219 28.8791C8.34219 28.8791 7.67084 28.9098 6.5891 28.7549C5.50736 28.5999 5.47706 28.5735 4.61578 28.3453C3.7545 28.1171 3.84956 28.1471 3.10868 27.8326C2.36781 27.5182 1.78223 27.0879 1.78223 27.0879Z" fill="#BEBEBE"/>
<path d="M21.6863 12.8469C17.2079 12.9102 13.4277 15.8761 8.9936 17.7975C4.55985 19.7186 3.52724 19.0319 3.52724 19.0319C3.52724 19.0319 6.6972 23.122 12.9399 22.6694C19.1826 22.2166 28.6171 12.7493 21.6863 12.8469Z" fill="#DDDDDD"/>
<path fill-rule="evenodd" clip-rule="evenodd" d="M3.52734 19.0317C3.52734 19.0317 4.75371 19.5121 5.8634 19.9515C6.97309 20.391 7.35981 20.3912 7.95451 20.9645C8.54922 21.5379 9.74962 22.5005 9.74962 22.5005C9.74962 22.5005 8.07829 22.1979 7.28114 21.821C6.484 21.4441 6.40465 21.3865 5.74765 20.9645C5.09065 20.5426 4.8029 20.284 4.29338 19.8338C3.78385 19.3836 3.52734 19.0317 3.52734 19.0317Z" fill="#BEBEBE"/>
<path fill-rule="evenodd" clip-rule="evenodd" d="M34.1099 49.0001C34.1099 49.0001 32.5182 45.4195 30.8683 42.1945C29.2184 38.9696 25.0189 30.8958 25.0189 30.8958L20.875 22.9614L25.5173 47.7265L32.0166 49.0001L34.1099 49.0001Z" fill="#BEBEBE"/>
<path fill-rule="evenodd" clip-rule="evenodd" d="M41.4177 46.4502C41.4177 46.4502 38.7754 43.2216 34.0282 36.5552C29.281 29.8889 28.966 29.2286 28.966 29.2286L28.3471 27.7817C28.1563 27.3356 28.0089 26.8721 27.9068 26.3978L27.855 26.157C27.7152 25.5071 27.6831 24.8386 27.7598 24.1783C27.829 23.5837 27.9856 23.0026 28.2247 22.4538L29.4907 19.5479L26.6001 24.2419L36.5404 48.5422C36.5404 48.5422 37.2842 48.4253 38.9604 47.7017C40.6366 46.9781 41.4177 46.4502 41.4177 46.4502Z" fill="#BEBEBE"/>
<path fill-rule="evenodd" clip-rule="evenodd" d="M29.4668 19.5942C29.4668 19.5942 29.4829 20.3883 30.2414 21.5439C30.9999 22.6994 33.7438 26.2885 34.7261 27.2461C35.7083 28.2038 37.6998 28.8852 37.6998 28.8852C37.6998 28.8852 37.2153 28.8043 37.0895 28.8043C36.8881 28.8043 36.6655 28.851 36.3942 28.8943C35.7999 28.989 35.675 28.9424 34.9944 28.7131C34.3138 28.4838 32.9521 26.8849 31.5577 25.2597C30.1633 23.6346 29.9824 23.2758 29.78 22.4836C29.5776 21.6914 29.4668 19.5942 29.4668 19.5942Z" fill="#BEBEBE"/>
<path fill-rule="evenodd" clip-rule="evenodd" d="M42.3081 28.4805L35.2578 22.8346L36.5199 23.2367L42.3081 28.4805Z" fill="#BEBEBE"/>
<path fill-rule="evenodd" clip-rule="evenodd" d="M39.8724 7.56468L38.3065 2.13721C38.3065 2.13721 38.1829 2.18564 38.058 2.25451C37.933 2.32337 37.8636 2.29134 37.8636 2.29134C37.8636 2.29134 37.8346 2.80963 37.8636 3.55141C37.8926 4.2932 37.9704 5.02219 37.9704 5.02219C37.9704 5.02219 38.3054 5.77246 38.9172 6.60682C39.5289 7.44119 39.8724 7.56468 39.8724 7.56468Z" fill="#BEBEBE"/>
<path fill-rule="evenodd" clip-rule="evenodd" d="M37.6802 10.4878L42.0639 17.7088L38.3707 10.9052L37.6802 10.4878Z" fill="#BEBEBE"/>
<path fill-rule="evenodd" clip-rule="evenodd" d="M48.8081 29.7437C48.8081 29.7437 49.4944 30.9055 49.6511 31.3418C49.8079 31.778 49.6511 32.1507 49.6511 32.1507" fill="#BEBEBE"/>
<path d="M36.7845 8.04364C38.4591 8.92779 39.1812 8.69574 40.5463 8.78905C42.1353 8.89766 43.599 9.86697 43.599 9.86697C43.599 9.86697 42.3432 9.58957 41.3581 9.63461C38.6589 9.75802 36.7574 10.622 34.0909 10.0072C30.1953 9.10886 34.0892 6.62045 36.7845 8.04364Z" fill="#DDDDDD"/>
<path d="M35.4359 9.77569C37.1104 8.89154 37.8326 9.1236 39.1977 9.03029C40.7867 8.92167 42.2504 7.95237 42.2504 7.95237C42.2504 7.95237 40.9946 8.22977 40.0094 8.18473C37.3103 8.06132 35.4088 7.1973 32.7422 7.81213C28.8467 8.71047 32.7406 11.1989 35.4359 9.77569Z" fill="#DDDDDD"/>
<path d="M39.3126 10.6927C40.5817 11.6737 43.3196 10.6927 43.3196 10.6927C43.3196 10.6927 42.1689 10.4734 41.4544 9.78036C40.7219 9.06989 39.2445 9.0707 38.6774 8.38611C37.7288 7.241 38.2223 9.84984 39.3126 10.6927Z" fill="#DDDDDD"/>
</svg>
