<svg width="583" height="160" viewBox="0 0 583 160" fill="none" xmlns="http://www.w3.org/2000/svg">
<g clip-path="url(#clip0_0_533)">
<path fill-rule="evenodd" clip-rule="evenodd" d="M63.3609 116.48L100.704 43.52H79.7504L50.602 102.618L21.4536 43.52H0.5L37.8431 116.48H63.3609ZM106.799 116.48L114.579 100.95H158.042L165.822 116.48H186.464L148.914 43.52H123.707L86.2602 116.48H106.799ZM121.467 87.296H151.257L136.414 57.2L121.467 87.296ZM214.869 116.48V96.9893H244.632L256.23 116.48H277.988L264.749 94.8005C274.396 90.944 280.349 82.1888 280.349 70.3068C280.349 54.0471 269.162 43.52 252.843 43.52H196.394V116.48H214.869ZM214.449 80.912L248.008 80.911C253.536 80.8902 261.392 80.4243 261.392 70.0199C261.392 59.5091 253.525 59.0454 247.997 59.025L247.493 59.0241L247.247 59.024H214.449V80.912ZM368.818 116.48V101.575H310.749V86.7749H363.661V73.2252H310.749V58.4247H368.818V43.52H292.085V116.48H368.818ZM399.108 61.76V116.48H380.553V43.52H405.706L454.98 98.3442V43.52H473.535V116.48H448.28L399.108 61.76Z" fill="#DDDDDD"/>
<path fill-rule="evenodd" clip-rule="evenodd" d="M345.341 0H402.333L444.768 37.7863V71.7011L410.3 33.3084H382.799L345.341 0Z" stroke="#FFD149" stroke-width="2"/>
<path fill-rule="evenodd" clip-rule="evenodd" d="M525.279 0H582.5L491.957 80L582.5 160H525.279L483.836 122.944V37.2323L525.279 0Z" stroke="#FFD149" stroke-width="2"/>
<path fill-rule="evenodd" clip-rule="evenodd" d="M416.865 96.8917L441.918 124.756L402.333 160H345.341L383.014 126.732H409.403V103.448L416.865 96.8917Z" stroke="#FFD149" stroke-width="2"/>
<path d="M2.73488 21H1.58288V9.672H2.73488V21ZM14.7936 19.272H14.8256V9.672H15.9776V21H14.5376L7.78563 11.304H7.75363V21H6.60163V9.672H8.04163L14.7936 19.272ZM23.4868 21H22.3348V10.728H18.5428V9.672H27.2788V10.728H23.4868V21ZM30.9942 14.68H33.0422C33.5542 14.68 33.9862 14.6267 34.3382 14.52C34.7009 14.4133 34.9889 14.2747 35.2023 14.104C35.4156 13.9227 35.5703 13.7147 35.6662 13.48C35.7622 13.2347 35.8102 12.9733 35.8102 12.696C35.8102 12.4293 35.7622 12.1787 35.6662 11.944C35.5703 11.6987 35.4156 11.4853 35.2023 11.304C34.9889 11.1227 34.7009 10.984 34.3382 10.888C33.9862 10.7813 33.5542 10.728 33.0422 10.728H30.9942V14.68ZM30.9942 21H29.8422V9.672H33.3302C34.4822 9.672 35.3889 9.92267 36.0503 10.424C36.7223 10.9253 37.0583 11.6827 37.0583 12.696C37.0583 13.4853 36.8076 14.152 36.3062 14.696C35.8156 15.2293 35.1009 15.5387 34.1623 15.624L37.4263 21H36.0182L32.9142 15.736H30.9942V21ZM49.9186 15.336C49.9186 14.6853 49.812 14.0667 49.5986 13.48C49.3853 12.8827 49.076 12.36 48.6706 11.912C48.276 11.464 47.7906 11.1067 47.2146 10.84C46.6386 10.5733 45.988 10.44 45.2626 10.44C44.5373 10.44 43.8866 10.5733 43.3106 10.84C42.7346 11.1067 42.244 11.464 41.8386 11.912C41.444 12.36 41.14 12.8827 40.9266 13.48C40.7133 14.0667 40.6066 14.6853 40.6066 15.336C40.6066 15.9867 40.7133 16.6107 40.9266 17.208C41.14 17.7947 41.444 18.312 41.8386 18.76C42.244 19.208 42.7346 19.5653 43.3106 19.832C43.8866 20.0987 44.5373 20.232 45.2626 20.232C45.988 20.232 46.6386 20.0987 47.2146 19.832C47.7906 19.5653 48.276 19.208 48.6706 18.76C49.076 18.312 49.3853 17.7947 49.5986 17.208C49.812 16.6107 49.9186 15.9867 49.9186 15.336ZM51.1666 15.336C51.1666 16.2 51.0173 16.9947 50.7186 17.72C50.42 18.4453 50.004 19.0747 49.4706 19.608C48.948 20.1307 48.324 20.5413 47.5986 20.84C46.884 21.1387 46.1053 21.288 45.2626 21.288C44.42 21.288 43.636 21.1387 42.9106 20.84C42.196 20.5413 41.572 20.1307 41.0386 19.608C40.516 19.0747 40.1053 18.4453 39.8066 17.72C39.508 16.9947 39.3586 16.2 39.3586 15.336C39.3586 14.472 39.508 13.6773 39.8066 12.952C40.1053 12.2267 40.516 11.6027 41.0386 11.08C41.572 10.5467 42.196 10.1307 42.9106 9.832C43.636 9.53333 44.42 9.384 45.2626 9.384C46.1053 9.384 46.884 9.53333 47.5986 9.832C48.324 10.1307 48.948 10.5467 49.4706 11.08C50.004 11.6027 50.42 12.2267 50.7186 12.952C51.0173 13.6773 51.1666 14.472 51.1666 15.336ZM55.2624 19.944H57.5024C58.3664 19.944 59.113 19.816 59.7424 19.56C60.3824 19.2933 60.9104 18.9467 61.3264 18.52C61.753 18.0827 62.0677 17.592 62.2704 17.048C62.473 16.4933 62.5744 15.9227 62.5744 15.336C62.5744 14.7493 62.473 14.184 62.2704 13.64C62.0677 13.0853 61.753 12.5947 61.3264 12.168C60.9104 11.7307 60.3824 11.384 59.7424 11.128C59.113 10.8613 58.3664 10.728 57.5024 10.728H55.2624V19.944ZM54.1104 9.672H57.8704C58.5744 9.672 59.2784 9.78933 59.9824 10.024C60.697 10.2587 61.337 10.616 61.9024 11.096C62.4784 11.5653 62.9424 12.1573 63.2944 12.872C63.6464 13.576 63.8224 14.3973 63.8224 15.336C63.8224 16.2853 63.6464 17.112 63.2944 17.816C62.9424 18.52 62.4784 19.112 61.9024 19.592C61.337 20.0613 60.697 20.4133 59.9824 20.648C59.2784 20.8827 58.5744 21 57.8704 21H54.1104V9.672ZM75.0258 16.776C75.0258 17.2453 74.9671 17.7467 74.8498 18.28C74.7431 18.8027 74.5351 19.288 74.2258 19.736C73.9164 20.184 73.4898 20.5573 72.9458 20.856C72.4124 21.144 71.7244 21.288 70.8818 21.288C70.0284 21.288 69.3351 21.144 68.8018 20.856C68.2684 20.5573 67.8471 20.184 67.5378 19.736C67.2284 19.288 67.0151 18.8027 66.8978 18.28C66.7911 17.7467 66.7378 17.2453 66.7378 16.776V9.672H67.8898V16.648C67.8898 17.192 67.9431 17.6613 68.0498 18.056C68.1564 18.44 68.2951 18.7653 68.4658 19.032C68.6471 19.2987 68.8444 19.512 69.0578 19.672C69.2818 19.8213 69.5004 19.9387 69.7138 20.024C69.9378 20.1093 70.1511 20.168 70.3538 20.2C70.5564 20.2213 70.7324 20.232 70.8818 20.232C71.0204 20.232 71.1911 20.2213 71.3938 20.2C71.6071 20.168 71.8204 20.1093 72.0338 20.024C72.2578 19.9387 72.4764 19.8213 72.6898 19.672C72.9138 19.512 73.1111 19.2987 73.2818 19.032C73.4631 18.7653 73.6071 18.44 73.7138 18.056C73.8204 17.6613 73.8738 17.192 73.8738 16.648V9.672H75.0258V16.776ZM88.0265 19.208C87.8345 19.496 87.5945 19.768 87.3065 20.024C87.0292 20.28 86.7092 20.504 86.3465 20.696C85.9838 20.8773 85.5892 21.0213 85.1625 21.128C84.7465 21.2347 84.3038 21.288 83.8345 21.288C82.9918 21.288 82.2078 21.1387 81.4825 20.84C80.7678 20.5413 80.1438 20.1307 79.6105 19.608C79.0878 19.0747 78.6772 18.4453 78.3785 17.72C78.0798 16.9947 77.9305 16.2 77.9305 15.336C77.9305 14.472 78.0798 13.6773 78.3785 12.952C78.6772 12.2267 79.0878 11.6027 79.6105 11.08C80.1438 10.5467 80.7678 10.1307 81.4825 9.832C82.2078 9.53333 82.9918 9.384 83.8345 9.384C84.5385 9.384 85.2425 9.52267 85.9465 9.8C86.6505 10.0773 87.2532 10.536 87.7545 11.176L86.7465 11.928C86.6292 11.7467 86.4692 11.5653 86.2665 11.384C86.0638 11.2027 85.8292 11.0427 85.5625 10.904C85.3065 10.7653 85.0292 10.6533 84.7305 10.568C84.4318 10.4827 84.1332 10.44 83.8345 10.44C83.1092 10.44 82.4585 10.5733 81.8825 10.84C81.3065 11.1067 80.8158 11.464 80.4105 11.912C80.0158 12.36 79.7118 12.8827 79.4985 13.48C79.2852 14.0667 79.1785 14.6853 79.1785 15.336C79.1785 15.9867 79.2852 16.6107 79.4985 17.208C79.7118 17.7947 80.0158 18.312 80.4105 18.76C80.8158 19.208 81.3065 19.5653 81.8825 19.832C82.4585 20.0987 83.1092 20.232 83.8345 20.232C84.1332 20.232 84.4265 20.2053 84.7145 20.152C85.0132 20.0987 85.3012 20.008 85.5785 19.88C85.8665 19.752 86.1332 19.5813 86.3785 19.368C86.6345 19.144 86.8692 18.8667 87.0825 18.536L88.0265 19.208ZM91.9161 21H90.7641V9.672H91.9161V21ZM103.975 19.272H104.007V9.672H105.159V21H103.719L96.9669 11.304H96.9349V21H95.7829V9.672H97.2229L103.975 19.272ZM117.404 11.752C117.02 11.3467 116.561 11.0267 116.028 10.792C115.495 10.5573 114.876 10.44 114.172 10.44C113.447 10.44 112.796 10.5733 112.22 10.84C111.644 11.1067 111.153 11.464 110.748 11.912C110.353 12.36 110.049 12.8827 109.836 13.48C109.623 14.0667 109.516 14.6853 109.516 15.336C109.516 15.9867 109.623 16.6107 109.836 17.208C110.049 17.7947 110.353 18.312 110.748 18.76C111.153 19.208 111.644 19.5653 112.22 19.832C112.796 20.0987 113.447 20.232 114.172 20.232C114.759 20.232 115.319 20.1627 115.852 20.024C116.396 19.8747 116.881 19.6773 117.308 19.432V15.64H114.604V14.584H118.46V20.136C117.82 20.5093 117.116 20.7973 116.348 21C115.591 21.192 114.865 21.288 114.172 21.288C113.329 21.288 112.545 21.1387 111.82 20.84C111.105 20.5413 110.481 20.1307 109.948 19.608C109.425 19.0747 109.015 18.4453 108.716 17.72C108.417 16.9947 108.268 16.2 108.268 15.336C108.268 14.472 108.417 13.6773 108.716 12.952C109.015 12.2267 109.425 11.6027 109.948 11.08C110.481 10.5467 111.105 10.1307 111.82 9.832C112.545 9.53333 113.329 9.384 114.172 9.384C115.079 9.384 115.857 9.512 116.508 9.768C117.169 10.0133 117.756 10.392 118.268 10.904L117.404 11.752Z" fill="#FFD149"/>
</g>
<defs>
<clipPath id="clip0_0_533">
<rect width="582.5" height="160" fill="white"/>
</clipPath>
</defs>
</svg>
