<?xml version="1.0" encoding="utf-8"?>
<!-- Generator: Adobe Illustrator 25.0.0, SVG Export Plug-In . SVG Version: 6.00 Build 0)  -->
<svg version="1.1" id="Ebene_1" xmlns="http://www.w3.org/2000/svg" xmlns:xlink="http://www.w3.org/1999/xlink" x="0px" y="0px"
	 viewBox="0 0 200 200" style="enable-background:new 0 0 200 200;" xml:space="preserve">
<g>
	<path style="fill:#333333;" d="M102.1,200c-1.5,0-3,0-4.4,0c0-0.4-0.3-0.4-0.6-0.4c-2.5-0.2-4.9,0.2-7.4-0.4
		c-1.2-0.3-2.6,0-3.8-0.4c-0.9-0.3-1.9-0.1-2.8-0.5c-0.7-0.3-1.6,0-2.4-0.4c-0.6-0.3-1.5,0-2.2-0.4c-0.5-0.3-1.1-0.1-1.8-0.4
		c-0.7-0.4-1.6-0.4-2.4-0.6c-0.8-0.2-1.5-0.2-2.2-0.5c-0.5-0.2-0.9-0.4-1.4-0.4c-0.1,0-0.1,0-0.1,0c-0.2-0.5-0.6-0.3-1-0.4
		c-0.1,0-0.3,0-0.4,0c-0.2-0.5-0.7-0.3-1.1-0.4c-0.1,0-0.3,0-0.3-0.1c-0.1-0.5-0.5-0.3-0.8-0.4c-0.2,0-0.3-0.1-0.5-0.1
		c-0.6-0.2-1.2-0.5-1.8-0.7c-0.6-0.2-1.1-0.3-1.7-0.5l-0.1-0.1c-0.2-0.1-0.3-0.2-0.5-0.3c-0.1,0-0.3,0-0.3-0.1
		c-0.1-0.5-0.5-0.3-0.8-0.4c-0.1,0-0.4,0-0.4-0.1c-0.3-0.6-0.9-0.4-1.4-0.8c-0.4-0.4-1.1-0.5-1.6-0.8c-0.4-0.2-0.9-0.2-1.3-0.6
		c-0.4-0.3-0.9-0.3-1.4-0.5c-0.4-0.2-0.8-0.6-1.2-0.8c-1-0.4-1.8-1.2-2.9-1.4c0,0-0.1,0-0.1-0.1c-0.2-0.5-0.9-0.3-1.2-0.8
		c-0.2-0.3-0.7-0.4-1-0.6c-0.4-0.2-0.8-0.5-1.2-0.8c-0.2-0.1-0.4-0.3-0.6-0.4c-0.4-0.2-0.8-0.4-1.2-0.5c0,0-0.1,0-0.1-0.1
		c-0.4-0.6-1.1-0.8-1.7-1.2c-0.2-0.1-0.3-0.3-0.5-0.4c-0.3-0.2-0.7-0.3-1-0.6c-0.6-0.4-1.1-0.8-1.6-1.3c-0.3-0.2-0.7-0.4-1-0.7
		c-0.4-0.3-0.7-0.7-1.1-1c-0.2-0.2-0.4-0.3-0.6-0.4c-0.3-0.2-0.7-0.4-1-0.7c-0.6-0.5-1.3-1.1-1.9-1.6c-0.2-0.1-0.4-0.3-0.5-0.5
		c-0.4-0.4-0.8-0.8-1.2-1.1s-0.7-0.8-1.1-1c-0.6-0.3-0.9-0.8-1.4-1.2s-1-1-1.5-1.5c-0.4-0.4-0.8-0.7-1.2-1.1c-0.5-0.5-1-1.1-1.4-1.6
		s-0.9-1-1.3-1.6c-0.3-0.4-0.6-0.7-1-1.1c-0.4-0.4-0.8-0.8-1.2-1.2c-0.3-0.3-0.4-0.6-0.7-0.9c-0.3-0.4-0.7-0.7-1.1-1.1
		c-0.5-0.6-0.7-1.2-1.3-1.8c-0.5-0.5-0.7-1.3-1.3-1.8c-0.2-0.1-0.3-0.4-0.4-0.6c-0.2-0.3-0.4-0.7-0.6-1c-0.4-0.5-0.8-1-1.2-1.6
		c-0.1-0.2-0.4-0.3-0.4-0.5c-0.1-0.5-0.5-0.8-0.7-1.1c-0.2-0.4-0.4-0.8-0.7-1.1c-0.1-0.2-0.2-0.4-0.3-0.5c-0.2-0.3-0.4-0.5-0.5-0.8
		c-0.2-0.4-0.4-0.9-0.7-1.3c-0.1-0.2-0.2-0.4-0.3-0.5c-0.3-0.4-0.5-0.8-0.8-1.2c-0.2-0.4-0.4-0.9-0.5-1.3c0,0,0-0.1-0.1-0.1
		c-0.6-0.2-0.3-0.8-0.7-1.1c-0.3-0.3-0.4-0.9-0.6-1.3c-0.1-0.3-0.3-0.6-0.5-1s-0.5-0.8-0.7-1.3c-0.2-0.4-0.3-0.9-0.5-1.4l0,0
		c-0.6-0.2-0.3-0.9-0.7-1.2c-0.4-0.3-0.4-1.1-0.6-1.6c0-0.1,0-0.2-0.1-0.3c-0.2-0.5-0.5-0.9-0.7-1.4c-0.2-0.6-0.4-1.2-0.5-1.9v-0.1
		C6,134,5.7,133.5,5.6,133c-0.2-0.7-0.4-1.4-0.6-2.1c-0.1-0.3-0.3-0.5-0.4-0.8c-0.2-0.7-0.3-1.5-0.5-2.2c0-0.1-0.1-0.1-0.1-0.2
		c-0.1-0.2-0.2-0.3-0.2-0.5c-0.2-0.8-0.3-1.7-0.6-2.5c-0.2-0.5-0.2-0.9-0.3-1.3c0-0.2-0.1-0.4-0.1-0.6c-0.1-0.3-0.2-0.5-0.3-0.7
		s0-0.5-0.1-0.7c-0.1-0.7-0.2-1.5-0.5-2.2c-0.3-0.9-0.4-1.9-0.4-2.9c0-0.1,0-0.1-0.1-0.1c-0.4-0.2-0.3-0.6-0.3-0.9
		c0-0.6,0-1.1-0.1-1.7c0-0.2,0-0.3-0.1-0.5s-0.2-0.4-0.3-0.7c-0.1-0.4,0-0.8-0.1-1.2c-0.1-0.9-0.4-1.9-0.4-2.8c0-5.6,0-11.3,0-16.9
		c0-0.2,0-0.5,0-0.7c0.1-0.7,0.2-1.3,0.3-2c0.1-0.6,0-1.1,0.1-1.7c0-0.1,0-0.4,0.1-0.4C1.1,86.4,1,86,1,85.7c0-0.5,0-1.1,0.1-1.6
		c0-0.2,0.2-0.4,0.2-0.6c0-0.1,0.1-0.3,0.1-0.4c0.1-0.7,0.1-1.4,0.3-2.1c0.3-0.8,0.1-1.7,0.5-2.6c0.2-0.4,0-1,0.2-1.3
		c0.3-0.5,0.3-1,0.4-1.5c0-0.1,0-0.2,0.1-0.4c0.1-0.3,0.3-0.7,0.3-1c0.1-0.7,0.6-1.3,0.5-2c0,0,0-0.1,0.1-0.1
		c0.4-0.1,0.3-0.5,0.3-0.8c0-0.2,0-0.4,0.1-0.5c0.4-0.3,0.3-0.7,0.4-1.1c0-0.2,0.1-0.4,0.1-0.6c0.2-0.6,0.5-1.2,0.7-1.8
		c0.3-0.7,0.4-1.4,0.8-2.1c0.3-0.4,0.1-1,0.5-1.5C7,63.2,7.1,62.6,7.2,62c0,0,0-0.1,0.1-0.1c0.4-0.5,0.5-1.1,0.8-1.6
		c0.2-0.5,0.3-0.9,0.5-1.4c0,0,0.1,0,0.1-0.1c0.1-0.2,0.2-0.3,0.3-0.5C9,58.2,9,58,9.1,58c0.6-0.2,0.3-0.9,0.7-1.2
		c0.3-0.3,0.4-0.9,0.6-1.4c0,0,0-0.1,0.1-0.1c0.2-0.4,0.5-0.8,0.7-1.2s0.3-0.9,0.5-1.3c0,0,0,0,0.1-0.1c0.3-0.4,0.5-0.8,0.7-1.2
		s0.4-0.8,0.7-1.2c0.2-0.3,0.4-0.7,0.6-1c0.2-0.4,0.4-0.8,0.6-1.1c0.3-0.5,0.6-1,0.8-1.5c0-0.1,0-0.2,0.1-0.2
		c0.7-0.3,0.7-1.1,1.2-1.6c0.4-0.3,0.4-0.9,0.8-1.3c0.4-0.3,0.6-1,1-1.4c0.1-0.2,0.3-0.4,0.4-0.6c0.4-0.2,0.3-0.8,0.8-1
		c0.2-0.1,0.3-0.4,0.5-0.7c0.3-0.5,0.7-1,1-1.5c0.2-0.3,0.5-0.6,0.7-0.9c0.2-0.3,0.4-0.6,0.6-0.8c0.4-0.4,0.8-0.8,1.1-1.2
		c0.2-0.3,0.4-0.7,0.6-0.9c0.4-0.4,0.8-0.7,1.2-1.1c0.6-0.6,1.1-1.2,1.6-1.8c0.3-0.4,0.7-0.7,1-1c0.6-0.6,1.1-1.3,1.7-1.9
		c0.3-0.3,0.7-0.6,1-0.9s0.6-0.6,1-0.9c0.5-0.5,1.1-1,1.6-1.5s1-1,1.5-1.5c0.5-0.4,1-0.7,1.5-1c0.2-0.2,0.4-0.5,0.6-0.7
		c0.3-0.2,0.6-0.4,0.9-0.6c0.1-0.1,0.3-0.2,0.4-0.3c0.4-0.4,0.9-0.7,1.3-1.1c0.3-0.2,0.6-0.4,0.9-0.6c0.2-0.2,0.4-0.5,0.6-0.6
		c0.5-0.2,0.9-0.5,1.3-0.9c0.2-0.2,0.5-0.3,0.8-0.5s0.7-0.5,1-0.7s0.6-0.3,0.9-0.6c0.3-0.4,1-0.3,1.3-0.8c0.1-0.2,0.5-0.3,0.7-0.5
		c0.5-0.3,0.9-0.6,1.4-0.8c0.4-0.2,0.7-0.4,1.1-0.6c0,0,0.1,0,0.1-0.1c0.4-0.3,0.7-0.5,1.1-0.8c0.2-0.2,0.5-0.3,0.7-0.4
		c0.4-0.2,0.9-0.3,1.3-0.6c0.3-0.3,0.5-0.4,0.9-0.4c0.1,0,0.1-0.1,0.1-0.1c0.1-0.1,0.3-0.2,0.4-0.3c0.1-0.1,0.3,0,0.4-0.1
		c0.3-0.5,0.9-0.4,1.2-0.7c0.5-0.2,1-0.3,1.5-0.5c0,0,0,0,0.1-0.1c0.4-0.2,0.8-0.5,1.2-0.7c0.5-0.2,1.1-0.4,1.7-0.6
		c0.3-0.1,0.6-0.2,0.9-0.4c0.3-0.2,0.6-0.4,1-0.4c0.1,0,0.1-0.1,0.2-0.1c0.2-0.1,0.4-0.3,0.6-0.3c0.5-0.2,1-0.3,1.5-0.5l0,0
		c0.3-0.7,1.1-0.3,1.7-0.7c0.5-0.4,1.3-0.4,2-0.6c0.2-0.1,0.4-0.2,0.7-0.3c0.7-0.2,1.5-0.3,2.1-0.6C71,4.1,71.4,4.1,71.8,4
		c0.1,0,0.3,0,0.3-0.1c0.2-0.4,0.5-0.3,0.8-0.3s0.6-0.1,0.9-0.2c0.2-0.1,0.4-0.2,0.7-0.3c0.3-0.1,0.7-0.1,1-0.2
		c0.3-0.1,0.5-0.2,0.8-0.2c0.9-0.2,1.9-0.2,2.8-0.6c0.5-0.2,1-0.3,1.5-0.3c1.1-0.2,2.1-0.3,3.2-0.5c0.1,0,0.2,0,0.2-0.1
		c0.2-0.4,0.6-0.3,0.9-0.3c0.6,0,1.1,0,1.7-0.1c0.2,0,0.4,0,0.5,0c0.4-0.5,0.9-0.3,1.4-0.3c0.9-0.1,1.7-0.1,2.6-0.1
		c0.5,0,1.1-0.2,1.6-0.3c0.6-0.1,1.3,0,1.9,0c5.4,0,10.7-0.3,16.1,0.4c0.5,0.1,1.1,0,1.6,0c0.1,0,0.3,0,0.4,0.1
		c0.3,0.1,0.5,0.2,0.8,0.3c0.9,0.2,1.7-0.1,2.6,0.4c0.8,0.4,1.9,0.1,2.8,0.5c0.6,0.2,1.3,0.1,2,0.4c0.7,0.4,1.6,0.4,2.4,0.6
		s1.7,0.3,2.5,0.5h0.1c0.3,0.6,0.8,0.3,1.2,0.4c0.2,0,0.4,0.1,0.6,0.1c0.2,0.1,0.5,0.2,0.7,0.3c0.6,0.2,1.3,0.3,1.9,0.5
		c0,0,0.1,0,0.1,0.1c0.3,0.1,0.6,0.3,1,0.4c0.1,0,0.3,0.1,0.4,0.1c0.3,0.1,0.6,0.2,0.9,0.3c0.1,0,0.3,0,0.4,0.1
		c0.3,0.1,0.6,0.2,0.9,0.3c0.1,0,0.3,0,0.3,0.1c0.4,0.6,1.2,0.2,1.7,0.7c0.4,0.4,1.1,0.3,1.6,0.6c0.3,0.2,0.7,0.4,1.1,0.4
		c0,0,0.1,0,0.1,0.1c0.4,0.5,1.1,0.5,1.6,0.7c0.4,0.2,1,0.3,1.4,0.5c0,0,0.1,0.1,0.1,0.2c0.1,0.1,0.2,0.2,0.3,0.2
		c0.5,0.2,0.9,0.3,1.4,0.5l0.1,0.1c0.4,0.2,0.8,0.5,1.2,0.7s0.9,0.3,1.3,0.5c0,0,0.1,0,0.1,0.1c0,0.4,0.4,0.3,0.6,0.3
		c0.1,0,0.2,0,0.2,0.1c0.2,0.6,0.8,0.4,1.2,0.8c0.3,0.3,0.7,0.4,1.1,0.6c0.4,0.2,0.8,0.5,1.2,0.7c0.2,0.1,0.4,0.1,0.6,0.4
		c0.2,0.3,0.7,0.4,1,0.6c0.1,0,0.2,0,0.2,0.1c0.4,0.3,0.7,0.6,1.1,0.8c0.3,0.2,0.7,0.3,1,0.5c0,0,0.1,0,0.1,0.1
		c0.4,0.6,1.2,0.7,1.6,1.2c0.3,0.3,0.7,0.4,1,0.6c0.5,0.3,0.9,0.7,1.4,1.1c0.1,0.1,0.3,0.1,0.5,0.2c0.3,0.2,0.5,0.5,0.8,0.7
		s0.7,0.4,1,0.7c0.4,0.3,0.8,0.7,1.2,1c0.5,0.4,1,0.7,1.4,1.1c0.5,0.4,1,0.8,1.5,1.3c0.4,0.3,0.8,0.6,1.1,1c0.4,0.4,0.7,0.8,1.1,1.1
		c0.4,0.4,0.8,0.7,1.2,1c0.4,0.4,0.8,0.8,1.2,1.2c0.4,0.4,0.9,0.8,1.3,1.2c0.3,0.3,0.5,0.7,0.8,1c0.6,0.6,1.2,1.2,1.8,1.9
		c0.4,0.4,0.7,0.8,1,1.2c0.4,0.5,0.9,1,1.3,1.5c0.3,0.4,0.6,0.8,1,1.1c0.2,0.3,0.5,0.5,0.7,0.7c0.5,0.4,0.6,1.2,1.3,1.5
		c0.2,0.1,0.3,0.4,0.5,0.6c0.2,0.3,0.3,0.7,0.6,1c0.4,0.4,0.7,0.7,0.9,1.2c0.1,0.2,0.3,0.4,0.5,0.6c0.3,0.3,0.7,0.6,0.7,1.1
		c0,0.1,0,0.2,0.1,0.2c0.7,0.3,0.8,1.1,1.2,1.7c0.2,0.2,0.3,0.4,0.4,0.6c0.1,0.2,0.2,0.3,0.4,0.5c0.2,0.3,0.4,0.6,0.5,0.8
		c0.4,0.6,0.7,1.2,1.1,1.8c0.1,0.1,0.2,0.2,0.2,0.3c0.2,0.4,0.4,0.9,0.6,1.3l0.1,0.1c0.2,0.4,0.6,0.6,0.7,1.2c0,0.1,0,0.2,0,0.2
		c0.6,0.1,0.3,0.9,0.8,1.2c0.3,0.2,0.4,0.9,0.6,1.3c0,0.1,0.1,0.1,0.1,0.2c0.2,0.4,0.5,0.8,0.7,1.2s0.3,0.9,0.5,1.4
		c0,0,0,0.1,0.1,0.1c0.4,0,0.3,0.4,0.3,0.6c0,0.1,0,0.2,0.1,0.3c0.2,0.4,0.5,0.8,0.7,1.2c0.2,0.6,0.3,1.2,0.6,1.7
		c0.2,0.3,0.4,0.6,0.4,1c0,0,0,0.1,0.1,0.1c0.5,0.1,0.3,0.5,0.4,0.8c0,0.2,0.1,0.3,0.2,0.5c0.1,0.2,0.2,0.4,0.3,0.6
		c0,0.1,0,0.3,0.1,0.3c0.6,0.4,0.4,1.1,0.7,1.6c0.3,0.7,0.5,1.5,0.9,2.2c0.2,0.5,0.1,1,0.5,1.5c0.2,0.4,0.1,1,0.4,1.5
		c0.4,0.5,0.3,1.3,0.5,2c0.3,0.8,0.4,1.7,0.8,2.5c0.3,0.6,0.2,1.3,0.5,1.9s0.1,1.4,0.4,2.1c0.3,0.6,0.1,1.5,0.4,2.2
		c0.3,0.8,0.2,1.8,0.5,2.6c0.3,0.9,0.2,1.9,0.4,2.9c0.3,1.4,0.3,2.8,0.4,4.2c0.3,2.4,0.2,4.8,0.2,7.2c-0.1,3.7,0.3,7.3-0.4,11
		c-0.3,1.6-0.2,3.2-0.5,4.8c-0.1,0.5-0.1,1.1-0.2,1.6c-0.1,0.4-0.3,0.8-0.3,1.3c-0.1,0.5,0.1,1.1-0.4,1.5c-0.1,0.1,0,0.2,0,0.3
		c0,0.4,0,0.8-0.1,1.2c0,0.1-0.1,0.3-0.1,0.4c-0.1,0.2-0.2,0.4-0.3,0.6c-0.1,0.4,0,0.8-0.1,1.2c0,0.1-0.1,0.3-0.1,0.4
		c-0.1,0.2-0.2,0.3-0.3,0.5c-0.1,0.5-0.1,1-0.4,1.5c-0.3,0.7-0.4,1.5-0.6,2.3c-0.2,0.7-0.3,1.4-0.5,2.1v0.1
		c-0.4,0.2-0.3,0.5-0.3,0.8c0,0.6-0.6,1.1-0.5,1.8c0,0,0,0.1-0.1,0.1c-0.4,0.1-0.3,0.4-0.3,0.7c-0.1,0.2,0,0.4-0.1,0.6
		c-0.4,0.6-0.5,1.3-0.8,1.9c-0.1,0.2-0.2,0.4-0.3,0.6c-0.2,0.5-0.2,1-0.6,1.5c-0.3,0.4-0.3,1-0.5,1.4c-0.2,0.5-0.6,1-0.8,1.5
		s-0.3,0.9-0.5,1.4c0,0.1-0.1,0.1-0.1,0.2c-0.2,0.4-0.5,0.9-0.7,1.3c-0.2,0.4-0.3,0.9-0.5,1.3c-0.2,0.4-0.6,0.8-0.8,1.3
		c-0.3,0.8-0.9,1.3-1,2.2c0,0,0,0.1-0.1,0.1c-0.4,0-0.3,0.4-0.4,0.6c0,0.1,0,0.3-0.1,0.3c-0.4,0.1-0.3,0.4-0.3,0.6
		c0,0.1,0,0.2-0.1,0.2c-0.4,0.3-0.7,0.7-0.9,1.2c-0.1,0.3-0.3,0.7-0.5,0.9c-0.3,0.4-0.8,0.7-0.8,1.3l-0.1,0.1
		c-0.2,0.3-0.5,0.5-0.7,0.9s-0.4,0.8-0.7,1.3c-0.1,0.2-0.2,0.4-0.4,0.5c-0.6,0.4-0.8,1.2-1.2,1.7c-0.1,0.1-0.3,0.3-0.4,0.4
		c-0.2,0.3-0.4,0.7-0.7,1c-0.2,0.4-0.5,0.7-0.8,1.1c-0.1,0.1-0.1,0.2-0.2,0.2c-0.2,0.2-0.5,0.5-0.7,0.7c-0.3,0.3-0.5,0.7-0.8,1.1
		c-0.3,0.4-0.6,0.9-1,1.2c-0.3,0.2-0.3,0.6-0.5,0.8c-0.5,0.7-1.1,1.3-1.7,1.9c-0.7,0.6-1.2,1.4-1.8,2.1c-0.3,0.3-0.6,0.7-1,1
		c-0.4,0.4-0.8,0.7-1.1,1.1c-0.4,0.4-0.7,0.8-1,1.1c-0.4,0.4-0.8,0.7-1.2,1c-0.7,0.6-1.3,1.2-2,1.7c-0.4,0.3-0.8,0.6-1.1,1
		c-0.4,0.4-0.7,0.8-1.1,1.2c-0.5,0.5-1.2,0.7-1.7,1.3c-0.6,0.7-1.4,1.2-2.2,1.8c-0.2,0.1-0.3,0.3-0.5,0.4c-0.4,0.3-0.8,0.5-1.2,0.8
		c-0.2,0.2-0.5,0.4-0.7,0.5c-0.3,0.2-0.8,0.3-1,0.6c-0.5,0.6-1.2,0.8-1.8,1.3c-0.1,0.1-0.3,0.3-0.5,0.4c-0.3,0.2-0.7,0.5-1,0.7
		c-0.4,0.2-0.8,0.5-1.2,0.7c-0.2,0.1-0.3,0.2-0.5,0.3c-0.3,0.2-0.6,0.4-0.9,0.5c-0.4,0.2-0.8,0.5-1.2,0.7s-0.7,0.8-1.2,0.7
		c0,0-0.1,0-0.1,0.1c-0.2,0.6-0.9,0.3-1.2,0.7s-0.9,0.4-1.4,0.7c-0.3,0.1-0.5,0.4-0.8,0.5c-0.4,0.2-0.7,0.4-1.1,0.6
		c-0.5,0.2-1,0.3-1.6,0.5c-0.4,0.2-0.7,0.4-1.1,0.6c-0.4,0.2-0.8,0.5-1.3,0.6c-0.5,0.2-0.9,0.4-1.4,0.5l0,0
		c-0.1,0.5-0.5,0.3-0.8,0.4c-0.5,0.1-1.1,0.2-1.4,0.5c-0.5,0.5-1.2,0.3-1.7,0.7s-1.2,0.4-1.8,0.5c0,0-0.1,0-0.1,0.1
		c-0.6,0.3-1.1,0.6-1.7,0.8c-0.4,0.1-0.7,0.1-1.1,0.4c-0.4,0.3-1,0.2-1.5,0.4c-0.7,0.4-1.6,0.4-2.4,0.6c-0.1,0-0.1,0-0.2,0
		c-0.7,0.2-1.5,0.5-2.2,0.7c-0.6,0.2-1.1,0.1-1.7,0.4c-0.5,0.3-1.2,0.1-1.9,0.4c-0.7,0.3-1.5,0.2-2.2,0.4c-1.1,0.4-2.3,0.4-3.5,0.5
		c-1.2,0.2-2.4,0.3-3.6,0.4c-0.5,0.1-1.1-0.1-1.5,0.1c-0.7,0.3-1.4,0.3-2.1,0.3c-1.7,0-3.5,0.1-5.2,0.1
		C102.4,199.6,102.1,199.6,102.1,200z M105.2,116.5c0.1,0.3,0.2,0.6,0.2,0.7c-0.3,1.6,0.4,3.2,0.4,4.7c0,0.2,0,0.4,0.1,0.5
		c0.5,0.7,0.3,1.6,0.4,2.3c0.1,0.5,0,1,0,1.5c0,0.7,0.1,1.3,0.7,1.8c0.5,0.4,0.9,0.8,1.4,1.2c0.4,0.4,0.8,0.9,1.3,1.2
		c0.7,0.5,1,1,1,1.8c0.1,1.2,0.2,2.5,0.5,3.7c0.1,0.5,0.3,1,0.4,1.5c0,0.1,0.1,0.1,0.1,0.2c0.1,0.2,0.3,0.3,0.3,0.5
		c0.1,0.7,0.6,1.2,0.5,2c0,0.1,0.2,0.1,0.2,0.2c0,0.5,0.1,1.1,0.1,1.6c0,0.2-0.2,0.3-0.3,0.5c-0.2,0.5-0.3,1.1-0.5,1.7
		c0,0,0,0.1-0.1,0.1c-0.3,0.5-0.6,1-0.8,1.6c-0.2,0.6-0.3,1.2-0.5,1.7l-0.1,0.1c-0.1,0.2-0.3,0.4-0.3,0.7c-0.1,0.4,0,0.8,0,1.2
		c0,0.1-0.1,0.3-0.1,0.4c-0.2,0.3-0.4,1.6-0.2,1.7c0.6,0.4,0,1.3,0.8,1.6c0,0.6,0.4,0.9,0.8,1.2c0.2,0.2,0.4,0.4,0.5,0.6
		c0.4,0.5,0.7,1,1.1,1.5c0.4,0.4,0.7,0.7,0.7,1.3c0,0.2,0.1,0.3,0.2,0.5s0.2,0.3,0.2,0.5c0.2,0.7,0.4,1.4,0.5,2.1c0,0,0,0.1,0.1,0.1
		c0.5,0.4,0.8,0.8,0.8,1.5c0,0.1,0,0.2,0.1,0.2c0.2,0.4,0.5,0.8,0.7,1.2c0.1,0.4,0.2,0.9,0.4,1.3c0.3,0.7,0.5,1.6,0.5,2.4
		c0.1,1.6,0.1,3.3,0.1,4.9c0,0.3,0,0.6,0,0.9c0.5,0,1.1,0.1,1.5-0.1c0.4-0.3,0.8-0.2,1.2-0.3c0.6-0.1,1.2,0,1.8-0.2
		c0.5-0.2,1-0.2,1.5-0.2c0.4,0,0.9-0.1,1.3-0.1c0.4-0.1,0.8-0.2,1.2-0.3c0.4-0.1,0.7-0.1,1.1-0.2c0.5-0.2,1-0.5,1.6-0.7
		c0.5-0.2,1-0.4,1.5-0.5c0,0,0-0.1,0.1-0.1c0.4-0.2,0.8-0.5,1.2-0.7c0.5-0.2,1-0.5,1.4-0.7s0.8-0.5,1.1-0.7c0.1,0,0.2-0.1,0.2-0.1
		c0.3-0.2,0.6-0.5,0.8-0.8s0.5-0.6,0.6-0.9c0.1-0.4,0.7-0.7,0.5-1.2c0,0,0,0,0.1-0.1c0.2-0.2,0.5-0.4,0.7-0.7c0.3-0.4,0.6-0.8,1-1.1
		c0.6-0.5,1.2-0.9,1.8-1.3c0.5-0.4,1-0.7,1.5-1.1c0.5-0.4,1-0.9,1.4-1.3c-0.1-0.3-0.3-0.4-0.3-0.6c0-1.4,0-2.8,0-4.2
		c0-0.3,0-0.6,0.4-0.7c0.2-0.1,0.3-0.4,0.5-0.6c0.3-0.4,0.5-0.8,0.8-1.1c0.3-0.4,0.7-0.7,0.9-1.1c0.4-0.6,0.7-1.2,1.3-1.7
		s1-1.1,1.5-1.7c0.6-0.6,1.2-1.2,1.8-1.9c0.2-0.2,0.2-0.6,0.4-0.7c0.5-0.3,0.4-0.8,0.8-1.2c0.3-0.3,0.3-0.8,0.5-1
		c0.4-0.3,0.3-0.6,0.4-1c0-0.1,0-0.3,0.1-0.4c0.4-0.4,0.3-0.8,0.1-1.2c0-0.2-0.2-0.3-0.2-0.4c-0.1-1.2,0-2.3-0.5-3.5
		c-0.1-0.3,0-0.7-0.1-1.1c-0.1-0.8,0.2-1.7-0.3-2.5c-0.1-0.1,0-0.4,0.1-0.5c0.1-0.2,0.2-0.3,0.2-0.5c0.1-0.1,0.1-0.3,0.1-0.4
		c0.1-0.2,0.2-0.4,0.3-0.6c0-0.1,0.1-0.2,0.1-0.3c0.1-0.2,0.2-0.3,0.3-0.5c0-0.1,0-0.2,0.1-0.3c0.3-0.4,0.5-0.8,0.8-1.1
		c0.1-0.2,0.3-0.3,0.4-0.5c0.2-0.4,0.4-0.9,0.6-1.3l0.1-0.1c0.2-0.4,0.6-0.8,0.7-1.2c0.1-0.8,0.8-1.1,1.2-1.6c0.3-0.4,0.7-0.6,1-0.9
		c0.3-0.2,0.5-0.5,0.7-0.8c0.3-0.4,0.7-0.7,1-1.1c0.5-0.5,0.7-1.2,1.3-1.6c0.3-0.2,0.4-0.6,0.5-0.9c0.2-0.3,0.3-0.6,0.5-0.7
		c0.4-0.3,0.6-0.6,0.8-1c0-0.1,0.1-0.2,0.2-0.3c0.2-0.3,0.5-0.6,0.7-0.9s0.3-0.7,0.5-0.9c0.6-0.4,0.8-1.1,1.2-1.5
		c0.2-0.2,0.3-0.3,0.4-0.5c0.2-0.6,0.4-1.2,0.5-1.8l0.1-0.1c0.1-0.2,0.2-0.5,0.3-0.7c0.1-0.3,0.2-0.6,0.3-1c-0.1,0-0.4-0.2-0.6-0.2
		c-0.6,0-1.2,0.1-1.8,0.1c-0.1,0-0.4,0-0.4,0.1c-0.2,0.4-0.5,0.3-0.8,0.3c-0.5,0-1,0-1.4,0.1c-0.2,0-0.4,0.1-0.5,0.2
		c-0.3,0.3-0.7,0.2-0.8-0.2c0-0.1-0.1-0.3-0.2-0.4c-0.2-0.4-0.5-0.7-0.7-1.1c-0.1-0.1-0.1-0.2-0.1-0.3c-0.3-0.3-0.7-0.6-0.8-1.1
		c0-0.1,0-0.1-0.1-0.2c-0.5-0.7-1.1-1.3-1.6-2c-0.2-0.2-0.3-0.4-0.5-0.6c-0.2-0.3-0.4-0.7-0.6-1c-0.4-0.5-0.8-1-1.2-1.6
		c-0.1-0.2-0.3-0.4-0.4-0.5c-0.2-0.3-0.4-0.7-0.6-1c-0.4-0.6-0.8-1.1-1.2-1.6c-0.2-0.3-0.4-0.7-0.6-0.9c-0.4-0.5-0.8-0.9-0.8-1.6
		c0-0.1,0-0.2,0-0.2c-0.6-0.2-0.4-0.9-0.7-1.3c-0.4-0.5-0.4-1.3-0.6-2c-0.1-0.4-0.3-0.8-0.4-1.2c-0.2-0.7-0.3-1.4-0.6-2
		c-0.2-0.3-0.3-0.6-0.3-0.9c0,0,0-0.1-0.1-0.1c-0.6-0.3-0.4-1.1-0.7-1.6c-0.4-0.5-0.4-1.2-0.6-1.8c-0.1-0.3-0.3-0.7-0.5-1
		c-0.2-0.4-0.7-0.7-0.7-1.2c0-0.1-0.1-0.1-0.1-0.2c-0.2-0.2-0.4-0.5-0.7-0.7c-0.4-0.3-0.4-0.9-0.9-1.2c-0.2-0.1-0.4-0.4-0.4-0.7
		c-0.2-0.5-0.5-0.9-1-1.1c-0.1,0-0.2-0.1-0.3-0.1c-0.3-0.2-0.5-0.5-0.9-0.6c-0.4-0.2-0.9-0.3-1.3-0.5l-0.1-0.1
		c-0.4-0.3-0.9-0.6-1.3-0.8c-0.4-0.2-0.8-0.4-1.2-0.5c-0.6-0.1-1.2-0.5-1.8-0.7s-1.1-0.1-1.7-0.4c-0.5-0.3-1.3-0.1-1.9-0.4
		c-0.6-0.3-1.3,0-2-0.4c-0.5-0.3-1.2-0.1-1.8-0.5c-0.4-0.3-0.9-0.4-1.4-0.5c-0.1,0-0.1-0.1-0.1-0.2c-0.2-0.2-1.1-0.3-1.3-0.2
		c-0.3,0.3-0.6,0.6-1,0.8c-0.5,0.2-1.1,0.4-1.7,0.5c-0.7,0.2-1.3,0.4-2,0.4c-1.3,0-2.7,0.1-4-0.3c-1.1-0.3-2.3-0.3-3.4-0.6
		c-0.5-0.1-1-0.3-1.5-0.5c-0.4-0.2-0.7-0.5-1.1-0.8c-0.2-0.1-0.3-0.3-0.4-0.4c-0.4-0.4-0.8-0.7-0.7-1.3c0-0.4,0.1-1-0.1-1.3
		c-0.5-0.6,0-1.6-0.7-2.1c0.2-0.8-0.4-1.4-0.5-2.2c0-0.3-0.6-0.6-0.8-0.5c-0.2,0.1-0.4,0.2-0.6,0.2c-0.6,0-1.2,0-1.8,0.1
		c-0.3,0-0.5,0.2-0.8,0.3c-0.4,0-0.9,0.2-1.2,0c-0.3-0.2-0.5-0.2-0.8-0.3c-0.6-0.1-1.2-0.3-1.9-0.5c0,0-0.1,0-0.1-0.1
		c-0.3-0.3-1.3-0.5-1.6-0.2c-0.3,0.3-0.6,0.3-0.9,0.3c-0.9-0.2-1.7,0.6-2.6,0.5c0,0-0.1,0-0.1,0.1c0,0.4-0.3,0.3-0.6,0.3
		c-0.1,0-0.2,0-0.3,0.1c-0.5,0.5-1.1,0.6-1.7,0.8c-0.5,0.2-1.1,0.4-1.6,0.6c-0.4,0.2-0.9,0.3-1.3,0.4c-0.1,0-0.1,0.1-0.2,0.1
		c-0.2,0.1-0.4,0.2-0.6,0.3c-0.5,0.1-1,0-1.4,0.1c-0.2,0-0.4,0.2-0.7,0.3c-0.3,0-0.5,0-0.8,0c-0.2,0-0.3-0.2-0.5-0.2
		c-0.5,0-1,0-1.4,0c-0.1,0-0.2,0-0.3,0.1c-0.4,0.2-0.9,0.5-1.3,0.8c-0.3,0.2-0.7,0.5-0.9,0.8c-0.3,0.3-0.4,0.8-0.7,0.9
		c-0.7,0.4-0.7,1.1-1.1,1.6c-0.4,0.4-0.6,1.1-1,1.5c-0.6,0.5-0.8,1-0.8,1.7c0,0.2,0,0.4-0.1,0.5c-0.2,0.4-0.5,0.8-0.8,1.1
		c-0.3,0.4-0.6,0.8-1,1.1c-0.4,0.4-0.8,0.7-1.2,1c-0.4,0.3-0.8,0.5-1.2,0.8c-0.2,0.1-0.3,0.2-0.5,0.3c-0.3,0.2-0.5,0.4-0.8,0.5
		c-0.2,0.1-0.5,0-0.6,0.4c-0.1,0.2-0.4,0.3-0.7,0.5c-0.2,0.1-0.4,0.2-0.6,0.4c-0.4,0.3-0.6,0.7-1,0.9c-0.7,0.3-0.7,1.1-1.2,1.6
		c-0.3,0.3-0.3,0.7-0.6,1.1c-0.4,0.6-0.8,1.2-0.8,1.9c0,0.1,0,0.1,0,0.2c-0.5,0.2-0.3,0.7-0.4,1.1c0,0.1,0,0.3-0.1,0.3
		c-0.4,0.1-0.3,0.4-0.3,0.7c0,2,0,3.9-0.1,5.9c0,0.2,0,0.4,0,0.5c-0.4,0.3-0.3,0.8-0.3,1.2c0,0.9,0,1.7,0,2.6c0,0.7,0.5,1.2,0.4,1.9
		c0,0,0,0.1,0.1,0.1c0.5,0.3,0.3,0.9,0.7,1.3c0.3,0.3,0.4,0.9,0.6,1.3c0.1,0.3,0.3,0.6,0.5,0.9c0.3,0.4,0.7,0.7,0.8,1.2
		c0,0.1,0.1,0.1,0.1,0.2c0.3,0.3,0.7,0.6,0.8,1.1c0,0.1,0.1,0.2,0.2,0.2c0.2,0.2,0.5,0.4,0.6,0.6c0.3,0.7,0.8,1.2,1.3,1.7
		c0.4,0.4,0.7,1,1.1,1.4c0.5,0.6,1,1.1,1.6,1.6c0.2,0.2,0.6,0.3,0.8,0.6c0.4,0.4,0.7,0.8,1.4,0.9l0.1,0.1c0.4,0.5,0.9,0.9,1.5,1.2
		c0.3,0.1,0.5,0.4,0.7,0.6s0.4,0.6,0.7,0.7c0.6,0.2,0.9,0.8,1.4,1.1c0.4,0.3,0.9,0.4,1.4,0.6c0.9,0.4,1.7-0.4,2.7-0.4
		c0,0,0.1,0,0.1-0.1c0.1-0.4,0.4-0.3,0.6-0.3c0.3-0.1,0.7-0.1,1-0.2s0.5-0.2,0.7-0.3c0.9-0.2,1.8-0.4,2.7-0.5c0.1,0,0.1,0,0.2-0.1
		c0.5-0.2,1-0.5,1.5-0.7c0.4-0.2,1-0.2,1.1-0.5c0.3-0.6,0.9-0.3,1.3-0.7c0.3-0.4,1.1-0.4,1.7-0.5c0.1,0,0.1,0,0.2,0
		c0.3-0.5,0.9-0.4,1.3-0.4c0.5,0,1,0.4,0.9,0.9c-0.1,0.8,0.4,1.3,0.5,2c0,0.1,0.1,0.1,0.1,0.1c0.3,0.2,0.5,0.4,0.8,0.6
		s1.9,0.5,2.1,0.2c0.3-0.4,0.6-0.3,0.9-0.4c0.1,0,0.2,0,0.4-0.1c0.6-0.2,1.1-0.6,1.7-0.7C103.9,116.5,104.5,116.6,105.2,116.5z
		 M144.5,75.5c-0.8,0-1.5,0-2.2,0c-0.1,0-0.3,0.1-0.4,0.2c-0.1,0.2-0.1,0.5,0,0.6c0.3,0.3,0.5,0.7,0.9,0.9c0.6,0.4,0.7,1.1,1.2,1.6
		c0.2,0.2,0.3,0.3,0.4,0.5c0.2,0.4,0.4,0.9,0.6,1.2c0.2,0.3,0.4,0.4,0.6,0.7c0.2,0.3,0.4,0.7,0.6,1c0,0.1,0.1,0.2,0.1,0.2
		c0.6,0.4,0.7,1.1,1.1,1.6c0.2,0.3,0.3,0.7,0.6,1c0.3,0.4,0.7,0.7,0.9,1.2c0.1,0.2,0.3,0.5,0.4,0.7c0.4,0.3,0.7,0.6,0.8,1.1
		c0,0.1,0.1,0.1,0.1,0.2c0.3,0.3,0.7,0.5,0.7,1c0,0.1,0.1,0.2,0.1,0.3c0.4,0.3,0.7,0.7,0.8,1.2c0,0.1,0.1,0.1,0.2,0.2
		c0.3,0.3,0.7,0.5,0.7,1c0,0.1,0,0.2,0.1,0.3c0.4,0.6,0.8,1.1,1.2,1.7c0.3,0.4,0.5,0.7,0.8,1.1c0.2,0.2,0.3,0.5,0.5,0.7
		c0.2,0.4,0.5,0.9,0.7,1.4c0.3,0.6,0.7,1.1,0.7,1.8c0,0.5,0.1,1,0.3,1.4s0,1,0.5,1.4c0.4,0.3,0.7,0.7,1.3,0.8c0.2,0,0.3,0,0.4,0.1
		c0.5,0.4,1.1,0.2,1.7,0.1c0.3,0,0.6-0.2,1-0.3c0.6-0.2,1.1-0.3,1.7-0.5l0.1-0.1c0.1-0.1,0.3-0.2,0.4-0.3c0.1-0.1,0.3,0,0.4-0.1
		c0.4-0.2,0.7-0.6,1-0.8c0.6-0.4,1.3-0.7,2-1c0,0,0.1,0,0.1-0.1c0.2-0.5,0.9-0.3,1.1-0.8c0.1-0.2,0.3-0.3,0.5-0.4
		c0.5-0.3,1.2-0.6,1.5-1c0.4-0.6,1.1-0.7,1.5-1.2c0.2-0.2,0.4-0.3,0.6-0.4c0.3-0.2,0.7-0.3,1-0.6c0.5-0.4,1.1-0.8,1.5-1.3
		c0.3-0.3,0.5-0.8,0.7-1.2c0.2-0.5-0.3-0.8-0.5-1c-0.5-0.5-0.7-1.1-1.2-1.6c-0.2-0.3-0.3-0.9-0.5-0.9c-0.6-0.2-0.2-0.9-0.8-1.1
		c-0.3-0.1-0.4-0.7-0.6-1c-0.4,0.1-0.7,0.2-0.9,0.2c-0.8,0-1.5,0-2.3-0.3c-0.7-0.3-1.4-0.5-2.1-1c-0.5-0.4-0.8-0.7-0.8-1.3
		c0-0.4-0.3-0.9-0.4-1.3l0,0c-0.6-0.1-0.2-0.9-0.8-1.1c-0.2-0.1-0.3-0.3-0.4-0.5c-0.2-0.4-0.4-0.9-0.6-1.3c0-0.1-0.1-0.1-0.2-0.2
		c-0.1-0.1-0.1-0.2-0.2-0.3c0.1,0,0.2-0.2,0.3-0.1c0.6,0.1,1.2,0.3,1.8,0.5c0,0,0,0.1,0.1,0.1c0.1,0.1,0.2,0.2,0.4,0.3
		c0.3,0.2,0.7,0.4,1,0.6s0.5,0.4,0.8,0.7c0.5,0.4,0.9,0.7,1.4,1.1c0.3,0.3,0.6,0.5,1,0.8c0.1,0.1,0.3,0.1,0.3,0.2
		c0.4,0.5,0.9,0.7,1.5,0.7c0.4,0,0.9-0.1,1.1,0.1c0.7,0.5,1.6,0.1,2.3,0.7c0.3,0.3,0.8,0.4,1.3,0.5c0,0,0,0.1,0.1,0.1
		c0.4,0.3,0.8,0.5,1.2,0.8c0.2,0.1,0.4,0.1,0.6,0.4c0.2,0.3,0.6,0.4,1,0.6c0.1,0,0.1,0.1,0.2,0.1c0.3,0.2,0.6,0.5,0.9,0.7
		c0.2,0.2,0.4,0.5,0.6,0.7c0.2,0.2,0.4,0.4,0.6,0.6c0.3,0.3,0.6,0.4,1,0.6c0.5,0.3,0.9,0.7,1.3,1.1c0.4,0.4,0.7,0.8,1.1,1.2
		c0.4,0.4,0.8,0.8,1.2,1.3c0.2,0.6,0.3,1.2,0.5,1.9l0.1,0.1c0.1,0.2,0.2,0.3,0.3,0.5c0,0.1,0,0.3,0.1,0.4c0.5,0.6,0.6,1.4,0.9,2.1
		c0.2,0.6,0.5,1.1,0.5,1.7c0,0,0,0.1,0.1,0.1c0.2,0.4,0.5,0.8,0.7,1.2c0.2,0.6,0.4,1.3,0.6,1.9c0.3,0,0.5,0,0.8,0c0-2.9,0-5.8,0-8.7
		c0-1.9-0.3-3.7-0.4-5.6c0-0.6,0.1-1.3-0.2-1.8c-0.3-0.6-0.3-1.1-0.3-1.7c0-0.4,0-0.8-0.1-1.2c0-0.1-0.1-0.3-0.1-0.4
		c-0.1-0.2-0.2-0.4-0.2-0.6c-0.1-0.5,0.1-1.2-0.1-1.6c-0.5-0.6-0.2-1.3-0.4-2c0-0.1,0-0.2-0.1-0.3c-0.1-0.2-0.2-0.4-0.3-0.7
		c-0.2-0.9-0.4-1.9-0.6-2.8c-0.1-0.4-0.2-0.9-0.3-1.3c0-0.2-0.1-0.3-0.1-0.5c-0.1-0.2-0.3-0.5-0.3-0.7c-0.1-0.7-0.6-1.2-0.5-1.9
		c-0.5-0.3-0.3-0.8-0.4-1.2c-0.1-0.5-0.3-1-0.5-1.5c0,0-0.1,0-0.1-0.1c-0.1-0.2-0.2-0.4-0.3-0.6c-0.2-0.6-0.3-1.3-0.6-1.9
		c-0.2-0.4-0.3-0.7-0.3-1c0-0.1-0.1-0.3-0.2-0.4c-0.1-0.2-0.2-0.3-0.2-0.5c-0.2-0.5-0.3-0.9-0.5-1.4c0,0-0.1,0-0.1-0.1
		c-0.1-0.2-0.2-0.3-0.3-0.5c-0.1-0.1-0.1-0.3-0.1-0.4c-0.2-0.5-0.5-1-0.8-1.6c-0.2-0.5-0.4-1-0.5-1.4c0,0,0-0.1-0.1-0.1
		c-0.4,0-0.3-0.3-0.3-0.6c0-0.1-0.1-0.2-0.1-0.3c-0.1-0.2-0.2-0.3-0.3-0.5c-0.1-0.1-0.2-0.3-0.3-0.5c-0.1-0.1-0.1-0.2-0.2-0.3
		c-0.2-0.5-0.4-0.9-0.6-1.4c-0.4-0.7-1-1.3-1.2-2.2c0-0.1-0.1-0.1-0.1-0.1c-0.1-0.1-0.2-0.2-0.3-0.4s-0.2-0.3-0.3-0.5
		c-0.2-0.3-0.4-0.6-0.5-0.9c-0.2-0.4-0.3-0.9-0.6-1.2c-0.3-0.4-0.8-0.7-0.8-1.3l-0.1-0.1c-0.3-0.3-0.7-0.6-0.8-1.1
		c0-0.1-0.1-0.1-0.1-0.2c-0.2-0.3-0.5-0.7-0.7-1c-0.1-0.1-0.2-0.2-0.2-0.3c-0.2-0.2-0.5-0.4-0.6-0.7c-0.2-0.7-0.8-1.2-1.3-1.7
		c-0.3-0.3-0.4-0.7-0.6-1c0-0.1-0.1-0.1-0.2-0.2c-0.4-0.4-0.8-0.7-1-1.1c-0.3-0.7-0.8-1.2-1.3-1.7c-0.2-0.2-0.3-0.4-0.5-0.6
		c-0.4-0.5-0.7-1-1.1-1.4c-0.5-0.5-1-1-1.5-1.6c-0.5-0.5-0.9-1.1-1.4-1.7c-0.4-0.4-0.9-0.8-1.3-1.3c-0.2-0.2-0.4-0.3-0.6-0.5
		c-0.2-0.2-0.5-0.5-0.7-0.7c-0.4-0.4-0.8-0.7-1.2-1.1c-0.3-0.2-0.7-0.4-0.9-0.7c-0.5-0.4-0.9-0.8-1.3-1.2c-0.2-0.2-0.4-0.4-0.6-0.6
		c-0.4-0.4-0.8-0.7-1.2-1.1c-0.3-0.2-0.6-0.4-0.9-0.6c-0.4-0.3-0.6-0.8-1.1-0.8c-0.1,0-0.1,0-0.2-0.1c-0.2-0.2-0.4-0.5-0.6-0.7
		c-0.2-0.2-0.5-0.3-0.7-0.5c-0.3-0.2-0.6-0.4-0.9-0.6c-0.6-0.4-1.1-0.8-1.6-1.2c-0.5-0.4-1-0.8-1.6-1.1c-0.5-0.3-1-0.9-1.7-0.7
		c-0.4,0.1-0.9,0.4-1.3,0.6c-0.4,0.3-0.8,0.7-1.3,0.8c-0.2,0-0.3,0.2-0.4,0.2c-0.4,0.1-1,0.2-1.3,0c-0.5-0.3-1-0.8-1.4-1.2
		c-0.2-0.2-0.4-0.3-0.6-0.4c-0.5-0.3-1.2-0.5-1.5-1.2c0.4-0.3,0.4-0.7,0-1l-0.1-0.1c-0.3-0.7-1.1-0.8-1.6-1.2
		c-0.4-0.3-0.9-0.4-1.3-0.5l-0.1-0.1c-0.4-0.4-1-0.6-1.5-0.6c-0.4,0-0.8,0.2-1.2,0.3c-1.8,0.1-3.7,0.2-5.5,0.4
		c-2.3,0.2-4.6,0.4-6.8-0.3c-0.5-0.1-1,0.2-1.4-0.3c-1.1,0-2.3,0-3.4,0c-0.3,0-0.6,0.2-0.9,0.3c-0.3,0.1-0.6,0.1-0.9,0.2
		c-0.2,0.1-0.4,0.2-0.6,0.3c-0.7,0.2-1.3,0.3-2,0.5h-0.1c-0.1,0.5-0.5,0.3-0.8,0.3c-0.6,0.1-1.2,0.3-1.8,0.5c0,0-0.1,0-0.1,0.1
		c-0.1,0.4-0.4,0.3-0.6,0.3c-0.1,0-0.3,0.1-0.4,0.1c-0.7,0.4-1.4,0.8-2.2,0.9c-0.1,0-0.1,0-0.2,0.1c-0.2,0.1-0.5,0.3-0.7,0.3
		c-0.7-0.1-1.3,0.3-1.9,0.6c-0.6,0.3-1,0.8-1.5,1.3c-0.2,0.2-0.4,0.4-0.5,0.6c-0.2,0.4-0.3,0.9-0.5,1.3l-0.1,0.1
		c-0.1,0.2-0.2,0.3-0.3,0.5c-0.1,0.1,0,0.3-0.1,0.4c-0.4,0.3-0.3,0.7-0.3,1.1c0,0.2,0.1,0.6,0.2,0.6c0.4,0.1,0.7,0,1.1,0
		c0.2,0,0.4-0.2,0.6-0.2c1,0,2-0.1,3,0c0.9,0,1.1,0.3,1.2,1.2c0,0.2,0,0.4,0.1,0.4c0.6,0.3,0.2,1.1,0.7,1.4
		c-0.1,0.7,0.5,1.2,0.5,1.7c0.4,0.2,0.7,0.5,1.1,0.6c0.6,0.2,1.3,0.4,1.9,0.4c0.7,0.1,1.5,0,2.3,0c0.5-0.9,1-1.9,1.4-2.8l0.1-0.1
		c0.3-0.3,0.5-0.7,0.8-1c0.1-0.1,0.1-0.2,0.2-0.3c0.2-0.4,0.4-0.7,0.7-1c0.1-0.2,0.3-0.2,0.5-0.4c0.1,0.1,0.2,0.3,0.3,0.4
		c0.1,0.1,0.1,0.3,0.1,0.4c0.2,0.4,0.5,0.7,0.7,1.1c0.2,0.5,0.3,1,0.5,1.5c0,0.1,0.1,0.2,0.1,0.3c0.1,0.2,0.2,0.5,0.2,0.7
		c0,0.6-0.1,1.1-0.3,1.6c-0.2,0.7-0.2,1.5-0.7,2.2c-0.2,0.1-0.5,0.1-0.7,0.2c-0.4,0.2-0.7,0.5-1.1,0.7c-0.2,0.1-0.4,0.3-0.7,0.4
		c-0.6,0.2-1,0.7-1.7,0.6c-0.1,0-0.1,0.1-0.2,0.2c-0.2,0.2-0.3,0.2-0.4,0c0-0.1-0.2-0.2-0.2-0.2c-0.5,0.1-0.7-0.4-1.1-0.6
		c-0.5-0.3-1-0.8-1.4-1.2c-0.2-0.2-0.4-0.3-0.7-0.5c-0.3-0.2-0.6-0.4-0.9-0.6c-0.4-0.4-0.8-0.8-1.2-1.2c-0.3-0.3-0.7-0.4-1-0.7
		s-0.6-0.3-0.8-0.1c-0.3,0.2-0.6,0.3-0.9,0.3c-0.1,0-0.1,0-0.2,0.1c-0.4,0.3-0.8,0.5-1.3,0.8c-0.4,0.2-0.8,0.4-1.2,0.6
		c-0.2,0.1-0.4,0.3-0.6,0.5c-0.4,0.4-0.7,0.8-1,1.1c-0.4,0.4-0.8,0.6-1.2,1c-0.4,0.4-0.6,0.8-1,1.1c-0.2,0.2-0.4,0.4-0.6,0.5
		c-0.5,0.2-1,0.4-1.5,0.6c-0.3,0.1-0.6,0.3-0.9,0.5c-0.4,0.2-0.7,0.5-1.1,0.7s-0.9,0.4-1.4,0.6c-0.6,0.2-1.1,0.6-1.7,0.7
		C91,41.7,90.5,42,90,42.5c-0.7,0.6-1.2,1.3-1.1,2.3c0,0.2,0,0.5,0.1,0.7c0.3,0.6,0.8,1.1,1.1,1.5c-0.2,0.3-0.4,0.6-0.5,0.7
		c-0.2,0.2-0.5,0.4-0.7,0.6c-0.3,0.4-0.4,1-0.9,1.3c-0.3,0.1-0.6,0.3-0.7,0.5c-0.3,0.5-0.9,0.5-1.3,0.7c-0.6,0.3-1.4,0.1-2.2,0.4
		c-1,0.4-2.1,0.4-3.1,0.5c-0.3,0-0.6,0.1-0.9,0.1c-0.7,0.1-1,0.4-1,1.1c-0.1,0.7,0.3,1.4-0.3,2c0,0,0,0.2,0,0.3c0,2.3,0,4.5,0,6.8
		c0,0.1,0,0.3,0.1,0.4c0.4,0.2,0.9,0.3,1.4,0.4c0.2,0.1,0.5,0,0.6,0.1c0.4,0.4,0.9,0.3,1.4,0.4c0.2,0,0.3,0.1,0.5,0.1
		c0.2,0.1,0.4,0.3,0.6,0.3c1.4,0,2.8,0,4.2,0.1c1.1,0.1,1.7-0.4,2.4-1.1c0.5-0.5,0.8-1.1,1.4-1.5s0.7-1.1,1.2-1.6
		c0.2-0.1,0.3-0.3,0.4-0.5c0.3-0.4,0.6-0.8,0.8-1.2c0.2-0.2,0.4-0.4,0.5-0.7c0.1-0.7,0.6-1.2,1.1-1.4c0.7-0.3,1.1-1.1,1.9-1
		c0.4-0.6,1.3-0.1,1.6-0.8c0.7,0,1.1-0.6,1.5-1c0.4-0.3,0.9-0.6,1.3-0.7c1.1-0.3,2.2-0.4,3.3-0.6c0.2,0,0.4,0,0.6-0.1
		c0.6-0.3,1-0.1,1.5,0.3c0.3,0.3,0.7,0.5,1,0.7c0.1,0.1,0.2,0.2,0.3,0.2c0.3,0.2,0.5,0.5,0.8,0.6c0.4,0.1,0.5,0.3,0.6,0.6
		c0.2,0.4,0.4,0.9,0.7,1.1c0.4,0.2,0.8,0.8,1.4,0.6c0,0,0.1,0,0.1,0.1c0.3,0.1,0.5,0.2,0.8,0.3c0.2,0.1,0.3,0.1,0.6,0.1
		c0,0.9,0,1.7,0,2.6c1.6,0,3.1,0,4.8-0.1c-0.3-0.4-0.6-0.7-0.7-1.1c-0.3-0.6-0.7-1.1-1.3-1.6c-0.2-0.1-0.4-0.3-0.5-0.4
		c-0.3-0.3-0.5-0.6-0.8-0.8c-0.2-0.2-0.4-0.3-0.6-0.5c-0.3-0.4-0.6-0.8-1-1.1c-0.4-0.4-0.8-0.7-1.2-1c-0.2-0.2-0.4-0.4-0.5-0.7
		c-0.1-0.7-0.1-1.3-0.1-2c0-0.1,0.2-0.3,0.3-0.3c0.5,0.2,0.9,0.4,1.4,0.6l0,0c0.4,0.2,0.8,0.5,1.1,0.7c0.2,0.1,0.4,0.2,0.6,0.3
		c0.3,0.2,0.6,0.4,0.9,0.5c0.4,0.2,0.8,0.4,1.2,0.6c0.3,0.1,0.6,0.3,0.8,0.4c0.5,0.4,1,0.8,1.5,1.2c0.4,0.3,0.9,0.5,1.3,0.8
		c0.4,0.4,0.5,0.9,0.7,1.3c0.3,0.4,0.4,0.9,0.5,1.4c0,0,0.1,0,0.1,0.1c0.3,0.5,0.5,1.1,0.8,1.6c0.1,0.2,0,0.5,0.3,0.6
		c0.2,0.1,0.5,0.4,0.5,0.7c0.1,0.5,0.4,0.6,0.9,0.5c0-0.2,0-0.4,0-0.6c0-0.2,0-0.4,0-0.6c0-0.5,0.4-0.9,0.9-0.9c1.5,0,2.9,0,4.4,0
		c0.7,0,1.4-0.3,2.1-0.5l0.1-0.1c0.2-0.1,0.3-0.2,0.5-0.3c0.4-0.2,0.9-0.3,1.2-0.5s0.6-0.6,0.5-1.1c-0.1-0.7,0-1.3-0.1-2
		c-0.1-0.8,0.2-1.6,0.8-2.1c0.4-0.3,0.7-0.7,1-1s0.7-0.5,1-0.7c0.5-0.2,1.1-0.4,1.7-0.6c0.3-0.1,0.7-0.2,0.9-0.4
		c0.3-0.2,0.6-0.4,1-0.5c0,0,0.1,0,0.1-0.1c0.1-0.4,0.4-0.3,0.6-0.3c0.1,0,0.2-0.1,0.3-0.1c0.2-0.1,0.4-0.2,0.6-0.3
		c0.1-0.1,0.3-0.1,0.4-0.2c0.3-0.3,1.8-0.5,2-0.2s0.5,0.3,0.8,0.3s0.6,0,0.8,0c0.1,0,0.2,0.1,0.2,0.1s0,0.2-0.1,0.2
		c-0.6,0.6-1.2,1.2-1.9,1.8c-0.4,0.4-0.4,0.8,0,1.2c0.4-0.4,0.7-0.6,1.1,0c0,0.1,0.2,0,0.3,0.1c0.4,0.1,0.7,0.1,1.1,0.4
		c0.7,0.5,1.5,0.7,2.3,1.1c0,0,0.1,0,0.1,0.1c0.4,0.3,0.8,0.6,1.2,1c0.1,0.3,0.3,0.8,0.4,1.2c0,0,0,0.1,0,0.2
		c-0.1,0.5-0.3,0.9-0.5,1.4c-1,0-2.1,0-3.1,0c-0.1,0-0.2-0.1-0.2-0.1c-0.2-0.1-0.4-0.2-0.6-0.2c-2.6,0-5.2,0-7.8,0
		c-0.1,0-0.3,0-0.4,0.1c-0.4,0.2-0.9,0.5-1.3,0.8c-0.5,0.3-0.9,0.5-1.4,0.8c-0.3,0.2-0.6,0.5-0.8,0.5c-0.5,0-0.6,0.5-1,0.6
		c-0.2,0-0.4,0.3-0.4,0.5c-0.3,1.2,0,2.3,0.5,3.3l0,0c0.1,0.2,0.2,0.4,0.4,0.6c0.1,0.1,0.1,0.2,0.1,0.3c0.3,0.3,0.7,0.6,0.8,1.1
		c0,0.1,0.1,0.2,0.2,0.2c0.4,0.5,1.1,0.8,1.2,1.6c0,0.1,0.1,0.1,0.1,0.2c0.2,0.2,0.5,0.4,0.6,0.6c0.4,0.7,0.9,1.4,1.5,1.9
		c0.3,0.2,0.8,0,1.3,0c0.2,0,0.3-0.2,0.5-0.3c0.1-0.1,0.3,0,0.3-0.1c0.5-0.4,1-0.8,1.5-1.2c0.5-0.3,1-0.6,1.5-0.9
		c0,0.2,0.1,0.4,0.1,0.7c0,1.1,0,2.3,0,3.4c0,0.6-0.1,1.4,0.1,1.9C144.6,74.2,144.4,74.8,144.5,75.5z M44.3,164.6
		c0-0.2,0.1-0.6-0.1-0.7c-0.5-0.3-0.3-0.7-0.4-1.1c0-0.1,0-0.3-0.1-0.3c-0.4-0.1-0.3-0.4-0.3-0.7c0-0.2-0.1-0.5-0.2-0.7
		c-0.2-0.3-0.3-1.5-0.1-1.8c0.1-0.2,0.2-0.4,0.3-0.7s-0.1-0.8,0.1-0.9c0.5-0.4,0.3-1,0.4-1.5c0-0.1,0-0.3,0.1-0.3
		c0.4-0.2,0.3-0.6,0.3-0.9c0-0.2,0-0.3,0.1-0.5c0.5-0.6,0.5-1.4,0.8-2.1c0.2-0.5,0.3-1,0.5-1.5c0,0,0.1,0,0.1-0.1
		c0.1-0.2,0.3-0.4,0.3-0.6c0-0.6,0.1-1.1-0.3-1.7c-0.2-0.4-0.1-1-0.5-1.4c-0.3-0.2-0.4-0.7-0.9-0.7c-0.1,0-0.3-0.1-0.4-0.1
		c-0.4-0.2-0.8-0.5-1.2-0.7c-0.3-0.2-0.7-0.4-1-0.6c-0.5-0.4-1-0.8-1.6-1.2c-0.3-0.2-0.7-0.3-0.9-0.5c-0.3-0.5-0.8-0.3-1.2-0.4
		c-0.2,0-0.5-0.1-0.7-0.2c-0.2-0.1-0.4-0.2-0.6-0.3c-0.5-0.2-1-0.3-1.5-0.5l-0.1-0.1c-0.1-0.1-0.2-0.2-0.4-0.3
		c-0.1-0.1-0.3-0.1-0.4-0.1c-0.6-0.4-1.2-0.8-1.8-1.1c-0.4-0.2-0.8-0.4-1.2-0.6c-0.1,0-0.1-0.1-0.1-0.2c-0.5-0.7-1-1.3-1.4-2
		s-0.7-1.4-1-2.2c-0.2-0.4-0.3-0.8-0.5-1.2c-0.2-0.5-0.5-1.1-0.8-1.6c-0.1-0.2-0.3-0.3-0.4-0.5c-0.2-0.5-0.5-0.9-0.9-1.2
		c-0.6-0.5-1.2-1.2-1.7-1.8c-0.2-0.2-0.4-0.4-0.5-0.6c-0.3-0.8-1-1.1-1.6-1.5c-0.4-0.3-0.8-0.5-1.3-0.7c-0.5-0.3-1-0.5-1.5-0.7
		c-0.1-0.1-0.3-0.2-0.4-0.3c-0.3-0.2-0.7-0.3-0.9-0.6c-0.4-0.6-1.1-0.8-1.7-1.1c-0.5-0.3-1.2-0.5-1.7-0.9c-0.5-0.3-0.9-0.5-1.2-0.9
		c-0.1-0.2-0.4-0.3-0.6-0.5c-0.3-0.3-0.7-0.6-1-0.8c-0.4-0.2-0.7-0.8-1.3-0.4c0,0.2,0.1,0.5,0.2,0.8c0.1,0.2,0.2,0.4,0.2,0.7
		c0,0.9,0.7,1.7,0.5,2.6c0.5,0.3,0.3,0.9,0.4,1.4c0,0.1,0.1,0.1,0.1,0.2c0.1,0.2,0.2,0.4,0.3,0.6c0.2,0.8,0.3,1.6,0.6,2.3
		c0.2,0.4,0.2,0.7,0.3,1c0.1,0.4,0.2,1,0.5,1.3c0.5,0.4,0.2,0.8,0.4,1.1c0.4,0.5,0.4,1,0.6,1.5c0.1,0.2,0.2,0.4,0.3,0.6
		c0,0.1,0.1,0.2,0.1,0.3c0.1,0.2,0.2,0.4,0.3,0.6c0.1,0.1,0,0.2,0.1,0.3c0.3,0.6,0.6,1.1,0.8,1.7c0.1,0.5,0.7,0.8,0.5,1.4
		c0,0,0.1,0,0.1,0.1c0.1,0.2,0.2,0.3,0.3,0.5c0.1,0.1,0,0.3,0.1,0.3c0.4,0.1,0.3,0.4,0.3,0.6c0,0.1,0,0.2,0.1,0.2
		c0.2,0.4,0.5,0.7,0.8,1.1c0.2,0.4,0.4,0.9,0.5,1.3c0,0.1,0,0.2,0.1,0.2c0.6,0.2,0.3,0.8,0.7,1.2c0.5,0.5,0.6,1.4,1,1.9
		c0.3,0.4,0.4,0.9,0.8,1.3c0.3,0.2,0.4,0.6,0.5,0.9c0.3,0.6,0.8,1,1.2,1.5c0.4,0.6,0.7,1.2,1,1.8c0.1,0.3,0.3,0.5,0.5,0.7
		c0.2,0.3,0.5,0.6,0.7,0.9c0.2,0.3,0.4,0.6,0.6,0.9c0.2,0.3,0.5,0.7,0.8,1c0.2,0.2,0.4,0.5,0.6,0.7c0.2,0.3,0.5,0.5,0.7,0.7
		c0.4,0.5,0.7,1,1.1,1.5s0.8,0.9,1.2,1.4c0.3,0.4,0.6,0.8,1,1.2c0.5,0.5,1.1,1,1.6,1.6c0.4,0.4,0.7,0.8,1,1.1
		c0.4,0.4,0.8,0.9,1.3,1.3c0.6,0.6,1.1,1.2,1.7,1.7c0.3,0.3,0.7,0.7,1.2,0.5c0.3-0.1,0.6-0.3,0.9-0.3c0.7-0.2,1.6,0,2.3-0.5
		c0.4-0.2,1-0.2,1.3-0.6C43.3,165.1,44,165.1,44.3,164.6z M17.9,65.7c0.4-0.6,0.8-1.2,1.2-1.8c0.3-0.4,0.7-0.8,1-1.2
		c0.2-0.2,0.4-0.3,0.6-0.4c0.3-0.2,0.8-0.3,1-0.5c0.4-0.6,1.1-0.8,1.6-1.2c0.3-0.3,0.7-0.4,1-0.6c0.3-0.3,0.6-0.7,1.1-0.8
		c0.1,0,0.1,0,0.2-0.1c0.5-0.5,1-1,1.7-1.2c0.1,0,0.2-0.1,0.2-0.2c0.1-0.6,0.7-1,0.6-1.7c0-0.1,0.1-0.2,0.1-0.3
		c0-0.4,0.1-0.9,0.1-1.3c0-0.3-0.2-0.7-0.3-1c-0.2-0.6-0.3-1.1-0.5-1.7c0,0-0.1,0-0.1-0.1c-0.1-0.1-0.2-0.2-0.2-0.4
		c-0.1-0.1,0-0.4-0.1-0.4c-0.6-0.4-0.5-1.1-0.7-1.6c-0.4-0.8,0.1-1.7,0.5-2.5c0.1-0.3,0.2-0.5,0.4-0.9c-0.5,0-0.9-0.2-1.1,0.3
		c-0.1,0.2-0.3,0.3-0.4,0.5c-0.4,0.5-0.8,1.1-1.2,1.6c-0.1,0.2-0.3,0.4-0.4,0.6c-0.1,0.2-0.2,0.3-0.4,0.5c-0.2,0.3-0.4,0.6-0.6,0.9
		c-0.2,0.3-0.3,0.6-0.5,0.9c-0.2,0.4-0.5,0.7-0.8,1.1c-0.1,0.2-0.2,0.4-0.3,0.6c-0.2,0.2-0.4,0.5-0.5,0.7c-0.2,0.4-0.4,0.9-0.6,1.3
		c0,0,0,0.1-0.1,0.1c-0.3,0.4-0.5,0.7-0.8,1.1c-0.1,0.2-0.3,0.4-0.4,0.6c-0.2,0.4-0.4,0.9-0.5,1.3L18.6,58c-0.3,0.4-0.5,0.8-0.7,1.2
		s-0.3,0.9-0.5,1.4l-0.1,0.1c-0.3,0.5-0.5,1-0.8,1.5c-0.2,0.5-0.3,1-0.5,1.5c0,0,0,0.1-0.1,0.1c-0.4,0.5-0.6,1.1-0.8,1.7
		c-0.1,0.5-0.3,0.9-0.5,1.4l0,0c-0.4,0.1-0.3,0.5-0.3,0.7s0,0.4-0.1,0.5c-0.5,0.6-0.5,1.3-0.8,2c-0.2,0.6-0.4,1.3-0.6,1.9l0,0
		c-0.4,0.2-0.3,0.6-0.4,1c0,0.1,0,0.3-0.1,0.4c-0.4,0.3-0.3,0.7-0.4,1.2c0,0.1,0,0.2-0.1,0.3c-0.1,0.2-0.2,0.5-0.3,0.7
		c-0.1,0.3-0.1,0.7-0.2,1C11.2,76.8,11,77,11,77.2c-0.1,0.5-0.2,0.9-0.3,1.4c-0.2,0.7-0.3,1.5-0.5,2.2c-0.1,0.4,0.1,1-0.2,1.4
		c-0.4,0.7-0.3,1.5-0.4,2.2c0,0.2,0,0.3-0.1,0.5c-0.1,0.3-0.2,0.6-0.3,0.9c-0.1,0.6-0.1,1.2-0.1,1.7c0,0.1,0,0.4-0.1,0.4
		c-0.5,0.4-0.2,0.9-0.3,1.4c0.3,0,0.6,0,0.7,0c0.2-0.6,0.4-1.1,0.5-1.6s0.1-1.1,0.2-1.6c0-0.1,0-0.2,0.1-0.3
		c0.1-0.3,0.2-0.5,0.3-0.8c0.1-0.5,0-1.1,0.1-1.6c0.1-0.6,0.2-1.3,0.5-1.9c0.2-0.3,0.3-0.5,0.4-0.9c0-0.1,0.1-0.1,0.1-0.1
		c0.1-0.1,0.2-0.3,0.3-0.4s0.1-0.3,0.1-0.4c0.4-0.6,0.8-1.2,1.2-1.8c0.2-0.3,0.3-0.8,0.5-0.9c0.5-0.2,0.4-0.8,0.7-1.1
		c0.4-0.5,0.5-1.1,0.9-1.7s0.9-1.2,1-1.9l0.1-0.1c0.2-0.3,0.4-0.5,0.7-0.8c0.3-0.4,0.5-0.7,0.7-1.1c0.2-0.3,0.4-0.6,0.6-1
		c0.1-0.2,0.2-0.5,0.4-0.7c0.1-0.2,0.5-0.5,0.5-0.7c0-0.5,0.5-0.7,0.6-1.1c0.2-0.4,0.5-0.8,0.7-1.2c0.1-0.3,0.2-0.6,0.3-1
		c-0.5-0.3-1.1-0.3-1.5,0c-0.3,0.2-0.5,0.3-0.9,0.4l-0.1,0.1C18.6,66,18.3,65.7,17.9,65.7z M37.7,33.7c0,0.6,0.4,1.1,0.8,1
		c0.5-0.1,1.1-0.2,1.6-0.2c0.3,0,0.5,0.2,0.8,0.3c0.5,0.2,1,0.4,1.5,0.6c0.2,0.1,0.4,0.2,0.6,0.3c0.1,0,0.4,0,0.4,0
		c0.1-0.4,0.4-0.3,0.7-0.3c0.2,0,0.5,0,0.6-0.1c0.5-0.5,1.2-0.3,1.7-0.7c0.2-0.1,0.4-0.2,0.6-0.3c0.4-0.3,0.3-0.6,0.5-0.9
		c0.5-0.6,1.1-1.3,1.6-1.8s1.2-0.9,1.8-1.4c0.2-0.2,0.4-0.3,0.6-0.5c0.4-0.3,0.8-0.6,1.1-1c0.4-0.6,0.7-1.2,1-1.8
		c0-0.1,0.1-0.1,0.1-0.2c0.2-0.2,0.5-0.4,0.7-0.6c0.4-0.4,0.7-0.8,1.1-1.2c0.3-0.3,0.8-0.6,1.1-1c0.4-0.4,0.6-0.8,1-1.2
		c0.6-0.6,1.2-1.2,1.7-1.8c0.2-0.2,0.4-0.4,0.5-0.5c0.2-0.2,0.5-0.3,0.7-0.5c0.3-0.4,0.6-0.8,1.1-0.8c0.1,0,0.1-0.1,0.2-0.1
		c0.3-0.3,0.6-0.7,1.1-0.7c0.1,0,0.2-0.1,0.3-0.1c0.2-0.1,0.4-0.2,0.6-0.3c0.3-0.1,0.8-0.2,1-0.4c0.6-0.6,1.2-1.2,1.8-1.9
		c0.1-0.1,0-0.5,0-0.7c0,0-0.2,0-0.3,0c-0.5,0.2-1.1,0.5-1.6,0.7s-1,0.3-1.4,0.5c-0.5,0.2-1,0.6-1.5,0.8c-0.5,0.2-1,0.4-1.4,0.6
		c-0.1,0-0.1,0.1-0.2,0.1c-0.4,0.2-0.8,0.5-1.2,0.6c-0.5,0.2-0.9,0.4-1.4,0.6c0,0-0.1,0-0.1,0.1c-0.4,0.2-0.7,0.5-1.1,0.7
		c-0.2,0.1-0.4,0.3-0.7,0.4c-0.4,0.2-0.9,0.3-1.3,0.5c0,0-0.1,0-0.1,0.1c-0.4,0.3-0.7,0.5-1.1,0.8c-0.2,0.1-0.4,0.3-0.6,0.4
		c-0.5,0.1-0.7,0.7-1.3,0.6l0,0c-0.4,0.7-1.2,0.7-1.7,1.2c-0.3,0.3-0.6,0.4-0.9,0.6c-0.5,0.3-1,0.8-1.5,1.2
		c-0.6,0.4-1.2,0.9-1.8,1.3s-1.3,0.8-1.8,1.3c-0.4,0.4-1,0.7-1.4,1c-0.7,0.5-1.3,1.1-1.9,1.7c-0.6,0.6-1.2,1.2-1.9,1.7
		C37.9,32.6,37.6,33.1,37.7,33.7z M164,141c-0.2-0.8-0.3-1.5-0.5-2.3c0-0.1-0.1-0.2-0.2-0.2c-0.1,0-0.2,0-0.2,0.1
		c-0.2,0.4-0.3,0.7-0.5,1.1c0,0.1-0.1,0.1-0.1,0.2c-0.2,0.4-0.5,0.8-0.7,1.2s-0.3,0.9-0.6,1.3c-0.2,0.2-0.3,0.5-0.4,0.7
		c0,0.1-0.1,0.2-0.2,0.2c-0.3,0.2-0.6,0.3-0.9,0.5c-0.6,0.2-1.1,0.6-1.6,0.9c-0.5,0.3-0.9,0.5-1.3,0.9c-0.5,0.4-0.8,0.8-0.8,1.5
		c0,0.2,0,0.4-0.1,0.6c-0.1,0.4-0.2,0.8-0.3,1.2s0.2,1-0.4,1.2c0,0,0,0.1,0,0.2c-0.2,0.6-0.4,1.1-0.6,1.7c-0.1,0.3-0.3,0.7-0.4,1
		c-0.3,0.6-0.7,1.1-0.7,1.7c-0.1,1.2-0.3,2.3,0.3,3.5c0.4,0.8,1.3,1.1,1.9,0.4c0.1-0.2,0.4-0.3,0.5-0.5c0.4-0.4,0.8-0.8,1.3-1.2
		c0.2-0.2,0.5-0.4,0.7-0.6c0.3-0.2,0.7-0.4,1-0.7c0.5-0.5,1-1.1,1.3-1.7c0.3-0.6,0.9-1.2,1-1.9c0,0,0-0.1,0.1-0.1
		c0.4-0.2,0.4-0.7,0.4-1.1c0-0.2,0.1-0.4,0.1-0.6c0.1-0.3,0.2-0.6,0.3-0.9c0.2-0.7,0.3-1.5,0.5-2.2l0,0c0.6-0.3,0.3-0.9,0.4-1.3
		c0-0.2,0.1-0.3,0.1-0.5c0.1-0.2,0.2-0.4,0.3-0.7c0.1-0.6,0-1.2,0.1-1.8C163.7,142.2,163.9,141.6,164,141z M82.9,30.6
		c-0.1,0-0.1,0-0.2-0.1c0,0.3-0.1,0.7-0.1,1c0,1.5,0,3,0,4.6c0,0.2-0.1,0.4-0.2,0.5c-0.2,0.1-0.5,0.1-0.6,0
		c-0.4-0.5-1.1-0.3-1.6-0.7c-0.7-0.5-1.4,0.1-1.6,1c0,0.1,0,0.2-0.1,0.2c-0.4,0.2-0.3,0.5-0.4,0.8c0,0.2-0.2,0.3-0.2,0.5
		s-0.1,0.4,0,0.5c0.2,0.4,0.5,0.7,0.7,1.1c0.2,0.2,0.3,0.5,0.5,0.6c0.1,0.1,0.3,0,0.4-0.1c0.5-0.5,0.9-1.1,1.4-1.6s1-0.9,1.6-1.4
		c0,0.2,0.1,0.3,0.1,0.5c0,0.4,0,0.8,0,1.3c0,1.4,0,1.4,1.4,1.3c0.3,0,0.6,0,0.9-0.1s0.5-0.2,0.8-0.3c0.4-0.1,1,0,1.3-0.2
		c0.5-0.3,0.9-0.3,1.3-0.3c1.1,0.1,1.8-0.6,2.7-1.1c0.4-0.2,0.7-0.7,1.1-1.1c0.3-0.3,0.4-0.5,0.1-0.8s-0.5-0.6-0.8-0.9
		c-0.2-0.2-0.3-0.3-0.5-0.5c-0.3-0.3-0.5-0.5-0.8-0.8c-0.3-0.4-0.6-0.8-1-1.1s-0.7-0.5-0.8-1c0-0.1,0-0.2-0.1-0.2
		c-0.4-0.3-0.7-0.7-0.9-1.1c-0.1-0.2-0.2-0.5-0.5-0.7c-0.4-0.3-0.8-0.7-0.9-1.3c-0.7-0.1-1.5,0.2-2,0.6
		C83.8,30.1,83.3,30.4,82.9,30.6z M9.3,95.3c0.2-0.5,0.5-1,0.5-1.5c0.1-1.2,0-2.5,0-3.7c-0.3,0-0.5,0-0.8,0c-0.1,1,0,2-0.4,3
		c-0.3,0.6,0,1.5,0,2.2C8.9,95.3,9.2,95.3,9.3,95.3z"/>
</g>
</svg>
