<svg width="22" height="16" viewBox="0 0 22 16" fill="none" xmlns="http://www.w3.org/2000/svg">
<path fill-rule="evenodd" clip-rule="evenodd" d="M19.1555 2.39591C19.1555 2.39591 21.788 7.14791 21.788 13.0105C21.788 13.0105 20.2339 15.6505 16.1934 15.778C16.1934 15.778 15.5342 14.9951 14.9859 14.3032C17.3816 13.6296 18.2958 12.1366 18.2958 12.1366C17.5459 12.6282 16.8334 12.9741 16.1934 13.2108C12.2531 14.8584 7.86911 14.2945 4.78218 12.5736C4.77298 12.5673 4.73762 12.547 4.68556 12.5172C4.53222 12.4293 4.23405 12.2583 4.03338 12.1184C4.03338 12.1184 4.91018 13.5749 7.23338 14.2668C6.68404 14.9587 6.00778 15.778 6.00778 15.778C1.96618 15.6505 0.430176 13.0105 0.430176 13.0105C0.430176 7.14791 3.06378 2.39591 3.06378 2.39591C5.69738 0.429567 8.20191 0.484188 8.20191 0.484188L8.38538 0.702671C5.09364 1.64943 3.57578 3.08777 3.57578 3.08777C3.57578 3.08777 3.97791 2.86929 4.65418 2.55977C8.86858 0.716915 13.9704 0.717343 18.3139 3.08777C18.3139 3.08777 16.8696 1.72226 13.7614 0.775498L14.0174 0.484188C14.0174 0.484188 16.5219 0.429567 19.1555 2.39591ZM7.68991 7.27536C6.64778 7.27536 5.82538 8.18571 5.82538 9.29633C5.82538 10.4069 6.66591 11.3173 7.68991 11.3173C8.73204 11.3173 9.55551 10.4069 9.55551 9.29633C9.57364 8.18571 8.73204 7.27536 7.68991 7.27536ZM16.2296 9.29633C16.2296 10.4069 15.4062 11.3173 14.364 11.3173C13.34 11.3173 12.4995 10.4069 12.4995 9.29633C12.4995 8.18571 13.3219 7.27536 14.364 7.27536C15.4062 7.27536 16.2296 8.18571 16.2296 9.29633Z" fill="white"/>
</svg>
