<svg width="192" height="41" viewBox="0 0 192 41" fill="none" xmlns="http://www.w3.org/2000/svg">
    <path fill-rule="evenodd" clip-rule="evenodd" d="M98.6701 40.8761C99.7647 40.8761 100.314 40.4509 100.385 39.6443H99.6666C99.5999 40.0973 99.2547 40.2761 98.6701 40.2761C97.9561 40.2761 97.6501 40.0138 97.6501 39.4416C97.6501 38.8734 97.9521 38.6151 98.6701 38.6151C99.2586 38.6151 99.5999 38.79 99.6666 39.239H100.385C100.314 38.4363 99.7647 38.0151 98.6701 38.0151C97.4617 38.0151 96.9439 38.5198 96.9439 39.4416C96.9439 40.3675 97.4617 40.8761 98.6701 40.8761ZM88.3363 40.8364C89.0464 40.8364 89.6702 40.3913 89.6702 39.4456C89.6702 38.4999 89.0464 38.0549 88.3363 38.0549H86.3433V40.8364H88.3363ZM88.0695 40.2364H87.0494V38.6549H88.0695C88.6031 38.6549 88.964 38.7701 88.964 39.4456C88.964 40.1211 88.6031 40.2364 88.0695 40.2364ZM94.79 40.2681V40.8364H91.8868V38.0549H94.79V38.6231H92.593V39.1873H94.79V39.7039H92.593V40.2681H94.79ZM105.504 40.2681V40.8364H102.601V38.0549H105.504V38.6231H103.307V39.1873H105.504V39.7039H103.307V40.2681H105.504ZM108.427 40.8364V38.7502L110.299 40.8364H111.26V38.0549H110.554V40.145L108.678 38.0549H107.721V40.8364H108.427ZM115.493 38.6549V40.8364H114.787V38.6549H113.453V38.0549H116.827V38.6549H115.493ZM119.726 40.8364V40.0933H120.864L121.307 40.8364H122.139L121.633 40.0099C122.002 39.8628 122.229 39.5291 122.229 39.0761C122.229 38.4562 121.802 38.0549 121.178 38.0549H119.02V40.8364H119.726ZM119.726 39.4933H120.982C121.193 39.4933 121.523 39.4933 121.523 39.0761C121.523 38.6549 121.193 38.6549 120.982 38.6549H119.726V39.4933ZM125.026 40.8364L125.321 40.2443H126.965L127.259 40.8364H128.04L126.619 38.0549H125.666L124.25 40.8364H125.026ZM125.584 39.7118H126.702L126.145 38.5834L125.584 39.7118ZM132.995 40.8364V40.2364H130.876V38.0549H130.17V40.8364H132.995ZM135.231 38.0549H135.937V40.8364H135.231V38.0549ZM141.292 40.8364V40.2364H139.205L141.292 38.6549V38.0549H138.193V38.6549H140.276L138.193 40.2364V40.8364H141.292ZM146.451 40.2681V40.8364H143.548V38.0549H146.451V38.6231H144.254V39.1873H146.451V39.7039H144.254V40.2681H146.451ZM150.661 40.8364C151.371 40.8364 151.995 40.3913 151.995 39.4456C151.995 38.4999 151.371 38.0549 150.661 38.0549H148.668V40.8364H150.661ZM149.374 40.2364H150.394C150.928 40.2364 151.289 40.1211 151.289 39.4456C151.289 38.7701 150.928 38.6549 150.394 38.6549H149.374V40.2364ZM158.715 40.8364V39.9662H160.677V39.3622H158.715V38.6549H160.912V38.0549H158.009V40.8364H158.715ZM163.106 38.0549H163.812V40.8364H163.106V38.0549ZM166.793 40.8364V38.7502L168.665 40.8364H169.626V38.0549H168.92V40.145L167.044 38.0549H166.087V40.8364H166.793ZM172.827 40.2443L172.533 40.8364H171.756L173.173 38.0549H174.126L175.546 40.8364H174.765L174.471 40.2443H172.827ZM174.208 39.7118H173.09L173.651 38.5834L174.208 39.7118ZM178.383 38.7502V40.8364H177.676V38.0549H178.634L180.509 40.145V38.0549H181.215V40.8364H180.254L178.383 38.7502ZM185.138 40.8761C186.233 40.8761 186.782 40.4509 186.853 39.6443H186.135C186.068 40.0973 185.723 40.2761 185.138 40.2761C184.424 40.2761 184.118 40.0138 184.118 39.4416C184.118 38.8734 184.421 38.6151 185.138 38.6151C185.727 38.6151 186.068 38.79 186.135 39.239H186.853C186.782 38.4363 186.233 38.0151 185.138 38.0151C183.93 38.0151 183.412 38.5198 183.412 39.4416C183.412 40.3675 183.93 40.8761 185.138 40.8761ZM191.973 40.2681V40.8364H189.07V38.0549H191.973V38.6231H189.776V39.1873H191.973V39.7039H189.776V40.2681H191.973Z" fill="#FFD149"/>
    <path fill-rule="evenodd" clip-rule="evenodd" d="M75.9459 32.0098L86.5117 11.3142H80.5832L72.3359 28.0777L64.0887 11.3142H58.1602L68.726 32.0098H75.9459ZM88.2362 32.0098L90.4374 27.6046H102.735L104.936 32.0098H110.777L100.152 11.3142H93.0202L82.425 32.0098H88.2362ZM92.3864 23.7316H100.815L96.6156 15.1946L92.3864 23.7316ZM118.813 32.0098V26.4811H127.235L130.516 32.0098H136.672L132.926 25.8603C135.656 24.7664 137.34 22.2829 137.34 18.9125C137.34 14.3003 134.175 11.3142 129.558 11.3142H113.586V32.0098H118.813ZM118.695 21.9207L128.19 21.9204C129.754 21.9145 131.976 21.7824 131.976 18.8311C131.976 15.8496 129.751 15.7181 128.187 15.7123L128.044 15.712L127.975 15.712H118.695V21.9207ZM162.371 32.0098V27.782H145.942V23.5838H160.912V19.7403H145.942V15.542H162.371V11.3142H140.661V32.0098H162.371ZM170.942 16.4881V32.0098H165.692V11.3142H172.808L186.75 26.8655V11.3142H192V32.0098H184.854L170.942 16.4881Z" fill="#DDDDDD"/>
    <path fill-rule="evenodd" clip-rule="evenodd" d="M42.2235 22.1408C42.4095 22.4997 42.707 23.083 42.8186 23.9804C42.893 24.6535 42.8186 25.1919 42.6326 25.9098L42.6283 25.9338C42.4449 26.9516 42.3325 27.5756 42.0004 28.2879C41.9375 28.4246 41.8191 28.6795 41.6498 28.9639C41.585 29.0137 41.4358 29.1581 41.2532 29.3347L41.2531 29.3347C40.8481 29.7264 40.279 30.2768 40.1037 30.307C40.0649 30.307 40.0194 30.3084 39.9679 30.3099C39.7231 30.3172 39.3438 30.3285 38.9136 30.2173C38.8764 30.2173 38.6904 30.1724 38.4673 30.0827C38.207 29.9929 37.8351 29.8135 37.426 29.4545C37.0169 29.0956 36.0559 27.7869 35.9071 27.4728L35.9071 27.4727C35.7955 27.2036 35.7584 27.1138 35.6468 26.8895C35.6468 26.8895 34.9144 26.0402 34.2078 25.3671C33.6499 24.8287 33.1292 24.6043 32.683 24.4697C31.3739 24.0009 30.9806 24.0884 30.6326 24.1659C30.3479 24.2293 30.0936 24.2859 29.3928 24.0253C28.4299 23.6672 25.31 19.7932 25.0598 18.8415C24.8097 17.8898 24.7463 16.3952 24.7463 16.3952C24.7463 16.3952 23.2375 18.8278 23.2375 20.8158C23.2375 22.5824 24.2886 24.4697 24.2886 24.4697C24.2886 24.4697 33.751 38.5525 34.7923 38.8666C33.2871 39.7482 31.9197 40.2972 30.6924 40.6171C30.3962 40.6943 17.5241 19.2125 17.5241 19.2125C17.5241 19.2125 28.9475 40.9468 28.5392 40.9749C27.579 41.0409 26.7371 40.9699 26.0153 40.8409C24.8737 40.6264 23.3936 40.3227 21.7988 39.9956L21.7987 39.9955C17.055 39.0223 11.2956 37.8408 10.4049 38.1766C10.2691 37.6032 10.0156 36.8383 9.72121 35.9503C9.04814 33.9199 8.16174 31.246 7.9821 28.7463C7.83315 26.6736 7.77979 26.2739 7.77979 26.2739L9.12659 21.7161L9.93284 18.1232C9.93284 18.1232 12.9266 12.0917 14.6095 10.5196C15.7544 9.45 16.5806 8.53339 17.0666 7.99419C17.295 7.74083 17.4482 7.5708 17.5241 7.50739C18.2357 6.94716 18.9081 6.38535 19.5616 5.83946L19.5616 5.83943C22.1529 3.67461 24.4446 1.76006 27.682 1.18673C28.1244 1.10863 28.6005 0.842719 29.0667 0.582362C29.9729 0.0762559 30.8415 -0.408877 31.3518 0.547228C31.3584 0.559638 31.394 1.48366 31.4293 2.39735L31.4293 2.39766L31.4293 2.39802C31.4637 3.29105 31.4978 4.174 31.504 4.18605C31.618 4.40747 31.7093 4.62184 31.773 4.82116C32.0769 5.772 33.038 6.64196 34.0979 7.60117C34.728 8.17154 35.3931 8.77346 35.9755 9.44272C36.0129 9.49684 36.0533 9.55278 36.0958 9.61163L36.0958 9.61166C36.2647 9.84551 36.4667 10.1253 36.645 10.5196C36.9053 11.058 37.0169 11.6862 37.0169 11.7759C37.054 11.9553 37.0541 11.9554 37.0912 12.1795L37.0912 12.1796L37.0912 12.1798C37.1013 12.216 37.114 12.2816 37.1309 12.3686C37.1766 12.6045 37.2529 12.9978 37.3888 13.3912C37.5375 13.8848 37.7235 14.2438 37.8722 14.4681C37.9828 14.6631 38.2101 15.0552 38.5088 15.5704C39.5159 17.3079 41.3343 20.445 42.2235 22.1408ZM33.1127 21.8187L33.1001 21.8083L33.0973 21.8061C31.3007 20.3382 29.9403 19.2267 29.9511 19.2125C29.998 19.1511 31.3097 18.099 32.683 20.1586C33.5487 21.4571 34.4134 22.5863 35.2454 23.5623C34.5067 22.9576 33.7799 22.3638 33.1127 21.8187ZM33.6308 6.04482C33.6932 6.27346 33.6923 6.4586 33.5924 6.39969C32.8364 5.9537 31.9692 4.16017 31.9692 4.16017C31.9692 4.16017 31.8295 2.00839 31.9157 1.94518C32.4944 1.52092 33.0405 1.65859 33.3961 2.32491C33.4004 2.33292 33.4202 2.70759 33.4472 3.21669C33.5028 4.26743 33.5888 5.8908 33.6308 6.04482ZM34.5025 14.2829L32.3784 13.1646C31.9585 12.7786 31.6961 12.1352 31.6961 11.4275V10.5268C31.6961 10.1408 32.4163 9.78832 32.5822 10.11L34.845 13.9366C35.2123 14.5156 35.0454 14.5156 34.5025 14.2829ZM42.1711 25.2011C42.1736 25.1835 42.1726 25.1653 42.2215 24.8267C42.2963 24.3086 41.9287 23.9012 41.6826 24.0513C41.4536 24.2148 41.1301 25.0642 41.2282 25.3094C41.3591 25.6364 41.5803 26.3829 41.5803 26.4647C41.629 26.6625 41.8052 26.6625 41.9062 26.4326C41.9457 26.2848 42.0046 25.999 42.0595 25.7326C42.0956 25.557 42.1301 25.3899 42.1561 25.2763C42.1674 25.2197 42.1697 25.2105 42.1711 25.2011Z" fill="#DDDDDD"/>
    <path d="M18.0789 18.7828C18.0789 18.7828 16.1041 17.114 11.2184 19.5532C8.06152 21.1294 7.0385 24.478 4.96056 27.3265C2.8827 30.1747 1.7595 30.0522 1.7595 30.0522C1.7595 30.0522 6.32466 31.8015 10.5198 29.3519C14.7148 26.902 16.5339 18.7828 16.5339 18.7828C16.5339 18.7828 18.0789 18.7828 18.0789 18.7828Z" fill="#DDDDDD"/>
    <path fill-rule="evenodd" clip-rule="evenodd" d="M1.75928 30.0522C1.75928 30.0522 3.24422 30.2744 5.7915 29.9036C8.33878 29.5329 9.36727 28.9097 9.82811 28.8179C10.2889 28.7261 11.2417 28.8179 11.2417 28.8179C11.2417 28.8179 10.3332 29.5252 9.34106 29.9036C8.34896 30.2821 7.8252 30.4778 6.72819 30.6021C5.63119 30.7264 4.96931 30.6829 3.64074 30.53C2.31216 30.377 1.75928 30.0522 1.75928 30.0522Z" fill="#BEBEBE"/>
    <path d="M14.3345 15.2796C10.7344 16.0527 8.54939 18.7937 5.5298 20.8919C2.51039 22.9899 1.47467 22.6653 1.47467 22.6653C1.47467 22.6653 5.23526 25.083 10.1469 23.7441C15.0585 22.405 19.9063 14.0834 14.3345 15.2796Z" fill="#DDDDDD"/>
    <path fill-rule="evenodd" clip-rule="evenodd" d="M1.47461 22.6653C1.47461 22.6653 2.86531 23.1745 3.94269 23.2936C5.02006 23.4128 5.42357 23.1469 6.22153 23.4504C7.01949 23.7538 6.98891 24.164 6.98891 24.164C6.98891 24.164 6.42458 24.1898 5.51527 24.0601C4.60596 23.9305 4.58049 23.9083 3.85649 23.7174C3.1325 23.5264 3.21241 23.5515 2.58963 23.2884C1.96685 23.0254 1.47461 22.6653 1.47461 22.6653Z" fill="#BEBEBE"/>
    <path d="M18.2061 10.7495C14.4416 10.8024 11.2639 13.2842 7.5366 14.8919C3.8096 16.4993 2.94159 15.9247 2.94159 15.9247C2.94159 15.9247 5.60625 19.347 10.8539 18.9683C16.1015 18.5894 24.0322 10.6678 18.2061 10.7495Z" fill="#DDDDDD"/>
    <path fill-rule="evenodd" clip-rule="evenodd" d="M2.94189 15.9248C2.94189 15.9248 3.97278 16.3268 4.90558 16.6944C5.83838 17.0621 6.16346 17.0623 6.66337 17.542C7.16328 18.0218 8.17233 18.8272 8.17233 18.8272C8.17233 18.8272 6.76741 18.5741 6.09734 18.2587C5.42726 17.9433 5.36056 17.8951 4.80828 17.542C4.25601 17.189 4.01413 16.9726 3.58582 16.5959C3.15752 16.2193 2.94189 15.9248 2.94189 15.9248Z" fill="#BEBEBE"/>
    <path fill-rule="evenodd" clip-rule="evenodd" d="M28.6492 41.0001C28.6492 41.0001 27.3112 38.0041 25.9243 35.3056C24.5374 32.6072 21.0073 25.8516 21.0073 25.8516L17.5239 19.2126L21.4262 39.9345L26.8895 41.0001L28.6492 41.0001Z" fill="#BEBEBE"/>
    <path fill-rule="evenodd" clip-rule="evenodd" d="M34.7921 38.8666C34.7921 38.8666 32.571 36.1651 28.5805 30.5871C24.59 25.0091 24.3252 24.4566 24.3252 24.4566L23.8047 23.2454C23.6445 22.8725 23.5207 22.485 23.4349 22.0883L23.3914 21.8867C23.2738 21.3428 23.2468 20.7833 23.3113 20.2306V20.2306C23.3694 19.7333 23.501 19.2473 23.7018 18.7886L24.7662 16.3564L22.3364 20.2842L30.6923 40.617C30.6923 40.617 31.3174 40.5192 32.7265 39.9138C34.1355 39.3083 34.7921 38.8666 34.7921 38.8666Z" fill="#BEBEBE"/>
    <path fill-rule="evenodd" clip-rule="evenodd" d="M24.7461 16.3953C24.7461 16.3953 24.7596 17.0597 25.3972 18.0266C26.0348 18.9934 28.3413 21.9966 29.167 22.7979C29.9927 23.5991 31.6668 24.1693 31.6668 24.1693C31.6668 24.1693 31.2595 24.1016 31.1538 24.1016C30.9844 24.1016 30.7974 24.1407 30.5693 24.1769C30.0697 24.2562 29.9647 24.2172 29.3926 24.0253C28.8205 23.8335 27.6759 22.4956 26.5037 21.1358C25.3315 19.776 25.1795 19.4758 25.0094 18.8129C24.8393 18.15 24.7461 16.3953 24.7461 16.3953Z" fill="#BEBEBE"/>
    <path fill-rule="evenodd" clip-rule="evenodd" d="M35.5405 23.8308L29.614 19.1068L30.6749 19.4432L35.5405 23.8308Z" fill="#BEBEBE"/>
    <path fill-rule="evenodd" clip-rule="evenodd" d="M33.4932 6.32993L32.1769 1.78857C32.1769 1.78857 32.0731 1.8291 31.9681 1.88672C31.863 1.94435 31.8047 1.91755 31.8047 1.91755C31.8047 1.91755 31.7803 2.35121 31.8047 2.97189C31.8291 3.59257 31.8944 4.20254 31.8944 4.20254C31.8944 4.20254 32.176 4.83032 32.6903 5.52846C33.2045 6.2266 33.4932 6.32993 33.4932 6.32993Z" fill="#BEBEBE"/>
    <path fill-rule="evenodd" clip-rule="evenodd" d="M31.6504 8.77539L35.3353 14.8175L32.2309 9.12469L31.6504 8.77539Z" fill="#BEBEBE"/>
    <path fill-rule="evenodd" clip-rule="evenodd" d="M41.0044 24.8877C41.0044 24.8877 41.5813 25.8599 41.713 26.2249C41.8448 26.5899 41.713 26.9017 41.713 26.9017" fill="#BEBEBE"/>
    <path d="M30.8974 6.73049C32.305 7.47029 32.9121 7.27612 34.0596 7.3542C35.3953 7.44508 36.6257 8.25613 36.6257 8.25613C36.6257 8.25613 35.5701 8.02402 34.742 8.06171C32.473 8.16497 30.8746 8.88792 28.6331 8.37348C25.3585 7.6218 28.6317 5.53966 30.8974 6.73049Z" fill="#DDDDDD"/>
    <path d="M29.7636 8.17967C31.1713 7.43987 31.7783 7.63403 32.9258 7.55596C34.2615 7.46508 35.4919 6.65402 35.4919 6.65402C35.4919 6.65402 34.4363 6.88613 33.6082 6.84845C31.3393 6.74519 29.7408 6.02224 27.4993 6.53668C24.2247 7.28836 27.498 9.3705 29.7636 8.17967Z" fill="#DDDDDD"/>
    <path d="M33.0226 8.947C34.0895 9.7679 36.3909 8.947 36.3909 8.947C36.3909 8.947 35.4237 8.76355 34.8231 8.18364C34.2073 7.58917 32.9654 7.58984 32.4887 7.01703C31.6913 6.05887 32.1062 8.24178 33.0226 8.947Z" fill="#DDDDDD"/>
</svg>
