<?xml version="1.0" encoding="utf-8"?>
<!-- Generator: Adobe Illustrator 25.2.1, SVG Export Plug-In . SVG Version: 6.00 Build 0)  -->
<svg version="1.1" id="Ebene_1" xmlns="http://www.w3.org/2000/svg" xmlns:xlink="http://www.w3.org/1999/xlink" x="0px" y="0px"
	 viewBox="0 0 30 31" style="enable-background:new 0 0 30 31;" xml:space="preserve">
<path style="fill:#DBDBDB;" d="M26.8,0.1H3.2C1.4,0.1,0,1.6,0,3.4v23.6c0,1.8,1.4,3.2,3.2,3.2h23.6c1.8,0,3.2-1.4,3.2-3.2V3.4
	C30,1.6,28.6,0.1,26.8,0.1z M18.6,25.8c-0.6,0.1-0.8-0.2-0.8-0.5c0-0.4,0-2.2,0-3.7c0-1-0.3-1.7-0.8-2.1c2.5-0.3,5.1-0.6,5.1-4.9
	c0-1.2-0.4-1.8-1.1-2.6c0.1-0.3,0.5-1.5-0.1-3c-0.9-0.3-3.1,1.2-3.1,1.2C16.9,10,16,9.8,15,9.8c-0.9,0-1.9,0.1-2.8,0.4
	c0,0-2.1-1.5-3.1-1.2c-0.6,1.5-0.2,2.7-0.1,3c-0.7,0.8-1,1.4-1,2.6c0,4.3,2.5,4.6,5,4.9c-0.3,0.3-0.6,0.8-0.7,1.5
	c-0.6,0.3-2.3,0.8-3.2-0.9C8.5,19,7.4,19,7.4,19c-1.1,0-0.1,0.7-0.1,0.7C8,20,8.5,21.3,8.5,21.3c0.6,2,3.8,1.3,3.8,1.3
	c0,0.9,0,2.4,0,2.7c0,0.3-0.2,0.6-0.8,0.5C7.1,24.4,4,20.2,4,15.2C4,9.1,8.7,4.4,14.9,4.4C21,4.4,26,9.1,26,15.2
	C26,20.2,23,24.4,18.6,25.8z M12,21.7c-0.1,0-0.2,0-0.3-0.1c0-0.1,0.1-0.2,0.2-0.2c0.1,0,0.2,0,0.3,0.1C12.2,21.6,12.1,21.7,12,21.7
	z M11.4,21.7c0,0.1-0.1,0.2-0.2,0.2c-0.1,0-0.2-0.1-0.2-0.2c0-0.1,0.1-0.2,0.2-0.2C11.2,21.5,11.4,21.6,11.4,21.7z M10.4,21.6
	c0,0.1-0.2,0.1-0.3,0.1c-0.1,0-0.2-0.1-0.2-0.2c0-0.1,0.2-0.1,0.3-0.1C10.4,21.4,10.5,21.5,10.4,21.6z M9.6,21.3
	c-0.1,0.1-0.2,0.1-0.3,0c-0.1-0.1-0.1-0.2-0.1-0.3c0.1-0.1,0.2-0.1,0.3,0C9.6,21.1,9.7,21.2,9.6,21.3z M9,20.6c-0.1,0-0.2,0-0.2-0.1
	c-0.1-0.1-0.1-0.2,0-0.3c0.1-0.1,0.2,0,0.2,0.1C9.1,20.5,9.1,20.6,9,20.6z M8.6,20c-0.1,0.1-0.2,0-0.2,0c-0.1-0.1-0.1-0.2,0-0.2
	c0.1-0.1,0.2,0,0.2,0C8.6,19.8,8.6,19.9,8.6,20z M8.1,19.5c0,0.1-0.1,0.1-0.2,0c-0.1,0-0.1-0.1-0.1-0.2c0,0,0.1-0.1,0.2,0
	C8.1,19.4,8.2,19.4,8.1,19.5z"/>
</svg>
