<svg width="32" height="32" viewBox="0 0 32 32" fill="none" xmlns="http://www.w3.org/2000/svg">
<path fill-rule="evenodd" clip-rule="evenodd" d="M16 0C7.1648 0 0 7.1648 0 16C0 24.8352 7.1648 32 16 32C24.8352 32 32 24.8352 32 16C32 7.1648 24.8384 0 16 0ZM7.89456 16.5375L7.96176 16.4287L12.125 9.91674C12.1858 9.82394 12.3298 9.83354 12.3746 9.93594C13.069 11.4943 13.6706 13.4335 13.389 14.6399C13.2706 15.1359 12.941 15.8079 12.5698 16.4287C12.5218 16.5183 12.4706 16.6079 12.413 16.6943C12.3874 16.7327 12.3426 16.7551 12.2946 16.7551H8.01616C7.90096 16.7551 7.83376 16.6303 7.89456 16.5375ZM26.3586 18.9121C26.4098 18.8897 26.445 18.8385 26.445 18.7777V17.7473C26.445 17.6513 26.3554 17.5841 26.2626 17.6097L21.3954 19.0177C21.3698 19.0241 21.3474 19.0369 21.3282 19.0593C20.8102 19.63 20.3704 20.0143 20.2506 20.119L20.2402 20.1281C19.9362 20.3873 19.5618 20.5249 19.1682 20.5249H17.405V18.7297H18.8066C18.8418 18.7297 18.877 18.7169 18.9026 18.6913L19.085 18.5281C19.1045 18.5094 19.1248 18.4901 19.1461 18.4699C19.2087 18.4104 19.2798 18.3429 19.3634 18.2593C19.3759 18.2468 19.3888 18.234 19.4019 18.221C19.456 18.1674 19.5147 18.1092 19.5714 18.0449C19.645 17.9745 19.7154 17.8945 19.7794 17.8177C19.8914 17.6993 19.997 17.5777 20.1058 17.4465C20.1858 17.3601 20.2562 17.2641 20.3266 17.1681C20.4066 17.0753 20.4834 16.9729 20.557 16.8737C20.5861 16.8299 20.6184 16.7851 20.6515 16.7393C20.6764 16.7047 20.7018 16.6695 20.7266 16.6337C20.7333 16.6232 20.7401 16.6126 20.7469 16.6019C20.7919 16.5318 20.8381 16.46 20.877 16.3905C21.0146 16.1793 21.1298 15.9489 21.229 15.7217C21.268 15.6363 21.2996 15.5491 21.3308 15.4629C21.3406 15.436 21.3503 15.4091 21.3602 15.3825C21.3986 15.2641 21.4306 15.1553 21.4562 15.0401C21.5138 14.7649 21.5266 14.4897 21.501 14.2177C21.4946 14.1313 21.4882 14.0481 21.469 13.9713V13.9585C21.4626 13.9009 21.4498 13.8401 21.4306 13.7825C21.373 13.5137 21.2802 13.2481 21.1618 12.9857C21.1234 12.8897 21.0786 12.7905 21.0338 12.7009C20.9282 12.5057 20.8194 12.3105 20.6914 12.1217C20.6669 12.0803 20.638 12.0377 20.6092 11.9953C20.5891 11.9658 20.569 11.9363 20.5506 11.9073C20.4514 11.7569 20.3426 11.6129 20.237 11.4753C20.1935 11.4174 20.145 11.3594 20.0959 11.3009C20.0582 11.256 20.0203 11.2108 19.9842 11.1649C19.8978 11.0593 19.8146 10.9633 19.7282 10.8641C19.421 10.5185 19.101 10.2081 18.8162 9.94249C18.7618 9.88809 18.7042 9.83689 18.6466 9.78569C18.4258 9.58409 18.221 9.40809 18.0514 9.27049C18.0155 9.24152 17.982 9.21314 17.9501 9.18613C17.9081 9.15049 17.8688 9.11722 17.8306 9.08809C17.7474 9.02409 17.6802 8.97289 17.6354 8.94089C17.6257 8.93363 17.6142 8.92819 17.6036 8.9232C17.6002 8.9216 17.5969 8.92005 17.5938 8.91849L17.405 8.86729V7.31529C17.405 7.06249 17.3026 6.83529 17.1394 6.66889C16.9794 6.50249 16.7522 6.40009 16.5026 6.40009C16.0002 6.40009 15.597 6.80969 15.597 7.31529V8.35849L15.5042 8.33289L15.2482 8.26249L15.0178 8.19529H15.0114H15.005L13.245 7.71849C13.1682 7.69609 13.1042 7.78249 13.1426 7.85289L13.4242 8.37129C13.4391 8.40861 13.4584 8.44701 13.4782 8.48649C13.4924 8.51474 13.5068 8.54354 13.5202 8.57289C13.5682 8.66569 13.613 8.76169 13.6578 8.85769C13.6962 8.94409 13.7346 9.02729 13.7826 9.12009C13.8028 9.16552 13.8234 9.2116 13.8445 9.25844C13.9167 9.41946 13.993 9.58946 14.0674 9.77289C14.1346 9.92649 14.1986 10.0833 14.2562 10.2465C14.4162 10.6561 14.5634 11.0945 14.6946 11.5425C14.7356 11.6744 14.7686 11.7983 14.8034 11.9289C14.8066 11.9409 14.8098 11.9528 14.813 11.9649L14.8322 12.0449C14.8834 12.2529 14.9282 12.4609 14.9634 12.6689L14.9667 12.6872C14.9912 12.8217 15.0151 12.9533 15.0274 13.0849L15.0274 13.0849C15.0466 13.2417 15.0658 13.3985 15.0722 13.5553C15.085 13.6961 15.0914 13.8465 15.0914 13.9905C15.0914 14.3553 15.0594 14.7073 14.9826 15.0401C14.957 15.1361 14.9282 15.2385 14.8962 15.3377C14.8695 15.4338 14.8339 15.5321 14.7968 15.6345C14.7894 15.6548 14.782 15.6754 14.7746 15.6961C14.764 15.722 14.7538 15.7483 14.7436 15.7747C14.7261 15.8202 14.7084 15.866 14.6882 15.9105C14.525 16.3009 14.3234 16.6913 14.1154 17.0561C13.8082 17.5969 13.501 18.0705 13.2866 18.3777C13.2546 18.4225 13.229 18.4608 13.2034 18.4992L13.2034 18.4993C13.1362 18.5953 13.2066 18.7297 13.3218 18.7297H15.597V20.5249H13.2962C12.6786 20.5249 12.1058 20.1761 11.8306 19.6161C11.6866 19.3345 11.629 19.0241 11.6642 18.7233C11.6706 18.6305 11.6034 18.5473 11.5106 18.5473H6.86417C6.78417 18.5473 6.72017 18.6113 6.72017 18.6881V18.7841C6.72017 21.7505 9.11377 24.1537 12.0706 24.1537H20.4098C21.9729 24.1537 22.8597 22.7306 23.7317 21.3313C23.9754 20.9403 24.218 20.5511 24.4738 20.1953C24.9314 19.5585 26.0354 19.0497 26.3586 18.9121Z" fill="white"/>
</svg>
