<?xml version="1.0" encoding="UTF-8"?>
<svg width="165px" height="47px" viewBox="0 0 165 47" version="1.1" xmlns="http://www.w3.org/2000/svg" xmlns:xlink="http://www.w3.org/1999/xlink">
    <title>VarenXLogo</title>
    <g id="RenswapMVP" stroke="none" stroke-width="1" fill="none" fill-rule="evenodd">
        <g id="Swap(BTC-&gt;DOGE)GatewayPending" transform="translate(-46.000000, -60.000000)">
            <g id="VarenXLogo" transform="translate(46.000000, 61.000000)">
                <g id="DarkHorse-Copy" transform="translate(0.000000, 12.240000)" fill="#DDDDDD" fill-rule="nonzero">
                    <g id="Group">
                        <path d="M17.7133845,20.52 L28.2361872,0 L22.3317257,0 L14.1180936,16.6212 L5.90446151,0 L0,0 L10.5228027,20.52 L17.7133845,20.52 Z M29.9536477,20.52 L32.1458982,16.1521714 L44.3932714,16.1521714 L46.5855219,20.52 L52.4022934,20.52 L41.8210307,0 L34.7181389,0 L24.1661062,20.52 L29.9536477,20.52 Z M42.4814709,12.312 L34.0869287,12.312 L38.2989271,3.8475 L42.4814709,12.312 Z M60.4062471,20.52 L60.4062471,15.0382286 L68.7933258,15.0382286 L72.0613944,20.52 L78.1926381,20.52 L74.4618342,14.4226286 C77.1804045,13.338 78.8578202,10.8756 78.8578202,7.53377143 C78.8578202,2.96074286 75.7054355,0 71.1070027,0 L55.2004742,0 L55.2004742,20.52 L60.4062471,20.52 Z M69.744596,10.516225 L60.2880755,10.5165 L60.2880755,4.3605 L69.5301809,4.3605 L69.5995387,4.3605 L69.5995387,4.3605 L69.7413758,4.36076556 C71.2991277,4.36651931 73.5158389,4.49693769 73.5158389,7.45308768 C73.5158389,10.3793323 71.3021806,10.5103582 69.744596,10.516225 L69.744596,10.516225 Z M103.787067,0 L103.787067,4.19194286 L87.4242408,4.19194286 L87.4242408,8.35457143 L102.334048,8.35457143 L102.334048,12.1654286 L87.4242408,12.1654286 L87.4242408,16.3280571 L103.787067,16.3280571 L103.787067,20.52 L82.1647611,20.52 L82.1647611,0 L103.787067,0 Z M114.181679,0 L128.066544,15.4193143 L128.066544,0 L133.295154,0 L133.295154,20.52 L126.178435,20.52 L112.322618,5.13 L112.322618,20.52 L107.094007,20.52 L107.094007,0 L114.181679,0 Z" id="VAREN"></path>
                    </g>
                </g>
                <polygon id="Path-3" stroke="#FFD149" stroke-width="0.5" points="97.1718062 0 113.231295 0 125.1889 10.6273852 125.1889 20.1659304 115.476409 9.36799743 107.726815 9.36799743"></polygon>
                <polygon id="Path-4" stroke="#FFD149" stroke-width="0.5" points="147.875756 0 164 0 138.486135 22.5 164 45 147.875756 45 136.197883 34.5781235 136.197883 10.4715721"></polygon>
                <polygon id="Path-5" stroke="#FFD149" stroke-width="0.5" points="117.326158 27.2507925 124.385808 35.0877284 113.231295 45 97.1718062 45 107.787539 35.6434445 115.223474 35.6434445 115.223474 29.0947304"></polygon>
            </g>
        </g>
    </g>
</svg>