<?xml version="1.0" encoding="utf-8"?>
<!-- Generator: Adobe Illustrator 25.2.1, SVG Export Plug-In . SVG Version: 6.00 Build 0)  -->
<svg version="1.1" id="Ebene_1" xmlns="http://www.w3.org/2000/svg" xmlns:xlink="http://www.w3.org/1999/xlink" x="0px" y="0px"
	 viewBox="0 0 30 31" style="enable-background:new 0 0 30 31;" xml:space="preserve">
<linearGradient id="SVGID_1_" gradientUnits="userSpaceOnUse" x1="2731.9194" y1="-2896.8577" x2="2953.4136" y2="-2724.4753" gradientTransform="matrix(0.15 0 0 -0.15 -411.4 -406.1)">
	<stop  offset="0" style="stop-color:#BEBEBE"/>
	<stop  offset="1" style="stop-color:#DBDBDB"/>
</linearGradient>
<path style="fill:url(#SVGID_1_);" d="M15,0.5L15,0.5c8.3,0,15,6.7,15,15l0,0c0,8.3-6.7,15-15,15l0,0c-8.3,0-15-6.7-15-15l0,0
	C0,7.2,6.7,0.5,15,0.5z"/>
<path style="fill:#FFFFFF;" d="M15.1,18.4c-1.1,1.6-1.9,2.8-1.9,2.8c0,0.1,0,0,0,0l6.1,0c0,0,0.1,0,0.1,0l2.8,2.5
	c0,0,0.1,0.1,0.1,0.1c0,0.1-0.1,0.2-0.2,0.2H8.4C8.2,24,8,23.8,8,23.6c0,0-0.1-0.4,0.1-0.7c0-0.1,1.4-2.1,3.1-4.5L15.1,18.4z
	 M15.1,12.7c1.1-1.6,1.9-2.7,1.9-2.8c0.1-0.1,0-0.1,0-0.1l-3.7,0h-2.5c0,0-0.1,0-0.1,0L8,7.2C7.9,7.1,8,6.9,8.1,6.9h5.1h8.5
	c0.2,0,0.5,0.2,0.5,0.5c0,0,0,0.2-0.1,0.5c-0.1,0.1-1.5,2.3-3.2,4.8L15.1,12.7z"/>
</svg>
