<svg version="1.0" xmlns="http://www.w3.org/2000/svg" width="933.333" height="933.333" viewBox="0 0 700 700"><path d="M474.9 34c-1.4.4-8.4 3.7-15.5 7.3-15.4 7.9-16.1 8.2-27.8 10.8-14.6 3.3-15.4 3.6-26.1 7.6-28.3 10.7-48.5 24-97.5 64.3-9.1 7.5-19.8 16.2-23.8 19.4-4.1 3.2-9.7 8.4-12.5 11.4-2.9 3.1-14.4 14.9-25.7 26.2-11.3 11.3-23.4 24.2-27 28.6l-6.5 8.2-40 20c-44.7 22.4-58 28.4-77 34.7-20.2 6.7-38.1 9.7-44.2 7.4-4-1.5-2.5.7 5.8 8.5 18.3 17.2 40.4 28.8 65.1 34.1l7.7 1.7-3.2 2.7c-6.3 5.4-26.4 20.8-34.7 26.6-26.3 18.6-52.4 30.8-63.8 30-4.2-.3-2.1 1.3 9.1 6.9 7.3 3.6 15.5 6.8 23.8 9 10.9 3 16.3 4 31.4 6.2 1.7.2 6.1.6 9.9.9 3.7.2 7 .6 7.3.9.3.2-.8 2.5-2.4 5.1-1.5 2.5-3.2 5.4-3.8 6.3-10 17.2-21.8 34.7-30.8 45.7-13 16.1-30.4 30.6-38.2 32.1-1.9.3-3.5 1-3.5 1.4 0 1.1 7.9 3.7 15 5 3 .6 6.6 1.2 8 1.5 1.3.3 5.4.7 9 1 3.6.4 7.2.8 8.1 1.1 2.7.7 27.8.7 35.3-.1 3.8-.4 10.7-1.5 15.3-2.4 4.6-1 8.6-1.5 8.8-1.2.1.3.6 2.4.9 4.6.4 2.2 1.6 7.8 2.7 12.5s2.3 9.5 2.5 10.8c.8 4.3 10.3 34.8 18.3 59.4 4.4 13.3 8.5 26.2 9.2 28.4l1.2 4.2 8.1-.1c7.2 0 12 .4 23.1 1.8 1.7.2 5 .7 7.5 1 2.5.3 5.4.7 6.5.9 1.1.2 4.5.7 7.5 1.2 3 .4 5.7.8 6 .9.3.1 2.5.5 5 .9 9.7 1.6 71.6 13.3 80 15 8.2 1.8 13 2.7 15.6 3.2 1.6.3 6.7 1.4 11.4 2.4 7.1 1.6 57 11.5 68.2 13.6 1.8.3 6.9 1.2 11.3 2s14.3 1.4 22.2 1.4h14.2l-3.1-6.7c-1.6-3.8-3.9-8.8-5-11.3-3.4-7.6-32.4-65.7-39.3-79-3.7-6.9-9.8-18.6-13.7-26-3.9-7.4-9-17.1-11.3-21.5-2.3-4.4-6.6-12.5-9.5-18-2.9-5.5-7-13.2-9-17-2.1-3.9-6.3-12-9.5-18-6.6-12.7-13.4-25.4-18-34-1.8-3.3-5.8-11-9-17-3.2-6.1-7-13.3-8.5-16-1.5-2.8-4.8-8.8-7.2-13.5-16.3-30.7-23.2-43.7-24.1-44.8-.5-.7-.8-1.4-.6-1.7.3-.2 4 5.5 8.4 12.8 15.9 26.2 28.7 47.3 31 50.7 1.2 1.9 10.5 17 20.5 33.5 31.3 51.2 61.2 99.8 64 104 1.5 2.2 2.9 4.5 3.1 5 .2.6 6.7 11.1 14.4 23.3 7.7 12.2 14.5 23 15 23.9 7.2 12.8 41.4 64.3 43.1 65 3.5 1.3 28.6-7.9 48.9-17.9 17-8.4 16.5-7.8 12.4-13-1.9-2.4-3.9-4.9-4.7-5.6-.7-.8-2.5-3-4-5-1.5-2.1-2.9-3.9-3.2-4.2-1.2-1.1-22.3-28.4-32.9-42.5-6.2-8.3-11.9-15.8-12.7-16.8-1.6-2-34-46.1-48.1-65.5-9.8-13.6-45.8-64.6-51.2-72.5-1.8-2.7-6.2-11.5-9.8-19.5-8.1-18.4-11.8-34.4-10.8-46.2.6-8.1 1.3-13.2 2-16.7.5-2.1 12.6-30.1 18.4-42.7l2.8-5.8.6 10.8c1.5 25.6 5.8 37.8 18.1 51.9 2 2.2 3.9 4.4 4.3 5 6.5 8.3 28.2 32.1 35.7 39.2 13.8 13 17.2 14.2 39.2 13 7-.4 10.6-.1 15.8 1.3 13.5 3.8 23.1 7.7 26.4 10.7.7.7 1.7 1.3 2.2 1.3.5 0 7 6.1 14.5 13.6 10.8 11 14.1 14.9 16.6 20.2 1.7 3.6 4.2 8.2 5.7 10.1 7 9.7 10.8 14.7 11.9 15.9.7.7 1.8 2.1 2.5 3 2.5 3.3 11.3 10.4 15.8 12.7 6.8 3.5 14.7 5.5 23.2 6.1 10.3.7 10.4.6 27.4-15.7 9.8-9.4 14.5-20.1 19.5-44.2 5.5-26.6 5.9-31.7 3.2-44.4-2.4-11.5-6.8-20.6-28.8-58.8-5.1-8.8-10.1-17.6-11.2-19.5-1.1-1.9-10.5-18.1-20.9-36-10.4-17.9-19.5-33.6-20.2-35-2.7-5.7-6.5-20.1-8.7-33-1.9-11.8-7.8-24.8-15.6-34.7l-4.9-6.2 4.3-1.1c2.3-.6 4.6-1.2 5.2-1.4.5-.1-1.6-1.1-4.8-2.1-6-1.9-15.8-7.2-19-10.4-1.8-1.8-1.6-1.8 6.2-1.5 4.5.2 9.1.6 10.4.8 1.2.2 3.9.7 6 1.1 2 .4 3.7.5 3.7.1 0-.3-3.1-2.1-6.8-4-7.8-3.9-23-8.6-28-8.6-3.8 0-3.5-1.5.5-2.5 3.3-.8 17.5-7.7 17-8.2-.2-.2-2.8.2-5.8.7-3 .6-10.3 1.3-16.3 1.5l-10.9.3-6.8-7c-8.9-9.2-13.1-15.4-17.4-25.8-3.8-9.1-3.8-8.8-5-40-1.1-27.5-1.1-27.6-6.8-31-3.3-2.1-9.1-2.5-13.8-1zm37.6 156.2c1.1 1.7 2.9 4.6 4 6.5 1.1 1.8 8.8 14.1 17 27.3 17.4 27.9 19.1 30.8 18.2 31.6-.9.9-7.2-1.4-14.1-5.1-3.4-1.8-10.8-5.7-16.6-8.7-11.6-5.9-13.9-7.9-17.5-15.5-3.1-6.7-4.3-16.7-3.6-31 .2-3.3 5.7-8 9.6-8.2.6-.1 2 1.3 3 3.1zm-14.9 137.6c6.7 3.4 11.6 8.5 20.4 20.8 8.5 12.1 22.6 31 24.5 33 .5.6 2.1 2.4 3.4 4 1.3 1.6 3.3 4 4.5 5.4 1.1 1.3-.4.4-3.4-2-7.6-6.3-29.8-24.7-34.1-28.4-1.9-1.7-4.6-4-6-5.1-1.3-1.1-7.7-6.3-14.1-11.7-6.4-5.3-13-9.9-14.7-10.3-1.6-.3-3.5-1.3-4.2-2.2-1.1-1.2-1-1.7.6-2.6 7-4.2 16.1-4.5 23.1-.9zm166 80.8c1.3 1.9 1.6 4 1.1 9.3-.7 8.8-4.5 24.7-6.1 26-1.9 1.6-2.9 0-6.1-10.4-3.2-10.3-3.5-12.2-2.6-14.9.6-1.4 1.3-.4 3 4.5 1.3 3.5 2.7 6.8 3.2 7.3.8 1-2.8-11.9-4.1-14.4-1-1.9 1.1-7.1 3.9-9.9 2.5-2.5 5-1.7 7.7 2.5z"/><path d="M510 59.6c-.8.3-3.2 1.2-5.2 2.1l-3.6 1.5.3 13.2c.7 21.5 1.1 23.3 9.8 36 6.2 9.2 11.5 15.2 15.9 18 2.8 1.9 4.3.9 3.4-2.2-.7-2.2-1.5-11-2.1-23.7-.3-5.5-.8-12.9-1-16.5-.2-3.6-.5-9.3-.6-12.8-.2-6.4-2.3-10.7-6.6-13.7-2.2-1.6-8.2-2.6-10.3-1.9z"/></svg>